<svg width="160" height="160" viewBox="0 0 160 160" fill="none" xmlns="http://www.w3.org/2000/svg">
<path d="M79.4003 0.0118408C79.9603 0.0182782 80.5204 0.0247156 81.0804 0.031153C81.0804 1.14057 81.0804 2.24999 81.0804 3.39302C81.3947 3.38385 81.7091 3.37467 82.0329 3.36521C89.5089 3.21731 97.7259 4.44244 104.671 7.33735C105.316 7.5883 105.969 7.7939 106.628 8.00324C107.913 8.41948 109.122 8.94829 110.338 9.5374C110.902 9.80982 111.471 10.0656 112.046 10.313C117.871 12.8283 123.514 16.2736 128.344 20.4001C128.566 20.5871 128.787 20.7741 129.009 20.961C132.067 23.5522 135.13 26.2285 137.624 29.3819C138.044 29.9041 138.484 30.399 138.937 30.8936C143.221 35.6146 146.765 41.1747 149.517 46.912C149.698 47.2871 149.886 47.6589 150.074 48.0305C152.079 52.046 153.518 56.4071 154.646 60.7426C154.719 61.013 154.792 61.2834 154.865 61.5537C155.715 64.7626 156.249 68.0209 156.673 71.3102C156.691 71.4427 156.708 71.5752 156.726 71.7116C156.968 73.5477 157.053 75.3063 157.019 77.1564C157.998 77.1564 158.977 77.1564 159.986 77.1564C160.005 78.9911 160.005 78.9911 159.986 79.5295C159.788 79.7273 159.788 79.7273 159.163 79.7466C158.781 79.7431 158.781 79.7431 158.391 79.7396C158.136 79.7378 157.881 79.7361 157.618 79.7342C157.321 79.7308 157.321 79.7308 157.019 79.7273C157.024 79.9103 157.028 80.0933 157.033 80.2819C157.125 85.7968 156.279 91.1638 155.162 96.5444C155.051 97.0851 154.943 97.6264 154.837 98.1681C154.468 100.024 154.003 101.811 153.407 103.606C153.242 104.113 153.083 104.622 152.926 105.132C152.329 107.054 151.72 108.939 150.889 110.775C150.752 111.092 150.615 111.408 150.479 111.725C147.412 118.744 143.165 125.261 138.034 130.946C137.897 131.099 137.76 131.252 137.619 131.41C137.316 131.747 137.013 132.083 136.709 132.419C136.42 132.741 136.133 133.065 135.85 133.392C134.047 135.46 132.004 137.315 129.862 139.026C129.282 139.491 128.715 139.971 128.147 140.451C127.06 141.357 125.938 142.191 124.785 143.01C124.569 143.168 124.353 143.326 124.137 143.485C122.637 144.583 121.102 145.583 119.491 146.512C119.177 146.693 118.864 146.876 118.552 147.06C110.911 151.547 102.513 154.693 93.773 156.199C93.5944 156.23 93.4157 156.261 93.2317 156.292C92.9916 156.333 92.9916 156.333 92.7466 156.375C92.3405 156.442 92.3405 156.442 91.9571 156.655C91.1781 156.785 90.3927 156.87 89.6087 156.964C89.3946 156.991 89.1804 157.019 88.9598 157.047C87.5128 157.222 86.0971 157.282 84.6401 157.248C84.5859 156.03 84.7544 154.875 85.0356 153.688C85.3781 153.346 85.8599 153.4 86.3279 153.347C91.7623 152.701 97.0141 151.577 102.24 149.931C102.483 149.856 102.726 149.781 102.976 149.703C108.883 147.808 114.959 144.794 120.039 141.23C120.306 141.044 120.573 140.859 120.84 140.674C122.418 139.574 123.962 138.443 125.469 137.248C125.971 136.879 125.971 136.879 126.565 136.681C126.565 136.551 126.565 136.42 126.565 136.286C126.886 136.005 126.886 136.005 127.356 135.655C130.013 133.583 132.543 131.131 134.731 128.569C135.091 128.151 135.463 127.745 135.834 127.337C136.603 126.474 137.295 125.564 137.98 124.634C138.267 124.245 138.559 123.859 138.855 123.478C142.74 118.456 145.796 112.594 147.96 106.638C148.1 106.28 148.253 105.926 148.409 105.574C148.707 104.881 148.924 104.181 149.126 103.453C149.162 103.324 149.198 103.194 149.235 103.061C149.351 102.642 149.465 102.222 149.579 101.802C149.618 101.658 149.657 101.514 149.698 101.365C150.369 98.8907 150.929 96.4073 151.388 93.8842C151.472 93.4257 151.561 92.9684 151.652 92.5112C153.477 83.2265 153.314 73.8719 151.213 64.6636C151.094 64.1364 150.979 63.6085 150.866 63.0801C149.136 55.226 145.856 47.4586 141.396 40.7691C140.735 40.6531 140.735 40.6531 139.987 40.6332C139.734 40.6202 139.481 40.6072 139.219 40.5938C139.024 40.5864 138.829 40.579 138.628 40.5714C138.639 40.7483 138.651 40.9252 138.663 41.1075C138.731 42.9382 138.567 44.3029 137.3 45.6883C136.365 46.5397 135.491 46.9507 134.21 46.9445C133.897 46.9444 133.897 46.9444 133.577 46.9443C133.36 46.9423 133.143 46.9403 132.92 46.9382C132.719 46.9378 132.518 46.9374 132.31 46.937C131.561 46.9349 130.812 46.9294 130.062 46.9243C128.386 46.9162 126.71 46.908 124.983 46.8996C124.983 50.2931 124.983 53.6866 124.983 57.183C129.29 57.183 133.597 57.183 138.034 57.183C137.475 55.2281 137.475 55.2281 136.021 54.0961C135.279 53.7918 134.622 53.7482 133.817 53.7477C133.546 53.7443 133.275 53.7408 133.004 53.7373C132.582 53.7353 132.16 53.7346 131.738 53.7349C131.327 53.7342 130.916 53.7288 130.505 53.723C130.261 53.7226 130.017 53.7223 129.766 53.7219C129.135 53.6233 129.135 53.6233 128.654 53.2656C128.344 52.8323 128.344 52.8323 128.344 52.1278C128.565 51.368 128.666 51.2352 129.333 50.8547C129.855 50.7842 129.855 50.7842 130.443 50.7898C130.765 50.7914 130.765 50.7914 131.092 50.7929C131.315 50.797 131.538 50.8011 131.768 50.8053C131.989 50.8063 132.209 50.8073 132.437 50.8084C135.018 50.8329 136.971 51.3206 138.924 53.1004C140.082 54.3699 140.435 55.5006 140.408 57.183C140.54 57.1788 140.673 57.1747 140.809 57.1704C141.413 57.1539 142.016 57.1437 142.62 57.1335C142.829 57.1269 143.037 57.1203 143.252 57.1134C144.797 57.0939 144.797 57.0939 145.589 57.5383C145.945 57.974 145.945 57.974 146.056 58.6661C145.927 59.4702 145.783 59.656 145.154 60.1493C144.646 60.2391 144.646 60.2391 144.082 60.2266C143.778 60.2227 143.778 60.2227 143.467 60.2188C143.152 60.2089 143.152 60.2089 142.83 60.1988C142.617 60.1952 142.403 60.1916 142.184 60.1879C141.657 60.1786 141.131 60.1656 140.605 60.1493C140.608 60.278 140.612 60.4067 140.615 60.5393C140.627 61.122 140.635 61.7047 140.642 62.2876C140.65 62.5914 140.65 62.5914 140.657 62.9013C140.659 63.0957 140.661 63.2901 140.663 63.4903C140.668 63.7591 140.668 63.7591 140.673 64.0332C140.592 64.5897 140.456 64.7597 140.012 65.0932C139.449 65.207 139.014 65.1488 138.43 65.0932C137.513 63.7177 138.034 61.8026 138.034 60.1493C130.138 60.1493 122.242 60.1493 114.106 60.1493C114.026 63.0151 114.026 63.0151 114.699 65.6865C114.828 66.5141 114.695 66.9565 114.229 67.627C113.929 68.0247 113.763 68.2308 113.315 68.4551C112.079 68.5695 112.079 68.5695 111.449 68.0843C111.14 67.6641 111.14 67.6641 111.14 67.2686C110.095 67.2686 109.051 67.2686 107.975 67.2686C107.975 66.3549 107.975 65.4413 107.975 64.5C109.15 64.5 110.325 64.5 111.535 64.5C111.535 63.1295 111.535 61.7591 111.535 60.3471C110.36 60.3471 109.186 60.3471 107.975 60.3471C107.975 59.3029 107.975 58.2588 107.975 57.183C112.739 57.183 117.503 57.183 122.412 57.183C122.412 56.0083 122.412 54.8336 122.412 53.6233C117.648 53.6233 112.884 53.6233 107.975 53.6233C107.975 52.7097 107.975 51.7961 107.975 50.8547C112.674 50.7895 117.373 50.7242 122.214 50.657C122.214 49.4823 122.214 48.3076 122.214 47.0973C121.798 47.0945 121.381 47.0916 120.953 47.0886C119.578 47.0787 118.204 47.0655 116.83 47.0507C115.997 47.0419 115.163 47.0341 114.33 47.0288C113.526 47.0237 112.722 47.0157 111.918 47.0058C111.611 47.0024 111.304 47.0002 110.997 46.9989C110.568 46.997 110.138 46.9915 109.709 46.9851C109.464 46.9829 109.22 46.9807 108.968 46.9784C108.371 46.8996 108.371 46.8996 107.995 46.6216C107.723 46.2265 107.704 45.9922 107.716 45.5153C107.717 45.3807 107.717 45.2461 107.718 45.1074C107.778 44.7243 107.778 44.7243 108.173 44.131C108.761 44.0596 108.761 44.0596 109.525 44.0636C109.664 44.0636 109.803 44.0635 109.946 44.0634C110.406 44.0638 110.866 44.0684 111.326 44.0731C111.645 44.0742 111.964 44.075 112.282 44.0756C113.122 44.0779 113.961 44.0837 114.801 44.0903C115.657 44.0963 116.513 44.099 117.37 44.102C119.05 44.1084 120.731 44.1185 122.412 44.131C122.469 44.0046 122.526 43.8781 122.585 43.7478C122.807 43.34 122.807 43.34 123.203 43.1422C124.266 43.0517 124.266 43.0517 124.76 43.4141C124.983 43.7355 124.983 43.7355 124.983 44.131C126.344 44.1177 127.706 44.1 129.068 44.0791C129.531 44.0725 129.995 44.067 130.458 44.0625C131.124 44.0558 131.79 44.0455 132.456 44.0344C132.767 44.0325 132.767 44.0325 133.083 44.0306C134.474 44.0166 134.474 44.0166 135.661 43.34C136.078 42.5061 135.979 41.5004 136.057 40.5714C133.055 40.5714 130.053 40.5714 126.96 40.5714C127.709 38.3243 127.709 38.3243 128.147 37.8028C128.638 37.6839 128.638 37.6839 129.231 37.6905C129.452 37.6906 129.674 37.6907 129.902 37.6907C130.141 37.6958 130.381 37.7009 130.627 37.7062C130.872 37.7076 131.117 37.709 131.369 37.7104C132.02 37.715 132.67 37.7239 133.321 37.7349C133.985 37.745 134.649 37.7495 135.313 37.7545C136.616 37.7654 137.919 37.782 139.221 37.8028C137.957 35.6951 137.957 35.6951 136.059 34.3424C135.593 34.3011 135.144 34.3022 134.677 34.3165C134.51 34.3162 134.342 34.3158 134.169 34.3154C133.636 34.3146 133.104 34.3213 132.571 34.3297C132.037 34.3369 131.504 34.3424 130.969 34.3418C130.638 34.3414 130.306 34.3456 129.975 34.3549C129.186 34.3546 128.827 34.3255 128.243 33.7743C127.912 33.1898 127.814 32.923 127.949 32.2656C128.382 31.7023 128.608 31.4949 129.32 31.3847C129.539 31.3889 129.759 31.393 129.985 31.3973C130.223 31.3998 130.462 31.4024 130.707 31.405C131.079 31.415 131.079 31.415 131.459 31.4251C131.71 31.4287 131.961 31.4322 132.22 31.4359C132.84 31.4452 133.46 31.4582 134.079 31.4745C133.861 31.223 133.643 30.9717 133.424 30.7206C133.303 30.5806 133.181 30.4407 133.056 30.2965C132.708 29.896 132.708 29.896 132.353 29.5688C132.102 29.2992 132.102 29.2992 132.102 28.9037C131.937 28.8364 131.937 28.8364 131.768 28.7677C131.014 28.3395 130.47 27.672 129.869 27.0528C128.805 25.9637 127.703 24.9679 126.506 24.0273C126.261 23.8345 126.017 23.6408 125.773 23.4465C120.075 18.906 112.81 13.7173 105.602 12.0943C105.586 12.3538 105.57 12.6134 105.553 12.8807C105.439 13.8906 105.105 14.65 104.614 15.5304C104.534 15.6756 104.455 15.8209 104.373 15.9706C102.757 18.8504 100.26 21.5223 97.0207 22.5242C96.0012 22.7896 94.9725 22.9899 93.9346 23.1687C93.9249 23.3212 93.9153 23.4736 93.9053 23.6307C93.8905 23.829 93.8757 24.0273 93.8605 24.2317C93.8467 24.429 93.8329 24.6263 93.8188 24.8296C93.7369 25.3441 93.7369 25.3441 93.3414 25.7396C92.7481 25.789 92.7481 25.789 92.1548 25.7396C91.7593 25.3441 91.7593 25.3441 91.7207 24.8296C91.7276 24.5336 91.7276 24.5336 91.7346 24.2317C91.7382 24.0334 91.7417 23.835 91.7454 23.6307C91.7523 23.402 91.7523 23.402 91.7593 23.1687C91.5309 23.1565 91.3025 23.1443 91.0672 23.1317C87.2894 22.7026 83.7928 20.7874 81.4265 17.8169C80.3708 16.4348 79.73 14.8916 79.1029 13.2809C79.0299 13.1047 78.957 12.9286 78.8819 12.7471C78.1864 10.9344 78.2692 9.05797 78.3118 7.15041C75.437 7.22575 72.6443 7.46932 69.8083 7.94144C69.5935 7.97614 69.3787 8.01084 69.1573 8.04659C58.1335 9.84031 46.9351 14.0075 37.9694 20.7957C37.7554 20.9551 37.5414 21.1145 37.3274 21.2738C35.8063 22.4167 34.359 23.6388 32.9256 24.8893C32.6787 25.1039 32.4298 25.3162 32.1803 25.5279C31.0141 26.5228 29.9484 27.6156 28.8725 28.7059C28.4139 29.1659 27.9547 29.625 27.4913 30.0802C27.3761 30.1936 27.2609 30.3071 27.1422 30.424C27.0249 30.5389 26.9076 30.6539 26.7868 30.7723C26.4804 31.0702 26.4804 31.0702 26.3017 31.4745C26.4114 31.4732 26.5212 31.4719 26.6342 31.4705C27.7762 31.4574 28.9183 31.4485 30.0603 31.4419C30.4866 31.439 30.9128 31.4349 31.339 31.4298C31.9516 31.4226 32.5642 31.4192 33.1768 31.4166C33.3674 31.4135 33.558 31.4105 33.7543 31.4073C33.9324 31.4073 34.1106 31.4072 34.2941 31.4072C34.4504 31.4059 34.6067 31.4046 34.7678 31.4032C35.3218 31.4945 35.591 31.6787 35.9918 32.0678C36.0907 32.7476 36.0907 32.7476 35.9918 33.4521C35.5831 33.9874 35.3569 34.2173 34.6848 34.3285C34.4894 34.3225 34.294 34.3165 34.0926 34.3103C33.87 34.3059 33.6475 34.3015 33.4182 34.297C33.0582 34.2852 33.0582 34.2852 32.691 34.2733C32.1807 34.2675 31.6705 34.2622 31.1603 34.2574C30.3572 34.247 29.5547 34.2318 28.752 34.2059C25.6599 33.9485 25.6599 33.9485 22.8959 34.9995C22.3144 35.6107 21.9257 36.2563 21.5555 37.0117C21.425 37.2728 21.2945 37.5338 21.16 37.8028C25.9892 37.8028 30.8185 37.8028 35.794 37.8028C36.1203 38.6511 36.4466 39.4995 36.7828 40.3736C32.8672 40.3736 28.9516 40.3736 24.9174 40.3736C24.9456 42.5302 24.9456 42.5302 25.4905 43.4793C26.3828 44.1396 27.1216 44.0971 28.2059 44.0769C28.5104 44.0772 28.5104 44.0772 28.8211 44.0775C29.2495 44.0766 29.6778 44.0728 30.1062 44.0662C30.7621 44.0569 31.4174 44.0581 32.0733 44.0607C32.4899 44.0585 32.9064 44.0557 33.3228 44.0522C33.519 44.0526 33.7151 44.0529 33.9172 44.0533C34.988 44.054 34.988 44.054 35.8867 43.5365C35.9866 43.4064 36.0866 43.2763 36.1896 43.1422C36.7828 43.0433 36.7828 43.0433 37.3761 43.1422C37.49 43.2725 37.604 43.4029 37.7214 43.5372C38.3391 44.0861 38.7454 44.0355 39.564 44.0412C39.703 44.0432 39.842 44.0453 39.9852 44.0474C40.4432 44.0532 40.901 44.0535 41.359 44.0537C41.6772 44.0567 41.9953 44.06 42.3134 44.0637C43.1495 44.0723 43.9857 44.0762 44.8219 44.0792C45.6756 44.0831 46.5292 44.0914 47.3829 44.0993C49.0571 44.1142 50.7314 44.1242 52.4056 44.131C52.4271 44.4438 52.4424 44.757 52.4551 45.0703C52.4643 45.2447 52.4734 45.4191 52.4829 45.5987C52.4056 46.1086 52.4056 46.1086 52.0909 46.5634C51.4541 47.0129 51.0485 46.9951 50.2722 46.9894C50.0724 46.9896 50.0724 46.9896 49.8686 46.9897C49.4298 46.9892 48.9912 46.983 48.5525 46.9768C48.2477 46.9754 47.9429 46.9742 47.6381 46.9734C46.837 46.9704 46.0359 46.9627 45.2349 46.9539C44.417 46.9458 43.5991 46.9422 42.7812 46.9382C41.1772 46.9297 39.5733 46.9158 37.9694 46.8996C38.0346 48.1395 38.0999 49.3795 38.1671 50.657C42.8658 50.7222 47.5645 50.7875 52.4056 50.8547C52.4056 51.7684 52.4056 52.682 52.4056 53.6233C47.7069 53.6233 43.0082 53.6233 38.1671 53.6233C38.1671 54.798 38.1671 55.9727 38.1671 57.183C42.8658 57.183 47.5645 57.183 52.4056 57.183C52.4056 58.2271 52.4056 59.2713 52.4056 60.3471C51.1657 60.3471 49.9258 60.3471 48.6483 60.3471C48.6483 61.7828 48.6483 63.2185 48.6483 64.6977C49.8882 64.6977 51.1281 64.6977 52.4056 64.6977C52.4056 65.5461 52.4056 66.3945 52.4056 67.2686C51.2962 67.2686 50.1868 67.2686 49.0438 67.2686C48.9132 67.5949 48.7827 67.9212 48.6483 68.2574C48.0196 68.5717 47.5614 68.5373 46.8684 68.4551C46.3416 68.0195 45.9875 67.4843 45.6819 66.8731C45.6632 66.5728 45.6562 66.2717 45.6572 65.9708C45.6567 65.8115 45.6562 65.6521 45.6556 65.488C45.6819 65.0932 45.6819 65.0932 45.8797 64.8955C45.9449 63.3293 46.0102 61.763 46.0774 60.1493C38.181 60.1493 30.2845 60.1493 22.1488 60.1493C22.1488 61.585 22.1488 63.0208 22.1488 64.5C21.3578 65.291 21.3578 65.291 20.7521 65.3034C20.1712 65.0932 20.1712 65.0932 19.8406 64.7132C19.4591 63.829 19.5147 63.0164 19.5409 62.0651C19.5436 61.8809 19.5462 61.6967 19.549 61.507C19.556 61.0543 19.5657 60.6019 19.578 60.1493C19.4383 60.1545 19.2987 60.1597 19.1548 60.165C18.5214 60.1856 17.888 60.1984 17.2543 60.2111C17.0346 60.2194 16.8148 60.2277 16.5884 60.2362C14.9626 60.2607 14.9626 60.2607 14.291 59.6889C13.9868 59.0466 13.9213 58.676 14.0408 57.974C14.461 57.429 14.6883 57.2067 15.3754 57.0932C15.6799 57.0994 15.6799 57.0994 15.9905 57.1057C16.3213 57.1095 16.3213 57.1095 16.6587 57.1134C16.8879 57.1201 17.1171 57.1267 17.3532 57.1335C17.5854 57.1371 17.8177 57.1407 18.0569 57.1443C18.63 57.1537 19.2028 57.1667 19.7757 57.183C19.7711 57.0497 19.7665 56.9164 19.7618 56.779C19.7582 56.6029 19.7547 56.4267 19.751 56.2452C19.7464 56.0711 19.7418 55.897 19.7371 55.7176C19.8392 54.3635 20.952 53.3658 21.8421 52.4283C23.6909 51.0098 25.3092 50.9058 27.5669 50.9453C28.0729 50.9537 28.5785 50.9534 29.0846 50.9521C29.4071 50.9541 29.7296 50.9567 30.0521 50.9598C30.2029 50.9598 30.3537 50.9599 30.5091 50.9599C31.5392 50.9831 31.5392 50.9831 32.0317 51.3186C32.3582 51.8456 32.3207 52.2285 32.2344 52.8323C31.9245 53.2594 31.9245 53.2594 31.4434 53.6233C30.7765 53.7219 30.7765 53.7219 29.9872 53.723C29.7766 53.7258 29.7766 53.7258 29.5616 53.7286C29.1135 53.7343 28.6656 53.7349 28.2175 53.7346C27.7715 53.7353 27.3256 53.7372 26.8797 53.7426C26.6028 53.7459 26.3258 53.7465 26.0489 53.744C24.9307 53.7559 23.9782 53.9986 23.1453 54.7767C23.0069 54.9705 23.0069 54.9705 22.8657 55.1683C22.7703 55.296 22.675 55.4237 22.5768 55.5553C22.2674 56.0924 22.2674 56.0924 22.1488 57.183C26.5212 57.183 30.8936 57.183 35.3985 57.183C35.3985 53.8547 35.3985 50.5265 35.3985 47.0973C32.5588 47.1285 32.5588 47.1285 29.7193 47.1686C29.3593 47.1709 28.9993 47.1729 28.6392 47.1746C28.4572 47.1786 28.2752 47.1827 28.0876 47.1869C26.5918 47.1877 25.2175 46.8771 24.0399 45.9108C23.9379 45.7803 23.8359 45.6498 23.7309 45.5153C23.6248 45.3848 23.5188 45.2543 23.4095 45.1198C23.3198 44.9893 23.23 44.8587 23.1376 44.7243C23.0606 44.6131 22.9836 44.502 22.9043 44.3875C22.6478 43.6694 22.7011 42.9585 22.7174 42.2029C22.7191 42.0461 22.7209 41.8893 22.7228 41.7278C22.7274 41.3423 22.7345 40.9568 22.7421 40.5714C21.4075 40.4078 20.0675 40.2812 18.7869 40.7691C17.7631 41.6382 17.2395 42.9439 16.6876 44.1404C16.4123 44.7276 16.1147 45.2965 15.8059 45.8668C14.1451 48.9395 12.4897 52.0532 11.4699 55.4031C11.3777 55.6554 11.2831 55.9068 11.1856 56.1571C10.4782 58.0232 9.87876 59.914 9.36874 61.8426C9.33041 61.987 9.29208 62.1313 9.25258 62.2801C6.96338 71.1297 6.35138 80.3674 7.71253 89.4174C7.74298 89.6249 7.77342 89.8325 7.80479 90.0464C8.35303 93.7086 9.07699 97.3241 10.0856 100.887C10.1896 101.265 10.1896 101.265 10.2957 101.65C10.9571 104.019 11.7365 106.292 12.743 108.538C12.846 108.768 12.949 108.998 13.0551 109.236C17.5392 119.134 24.121 129.76 32.8824 136.42C33.1931 136.658 33.4993 136.902 33.8049 137.147C37.0597 139.735 40.6042 141.952 44.2458 143.95C44.6384 144.166 45.0277 144.387 45.4162 144.61C51.2189 147.858 57.6649 150.017 64.1023 151.574C64.5804 151.69 65.0576 151.809 65.5349 151.928C67.8621 152.492 70.227 152.823 72.5954 153.162C72.8064 153.193 72.8064 153.193 73.0216 153.224C73.41 153.28 73.7986 153.335 74.1872 153.39C74.7522 153.491 74.7522 153.491 74.95 153.688C75.0618 154.174 75.164 154.658 75.2589 155.147C75.2863 155.283 75.3138 155.418 75.342 155.558C75.4553 156.132 75.5432 156.662 75.5432 157.248C72.3615 157.36 69.2813 156.84 66.1825 156.174C65.6381 156.058 65.0926 155.948 64.5468 155.839C62.0454 155.33 59.6413 154.651 57.2213 153.841C56.6002 153.637 55.9746 153.453 55.3473 153.268C54.3702 152.969 53.4394 152.605 52.5014 152.201C51.801 151.904 51.0954 151.624 50.3875 151.346C48.5215 150.61 46.6822 149.846 44.8909 148.942C44.7121 148.852 44.5333 148.762 44.3492 148.669C39.6265 146.264 34.9705 143.412 30.9366 139.957C30.8294 139.865 30.7221 139.773 30.6116 139.679C29.6212 138.828 28.6519 137.955 27.686 137.077C27.5167 136.926 27.3475 136.775 27.1731 136.62C25.6569 135.268 24.2623 133.871 22.9398 132.331C22.7651 132.131 22.5903 131.932 22.4153 131.733C14.5368 122.719 8.48439 111.916 5.5372 100.294C5.47675 100.057 5.4163 99.8208 5.35402 99.577C3.68702 93.0029 2.80148 86.5177 2.96636 79.7273C1.98746 79.7273 1.00856 79.7273 0 79.7273C0 78.8789 0 78.0305 0 77.1564C0.978898 77.1564 1.9578 77.1564 2.96636 77.1564C2.9582 76.7893 2.95004 76.4223 2.94164 76.044C2.9643 70.3507 4.0818 64.5944 5.73496 59.1605C5.78075 59.0055 5.82654 58.8505 5.87371 58.6909C6.20006 57.5869 6.55138 56.4932 6.9215 55.4031C6.9802 55.2296 7.03889 55.0561 7.09936 54.8773C9.33678 48.367 12.6328 42.4139 16.6116 36.814C16.7243 36.6551 16.8371 36.4962 16.9532 36.3324C18.4228 34.2726 19.9674 32.3185 21.6518 30.4311C21.9321 30.1118 22.2037 29.7874 22.4725 29.4583C23.8053 27.8358 25.263 26.3455 26.7467 24.862C26.8494 24.7591 26.9522 24.6561 27.0581 24.55C28.2203 23.3881 29.3931 22.2487 30.6524 21.1912C30.7714 21.0906 30.8905 20.9899 31.0131 20.8863C34.1203 18.2826 37.3598 15.9711 40.8705 13.9426C41.2899 13.7003 41.7074 13.455 42.1246 13.209C45.1447 11.4491 48.3232 9.91125 51.6146 8.73247C51.8705 8.63519 52.1262 8.5373 52.3817 8.43892C53.8355 7.88074 55.2905 7.36928 56.7841 6.92484C57.2535 6.78377 57.7151 6.63199 58.1777 6.47062C60.5555 5.67072 62.9979 5.06372 65.4576 4.57957C65.6911 4.53113 65.9246 4.4827 66.1652 4.43279C70.322 3.60314 74.4735 3.28446 78.7073 3.19527C78.705 2.98343 78.7027 2.77159 78.7004 2.55333C78.6985 2.27704 78.6967 2.00074 78.695 1.72445C78.6933 1.58462 78.6917 1.4448 78.69 1.30074C78.6882 0.943419 78.697 0.586084 78.7073 0.22891C78.9051 0.031153 78.9051 0.031153 79.4003 0.0118408Z" fill="white"/>
<path d="M56.7564 115.719C57.3038 115.937 57.8494 116.158 58.3933 116.385C61.4455 117.642 64.4391 118.297 67.6946 118.8C68.1345 118.869 68.5737 118.94 69.0127 119.014C71.3607 119.399 73.7018 119.508 76.0786 119.517C76.456 119.519 76.456 119.519 76.841 119.521C77.6485 119.525 78.4561 119.525 79.2636 119.526C79.4008 119.526 79.5381 119.526 79.6794 119.526C83.8036 119.53 87.8646 119.443 91.9571 118.883C92.3261 118.839 92.6951 118.796 93.0641 118.753C96.1155 118.376 99.1434 117.597 101.949 116.328C102.498 116.089 103.056 115.905 103.625 115.719C103.648 117.787 103.665 119.855 103.676 121.923C103.681 122.884 103.688 123.844 103.699 124.804C103.71 125.731 103.716 126.658 103.719 127.585C103.72 127.939 103.724 128.292 103.729 128.645C103.737 129.141 103.738 129.636 103.737 130.132C103.742 130.351 103.742 130.351 103.748 130.573C103.737 131.706 103.406 132.155 102.636 132.924C102.265 133.191 102.265 133.191 101.917 133.358C101.788 133.422 101.658 133.485 101.525 133.551C101.322 133.644 101.322 133.644 101.116 133.74C100.974 133.807 100.832 133.875 100.686 133.945C100.283 134.135 99.8778 134.321 99.4719 134.506C99.3021 134.586 99.1324 134.666 98.9574 134.748C96.567 135.791 92.9908 136.981 90.3751 136.681C89.9842 136.283 89.9842 136.283 89.6582 135.754C88.1563 133.375 85.992 131.703 83.2558 130.946C79.8975 130.368 76.4393 130.554 73.5657 132.528C72.0606 133.731 70.8251 135.031 69.8084 136.681C65.6468 136.297 60.2624 135.341 57.1519 132.331C56.6561 131.601 56.7031 130.848 56.7115 129.998C56.7114 129.843 56.7114 129.689 56.7113 129.53C56.7116 129.02 56.7147 128.511 56.7178 128.002C56.7185 127.648 56.7191 127.294 56.7195 126.941C56.721 126.011 56.7248 125.081 56.7292 124.151C56.7333 123.202 56.7351 122.253 56.7371 121.304C56.7413 119.442 56.7481 117.581 56.7564 115.719Z" fill="white"/>
<path d="M56.7563 88.0331C57.0009 88.1354 57.0009 88.1354 57.2505 88.2398C57.4643 88.3292 57.6782 88.4185 57.8985 88.5105C58.1106 88.5992 58.3226 88.6878 58.5411 88.7791C60.7543 89.6924 63.028 90.1872 65.3711 90.641C65.7536 90.7152 65.7536 90.7152 66.1438 90.7908C70.5682 91.6223 74.8874 91.832 79.3747 91.8275C79.5944 91.8274 79.814 91.8273 80.0403 91.8272C87.1015 91.8167 94.5561 91.4342 101.218 88.8658C101.734 88.6686 102.25 88.4883 102.774 88.3147C102.933 88.2618 103.093 88.2089 103.257 88.1544C103.379 88.1144 103.5 88.0743 103.625 88.0331C103.66 89.5603 103.684 91.0874 103.701 92.6149C103.708 93.1344 103.717 93.6538 103.729 94.1732C103.746 94.9204 103.754 95.6672 103.76 96.4146C103.767 96.6464 103.774 96.8782 103.782 97.117C103.782 98.6969 103.782 98.6969 103.323 99.3176C102.975 99.6199 102.637 99.8634 102.24 100.096C102.097 100.192 101.953 100.288 101.805 100.387C98.4206 102.092 94.677 102.694 90.9682 103.26C90.7647 103.293 90.5611 103.326 90.3514 103.36C87.1621 103.863 83.9927 103.905 80.7714 103.903C80.5685 103.903 80.3656 103.903 80.1566 103.903C63.504 103.866 63.504 103.866 57.9428 99.8985C57.641 99.722 57.641 99.722 57.333 99.5419C56.894 99.1706 56.7686 98.97 56.6517 98.4002C56.6187 97.7418 56.6231 97.0929 56.6404 96.4339C56.6421 96.1939 56.6437 95.9539 56.6455 95.7066C56.6521 94.9407 56.667 94.1753 56.6821 93.4096C56.6881 92.8901 56.6935 92.3706 56.6983 91.8511C56.7114 90.5783 56.7313 89.3057 56.7563 88.0331Z" fill="white"/>
<path d="M56.7563 73.5968C57.2716 73.8025 57.7863 74.0092 58.2998 74.2194C61.8095 75.6216 65.411 76.2297 69.1409 76.6868C69.3387 76.7111 69.5364 76.7355 69.7402 76.7606C80.1194 77.9794 92.4238 78.038 102.245 74.0317C102.712 73.8438 103.138 73.7108 103.625 73.5968C103.68 75.0639 103.718 76.5308 103.744 77.9988C103.755 78.4978 103.77 78.9967 103.789 79.4955C103.815 80.2138 103.828 80.9313 103.837 81.65C103.848 81.8721 103.86 82.0942 103.871 82.3231C103.872 82.9751 103.846 83.4637 103.625 84.0779C102.971 84.7004 102.264 85.0851 101.449 85.4622C101.188 85.5843 101.188 85.5843 100.921 85.7089C99.6949 86.2517 98.4029 86.554 97.0988 86.8465C96.8754 86.8969 96.6521 86.9474 96.422 86.9993C85.2138 89.4631 67.7266 90.9726 57.5118 84.5322C57.1518 84.2757 57.1518 84.2757 56.7563 83.8802C56.7088 83.4422 56.7088 83.4422 56.7114 82.8913C56.7115 82.6854 56.7115 82.4796 56.7115 82.2675C56.7146 81.9332 56.7146 81.9332 56.7177 81.5921C56.7183 81.3644 56.7188 81.1367 56.7194 80.9021C56.7216 80.1726 56.7266 79.4432 56.7316 78.7138C56.7336 78.2201 56.7354 77.7265 56.737 77.2329C56.7414 76.0209 56.748 74.8088 56.7563 73.5968Z" fill="white"/>
<path d="M56.7563 58.9628C56.9815 59.0534 56.9815 59.0534 57.2112 59.1459C61.1974 60.7315 65.1886 61.6502 69.4251 62.2381C69.6051 62.2632 69.785 62.2883 69.9704 62.3142C72.1737 62.6137 74.3395 62.7528 76.5637 62.7603C76.7605 62.7612 76.7605 62.7612 76.9614 62.762C77.6584 62.765 78.3555 62.7668 79.0525 62.7677C79.6164 62.7685 80.1802 62.7712 80.7441 62.7758C88.0747 62.8335 95.8123 62.2272 102.594 59.2308C103.229 58.9628 103.229 58.9628 103.625 58.9628C103.675 60.4617 103.71 61.9605 103.733 63.4601C103.743 63.97 103.757 64.4799 103.774 64.9896C103.798 65.7232 103.809 66.4559 103.818 67.1898C103.828 67.4172 103.838 67.6447 103.849 67.8791C103.849 68.5239 103.829 69.0296 103.625 69.6417C103.031 70.2034 102.395 70.5122 101.647 70.8282C101.36 70.9716 101.073 71.1155 100.787 71.26C99.7007 71.7206 98.5689 71.9715 97.4201 72.2249C97.1913 72.2759 96.9625 72.327 96.7268 72.3796C85.2067 74.906 69.0711 76.0493 58.2642 70.6181C58.0628 70.5179 57.8615 70.4177 57.654 70.3145C57.1518 70.0372 57.1518 70.0372 56.7563 69.6417C56.7088 69.1887 56.7088 69.1887 56.7114 68.6165C56.7115 68.4027 56.7115 68.1889 56.7115 67.9687C56.7136 67.7371 56.7156 67.5056 56.7177 67.267C56.7183 67.0306 56.7188 66.7941 56.7194 66.5504C56.7216 65.7928 56.7266 65.0352 56.7316 64.2775C56.7336 63.7648 56.7354 63.2521 56.737 62.7395C56.7414 61.4806 56.748 60.2217 56.7563 58.9628Z" fill="white"/>
<path d="M56.7563 103.26C57.2718 103.464 57.7791 103.672 58.282 103.905C59.9713 104.653 61.6974 105.129 63.4924 105.559C63.8245 105.641 63.8245 105.641 64.1633 105.725C69.3672 106.925 74.5111 107.142 79.824 107.107C80.4984 107.103 81.1728 107.105 81.8472 107.107C86.3721 107.146 86.3721 107.146 90.8492 106.568C91.6126 106.414 92.3567 106.329 93.1313 106.251C96.3835 105.85 99.4009 104.843 102.425 103.61C102.822 103.462 103.214 103.36 103.625 103.26C103.659 104.393 103.684 105.526 103.701 106.659C103.708 107.045 103.717 107.43 103.729 107.815C103.746 108.37 103.754 108.924 103.76 109.479C103.767 109.65 103.774 109.821 103.782 109.998C103.782 110.701 103.779 111.175 103.33 111.737C100.711 114.04 96.3301 114.636 93.0077 115.163C92.8169 115.194 92.6261 115.224 92.4296 115.256C88.3918 115.854 84.3481 115.982 80.2713 115.968C79.6058 115.966 78.9403 115.967 78.2747 115.97C74.2812 115.981 70.3322 115.874 66.4093 115.064C66.1954 115.021 65.9815 114.978 65.7611 114.934C58.3899 113.422 58.3899 113.422 56.7563 111.368C56.6217 110.743 56.6409 110.135 56.6597 109.498C56.6611 109.32 56.6625 109.141 56.664 108.957C56.6695 108.389 56.6819 107.821 56.6945 107.253C56.6995 106.866 56.704 106.48 56.708 106.094C56.7189 105.149 56.736 104.205 56.7563 103.26Z" fill="white"/>
<path d="M78.5097 41.1647C78.5336 41.3028 78.5576 41.441 78.5823 41.5834C78.6154 41.7633 78.6486 41.9433 78.6827 42.1287C78.7148 42.3077 78.7469 42.4867 78.78 42.671C78.8716 43.1749 78.8716 43.1749 79.3007 43.5378C80.0892 43.627 80.555 43.6042 81.2659 43.2411C81.7179 42.6932 81.7218 42.5964 81.6993 41.9248C81.6866 41.5485 81.6866 41.5485 81.6738 41.1647C83.7462 41.137 85.7878 41.1938 87.8537 41.3872C88.0548 41.4058 88.0548 41.4058 88.2599 41.4249C100.32 42.5753 100.32 42.5753 103.199 45.924C103.625 46.5041 103.625 46.5041 103.773 46.9985C103.482 47.9701 102.649 48.443 101.803 48.9328C97.2788 51.1594 91.9625 51.7452 87.0132 52.2391C86.8261 52.2584 86.639 52.2778 86.4462 52.2977C84.5245 52.4726 82.6025 52.4736 80.6745 52.4735C80.0983 52.4739 79.5222 52.4775 78.9461 52.4812C76.405 52.4889 73.9142 52.3307 71.3904 52.0413C71.0608 52.0056 71.0608 52.0056 70.7245 51.9691C66.241 51.4639 60.276 50.7465 56.8058 47.5918C56.5586 47.0974 56.5586 47.0974 56.5957 46.5288C57.9572 44.1814 61.0596 43.542 63.5035 42.8852C68.3223 41.6632 73.5347 40.8962 78.5097 41.1647Z" fill="white"/>
<path d="M46.6381 115.564C47.1295 115.995 47.5963 116.439 48.0549 116.906C48.1683 117.019 48.2818 117.133 48.3986 117.25C50.2771 119.279 51.1361 121.715 51.1201 124.433C51.1191 124.652 51.1181 124.87 51.1171 125.096C51.0534 128.101 50.0803 130.69 47.9807 132.887C47.205 133.621 46.441 134.227 45.484 134.704C45.2508 134.82 45.2508 134.82 45.0128 134.939C42.2386 136.131 39.3114 135.512 36.585 134.506C34.887 133.778 33.8929 132.802 33.0864 131.142C32.7797 130.676 32.5565 130.542 32.0366 130.353C31.6817 130.316 31.6817 130.316 31.3197 130.279C31.0994 130.238 30.8792 130.197 30.6523 130.155C30.2724 129.586 30.1571 128.993 30.0343 128.326C30.0011 128.15 29.968 127.973 29.9338 127.792C29.9099 127.658 29.8859 127.524 29.8612 127.387C29.7307 127.387 29.6002 127.387 29.4657 127.387C29.4657 127.256 29.4657 127.126 29.4657 126.991C29.1394 126.861 28.8131 126.73 28.4769 126.596C28.4048 122.953 28.6342 119.905 31.1096 117.017C35.2076 112.787 41.8905 111.856 46.6381 115.564Z" fill="white"/>
<path d="M111.811 24.278C113.606 25.237 114.745 26.4665 115.552 28.3104C115.724 29.0594 115.714 29.7181 115.688 30.4857C115.994 30.3511 115.994 30.3511 116.306 30.2138C116.561 30.1065 116.817 29.9994 117.072 29.8924C117.354 29.7701 117.354 29.7701 117.641 29.6452C119.367 29.2309 120.889 29.9236 122.35 30.807C123.507 31.9958 124.072 33.0543 124.13 34.7375C124.054 36.4321 123.596 37.7064 122.35 38.878C121.046 39.9783 119.528 40.0649 117.905 40.0548C117.697 40.0558 117.489 40.0569 117.275 40.0579C116.592 40.0605 115.908 40.0588 115.224 40.0568C114.747 40.0572 114.27 40.0578 113.793 40.0585C112.794 40.0594 111.795 40.0581 110.797 40.0554C109.518 40.052 108.24 40.0539 106.962 40.0575C105.977 40.0596 104.992 40.059 104.007 40.0574C103.536 40.057 103.065 40.0575 102.594 40.0589C101.935 40.0604 101.275 40.0581 100.616 40.0548C100.423 40.056 100.229 40.0572 100.03 40.0584C98.5277 40.0446 97.1534 39.7927 96.0017 38.7297C94.8229 37.3607 94.3529 36.0459 94.4529 34.2438C94.6857 32.3978 95.6151 31.1645 97.0608 29.9998C98.2629 29.2682 99.6968 29.3299 101.054 29.4969C101.614 29.7034 101.959 29.9231 102.438 30.2879C102.422 30.1003 102.405 29.9127 102.389 29.7194C102.406 27.9839 103.321 26.6105 104.494 25.3981C106.624 23.5392 109.204 23.1856 111.811 24.278Z" fill="white"/>
<path d="M58.3384 24.7508C59.9104 25.7833 61.075 27.461 61.5025 29.2992C61.5272 29.8678 61.5272 29.8678 61.5025 30.288C61.6126 30.2765 61.7227 30.2651 61.8362 30.2533C63.114 30.1777 63.8869 30.4534 64.8643 31.2768C65.8787 32.2846 66.2775 32.9964 66.3104 34.4533C66.2925 36.0698 65.9324 37.3432 64.852 38.5691C62.8133 40.3223 60.2448 40.0949 57.7181 40.0832C57.3126 40.0837 56.9072 40.0845 56.5017 40.0855C55.6555 40.0866 54.8094 40.085 53.9631 40.0812C52.8812 40.0767 51.7995 40.0793 50.7176 40.0841C49.8817 40.0869 49.0459 40.086 48.21 40.084C47.8111 40.0834 47.4122 40.0841 47.0134 40.0859C46.4555 40.088 45.8978 40.0849 45.3399 40.0805C45.0956 40.0829 45.0956 40.0829 44.8464 40.0853C43.5204 40.0661 42.5051 39.6762 41.4881 38.8194C40.1882 37.2886 39.8324 36.0866 39.8929 34.067C40.0441 32.3477 40.8683 31.2546 42.1223 30.0903C43.5936 29.0796 45.1203 28.8871 46.8685 29.1015C47.5208 29.3587 48.0809 29.6798 48.6483 30.0903C48.6488 29.9705 48.6493 29.8506 48.6498 29.7272C48.7337 27.9093 49.4693 26.5988 50.7989 25.3688C51.0661 25.1567 51.3379 24.9503 51.6146 24.7508C51.7296 24.6649 51.8446 24.579 51.963 24.4905C53.8146 23.3378 56.5053 23.7576 58.3384 24.7508Z" fill="white"/>
<path d="M126.983 109.659C128.1 110.553 128.723 111.511 128.888 112.938C128.908 113.206 128.925 113.473 128.938 113.741C129.097 113.676 129.256 113.611 129.42 113.544C130.936 113.118 132.041 113.267 133.427 114.026C134.342 114.647 135.05 115.48 135.464 116.51C135.683 118.218 135.5 119.653 134.475 121.058C133.5 122.116 132.61 122.788 131.143 122.892C130.841 122.897 130.539 122.899 130.237 122.899C130.072 122.9 129.907 122.902 129.736 122.904C129.191 122.909 128.645 122.91 128.099 122.912C127.719 122.913 127.338 122.915 126.958 122.917C126.16 122.92 125.363 122.922 124.566 122.922C123.546 122.923 122.527 122.931 121.507 122.94C120.721 122.946 119.935 122.947 119.149 122.947C118.774 122.948 118.398 122.951 118.022 122.955C117.496 122.96 116.969 122.959 116.442 122.957C116.289 122.96 116.135 122.963 115.977 122.966C114.681 122.948 113.76 122.455 112.821 121.571C111.685 120.305 111.417 119.141 111.467 117.485C111.628 116.116 112.339 115.155 113.333 114.231C114.404 113.403 115.49 113.28 116.816 113.286C117.305 113.35 117.636 113.497 118.061 113.741C118.076 113.631 118.091 113.521 118.106 113.408C118.4 111.7 119.314 110.52 120.649 109.441C122.668 108.118 125.006 108.393 126.983 109.659Z" fill="white"/>
<path d="M31.4433 96.9322C32.7492 97.7609 33.5949 99.1534 33.9485 100.659C33.981 100.87 33.981 100.87 34.0142 101.085C34.1692 101.052 34.3242 101.02 34.4839 100.986C36.1409 100.758 37.2679 100.742 38.7071 101.694C39.5867 102.439 40.1771 103.358 40.5402 104.447C40.6569 106.14 40.2659 107.675 39.1559 108.995C37.9031 109.931 36.9123 110.212 35.3527 110.214C35.1867 110.215 35.0207 110.216 34.8497 110.217C34.3 110.22 33.7504 110.221 33.2008 110.222C32.8187 110.223 32.4367 110.224 32.0546 110.226C31.2532 110.228 30.4517 110.229 29.6503 110.229C28.6242 110.231 27.5982 110.235 26.5721 110.241C25.7827 110.245 24.9933 110.246 24.2039 110.246C23.8257 110.247 23.4475 110.248 23.0693 110.251C22.5396 110.254 22.01 110.254 21.4803 110.252C21.3246 110.254 21.169 110.256 21.0086 110.258C19.5965 110.247 18.5649 109.707 17.5239 108.767C16.4937 107.588 16.2773 106.132 16.3396 104.61C16.5373 103.122 17.2889 102.297 18.4107 101.352C19.0069 100.929 19.5077 100.863 20.2168 100.868C20.4548 100.869 20.4548 100.869 20.6976 100.87C20.8625 100.872 21.0273 100.873 21.1971 100.875C21.3642 100.876 21.5313 100.877 21.7034 100.878C22.1156 100.88 22.5277 100.884 22.9398 100.887C22.9938 100.643 23.0479 100.399 23.1036 100.148C23.4741 98.6719 24.4808 97.5938 25.7084 96.7344C27.5864 95.7063 29.6038 95.9524 31.4433 96.9322Z" fill="white"/>
<path d="M31.8389 63.9067C32.3333 63.8449 32.3333 63.8449 32.8277 63.9067C33.2232 64.3022 33.2232 64.3022 33.2681 65.0188C33.268 65.3263 33.2658 65.6339 33.2618 65.9414C33.2612 66.1033 33.2607 66.2651 33.2601 66.4319C33.2579 66.9498 33.2529 67.4676 33.2479 67.9854C33.2459 68.3362 33.2441 68.6869 33.2425 69.0376C33.2381 69.8981 33.2313 70.7587 33.2232 71.6192C33.4427 71.6489 33.6622 71.6786 33.8883 71.7091C35.4633 71.9453 36.5827 72.7678 37.5738 73.9923C38.3479 75.0967 38.5842 75.7949 38.5626 77.1564C38.8182 77.1544 39.0737 77.1523 39.337 77.1502C40.2826 77.143 41.2283 77.1385 42.174 77.1347C42.5838 77.1327 42.9935 77.13 43.4032 77.1266C43.9913 77.1218 44.5793 77.1196 45.1674 77.1178C45.3514 77.1158 45.5353 77.1137 45.7249 77.1116C45.8951 77.1116 46.0653 77.1116 46.2407 77.1115C46.3909 77.1106 46.5411 77.1098 46.6958 77.1089C47.0662 77.1564 47.0662 77.1564 47.4617 77.5519C47.4864 78.1699 47.4864 78.1699 47.4617 78.7385C47.0052 78.9667 46.7482 78.9602 46.2407 78.9587C45.9854 78.9587 45.9854 78.9587 45.7249 78.9586C45.5409 78.9576 45.3569 78.9566 45.1674 78.9556C44.9792 78.9553 44.791 78.955 44.5971 78.9547C43.9947 78.9536 43.3922 78.9511 42.7897 78.9486C42.3818 78.9476 41.9739 78.9467 41.5661 78.9459C40.5649 78.9437 39.5638 78.9403 38.5626 78.9362C38.5347 79.1225 38.5069 79.3087 38.4781 79.5005C38.2343 80.8403 37.2487 81.9936 36.2034 82.835C35.3543 83.3621 34.2372 83.8802 33.2232 83.8802C33.2253 84.0818 33.2273 84.2834 33.2295 84.4911C33.2366 85.2378 33.2412 85.9844 33.2449 86.7311C33.2469 87.0546 33.2496 87.378 33.253 87.7014C33.2578 88.1658 33.2601 88.6301 33.2618 89.0945C33.2638 89.2395 33.2659 89.3845 33.268 89.534C33.2681 89.8909 33.2473 90.2478 33.2232 90.6039C32.8277 90.9994 32.8277 90.9994 32.3333 91.0489C31.8389 90.9994 31.8389 90.9994 31.4434 90.6039C31.4088 90.0935 31.3976 89.6046 31.4047 89.0945C31.4053 88.9458 31.4059 88.7971 31.4064 88.6439C31.4087 88.1684 31.4136 87.6929 31.4186 87.2173C31.4206 86.8952 31.4224 86.5731 31.4241 86.2509C31.4284 85.4607 31.4353 84.6704 31.4434 83.8802C31.258 83.8523 31.0727 83.8244 30.8818 83.7957C29.4683 83.5395 28.2187 82.6132 27.3399 81.4947C26.8598 80.7505 26.3017 79.841 26.3017 78.9362C23.365 78.9362 20.4283 78.9362 17.4026 78.9362C17.4026 79.7194 17.4026 80.5025 17.4026 81.3093C17.0071 81.7048 17.0071 81.7048 16.5127 81.7543C16.0183 81.7048 16.0183 81.7048 15.6228 81.3093C15.5842 80.7516 15.5842 80.7516 15.5981 80.0981C15.6016 79.8814 15.6052 79.6647 15.6089 79.4415C15.6135 79.2747 15.6181 79.108 15.6228 78.9362C15.4704 78.9408 15.3179 78.9454 15.1609 78.9501C14.8634 78.9555 14.8634 78.9555 14.5599 78.961C14.3625 78.9656 14.1652 78.9701 13.9619 78.9749C13.4475 78.9362 13.4475 78.9362 13.052 78.5407C12.9778 78.0587 12.9778 78.0587 13.052 77.5519C13.3362 77.1935 13.3362 77.1935 13.843 76.9587C14.4398 76.9114 15.0256 76.9242 15.6228 76.9587C15.6205 76.8348 15.6182 76.7109 15.6158 76.5832C15.6141 76.4216 15.6123 76.26 15.6104 76.0935C15.6081 75.9329 15.6059 75.7723 15.6035 75.6068C15.6228 75.1789 15.6228 75.1789 15.8206 74.7833C16.3891 74.7586 16.3891 74.7586 17.0071 74.7833C17.4026 75.1789 17.4026 75.1789 17.4026 77.1564C20.3393 77.1564 23.276 77.1564 26.3017 77.1564C26.3669 76.5691 26.4322 75.9818 26.4994 75.3766C27.302 73.7193 28.7324 72.2931 30.4546 71.6192C30.7841 71.6106 31.1139 71.6092 31.4434 71.6192C31.4413 71.4067 31.4392 71.1941 31.4371 70.9751C31.4299 70.1868 31.4254 69.3985 31.4216 68.6101C31.4197 68.2689 31.417 67.9276 31.4135 67.5864C31.4087 67.096 31.4065 66.6057 31.4047 66.1152C31.4027 65.9626 31.4007 65.8099 31.3986 65.6526C31.3984 64.8969 31.4093 64.5511 31.8389 63.9067Z" fill="white"/>
<path d="M127.553 63.9067C128.32 64.2775 128.32 64.2775 128.542 64.4999C128.56 65.0272 128.565 65.5493 128.561 66.0766C128.561 66.2343 128.561 66.3921 128.561 66.5546C128.559 67.0604 128.557 67.5662 128.554 68.0719C128.553 68.414 128.553 68.7561 128.552 69.0982C128.55 69.9385 128.546 70.7789 128.542 71.6192C128.761 71.6477 128.981 71.6762 129.207 71.7055C130.167 71.8542 130.733 72.2504 131.508 72.8057C131.814 73.0138 131.814 73.0138 132.126 73.226C132.953 73.941 133.488 74.9642 133.882 75.9699C133.882 76.3614 133.882 76.753 133.882 77.1564C136.753 77.1564 139.624 77.1564 142.583 77.1564C142.583 76.5038 142.583 75.8512 142.583 75.1788C142.779 74.9831 142.974 74.7873 143.176 74.5856C143.662 74.6159 143.904 74.7341 144.286 75.0328C144.644 75.4813 144.622 75.7377 144.598 76.3036C144.59 76.5433 144.59 76.5433 144.581 76.7879C144.574 76.9095 144.568 77.0311 144.56 77.1564C144.953 77.1435 145.346 77.1307 145.739 77.1178C146.143 77.1564 146.143 77.1564 146.736 77.5519C146.82 78.0989 146.807 78.4123 146.538 78.8991C145.897 79.2796 145.296 79.1701 144.56 79.134C144.567 79.2698 144.574 79.4057 144.581 79.5457C144.587 79.7239 144.592 79.9021 144.598 80.0857C144.604 80.2623 144.611 80.439 144.618 80.621C144.56 81.1115 144.56 81.1115 144.293 81.4746C143.967 81.7048 143.967 81.7048 143.46 81.6677C142.978 81.5071 142.978 81.5071 142.583 81.1115C142.583 80.3937 142.583 79.6758 142.583 78.9362C139.711 78.9362 136.84 78.9362 133.882 78.9362C133.784 79.3278 133.784 79.3278 133.684 79.7272C132.906 81.6762 131.792 82.7665 129.926 83.6824C129.532 83.7566 129.137 83.8239 128.74 83.8801C128.736 84.0818 128.732 84.2834 128.728 84.4911C128.713 85.2378 128.695 85.9845 128.677 86.7311C128.67 87.0545 128.663 87.3779 128.656 87.7014C128.647 88.1658 128.636 88.6301 128.624 89.0944C128.622 89.2395 128.619 89.3845 128.617 89.5339C128.587 90.5589 128.587 90.5589 128.147 90.9994C127.495 90.9342 127.232 90.8763 126.762 90.4061C126.728 89.9099 126.716 89.4359 126.724 88.9399C126.724 88.7957 126.725 88.6514 126.725 88.5027C126.728 88.0412 126.733 87.5799 126.738 87.1184C126.74 86.8058 126.741 86.4932 126.743 86.1806C126.747 85.4138 126.754 84.647 126.762 83.8801C126.645 83.8588 126.527 83.8374 126.406 83.8154C124.519 83.4408 123.341 82.4558 122.244 80.8852C121.83 80.2179 121.621 79.7223 121.621 78.9362C121.512 78.9371 121.404 78.938 121.293 78.9389C120.17 78.9476 119.048 78.9536 117.925 78.9579C117.505 78.9599 117.086 78.9626 116.667 78.9661C116.065 78.9708 115.463 78.9731 114.861 78.9748C114.579 78.9779 114.579 78.9779 114.291 78.981C114.117 78.9811 113.942 78.9811 113.763 78.9811C113.609 78.982 113.456 78.9829 113.297 78.9838C112.919 78.9362 112.919 78.9362 112.524 78.5407C112.589 77.8887 112.647 77.6265 113.117 77.1564C113.48 77.1088 113.48 77.1088 113.924 77.1115C114.174 77.1115 114.174 77.1115 114.428 77.1116C114.698 77.1147 114.698 77.1147 114.973 77.1178C115.156 77.1183 115.34 77.1189 115.53 77.1195C116.118 77.1217 116.706 77.1267 117.295 77.1317C117.693 77.1337 118.091 77.1355 118.49 77.1371C119.467 77.1415 120.445 77.1483 121.423 77.1564C121.453 76.9366 121.483 76.7169 121.514 76.4904C121.778 74.7181 122.825 73.5233 124.191 72.4102C125.133 71.8412 125.863 71.603 126.96 71.6192C126.957 71.4066 126.954 71.1941 126.951 70.9751C126.94 70.1868 126.933 69.3985 126.927 68.6101C126.925 68.2689 126.92 67.9276 126.915 67.5864C126.908 67.096 126.905 66.6057 126.902 66.1152C126.899 65.9626 126.896 65.8099 126.893 65.6526C126.893 64.5894 126.893 64.5894 127.26 64.1024C127.357 64.0378 127.454 63.9732 127.553 63.9067Z" fill="white"/>
<path d="M83.6019 135.853C84.279 136.338 84.8733 136.851 85.4312 137.472C85.5658 137.615 85.7004 137.758 85.8391 137.905C87.03 139.634 87.2284 141.332 87.0133 143.405C86.5679 145.407 85.3942 147.228 83.6514 148.349C83.2593 148.491 82.8641 148.625 82.4648 148.745C82.4432 148.956 82.4215 149.167 82.3992 149.384C82.2066 151.209 81.9688 153.019 81.6809 154.831C81.4915 156.058 81.3941 157.262 81.3586 158.503C81.2783 159.028 81.2783 159.028 81.0056 159.392C80.685 159.621 80.685 159.621 80.203 159.72C79.6962 159.621 79.6962 159.621 79.2814 159.237C78.7709 158.417 78.7579 157.727 78.7075 156.778C78.5772 154.973 78.3173 153.22 77.9798 151.442C77.8094 150.529 77.6719 149.679 77.7187 148.745C77.5435 148.696 77.3684 148.647 77.188 148.597C75.6367 148.011 74.4943 146.683 73.7512 145.232C72.9982 143.434 72.8138 141.442 73.3734 139.557C74.3118 137.534 75.8623 135.979 77.9164 135.099C79.7701 134.513 81.9834 134.814 83.6019 135.853Z" fill="white"/>
<path d="M56.7563 51.2502C56.86 51.3079 56.9638 51.3655 57.0707 51.4248C59.8779 52.9102 62.7797 53.6351 65.8983 54.1404C66.2486 54.2166 66.2486 54.2166 66.4464 54.4144C66.9277 54.4861 67.4059 54.5465 67.8894 54.5998C68.0366 54.6166 68.1839 54.6334 68.3356 54.6507C68.6494 54.6863 68.9633 54.7215 69.2773 54.7564C69.7487 54.8087 70.2199 54.8625 70.6912 54.9165C73.7542 55.2644 76.7741 55.444 79.8568 55.4402C80.1263 55.44 80.1263 55.44 80.4013 55.4399C83.2153 55.4348 85.998 55.3616 88.7929 55.0076C89.0041 54.9811 89.2153 54.9545 89.4328 54.9272C93.4176 54.4106 97.4409 53.8287 101.182 52.3101C101.986 51.984 102.799 51.7134 103.625 51.448C103.893 54.4218 103.893 54.4218 103.312 55.2626C102.836 55.5835 102.381 55.7913 101.845 55.9964C101.65 56.0839 101.455 56.1713 101.254 56.2614C100.665 56.5196 100.073 56.7565 99.4718 56.9852C99.3545 57.0324 99.2371 57.0796 99.1162 57.1282C96.0901 58.3192 92.7581 58.7494 89.5442 59.0995C89.0284 59.1564 88.5138 59.2199 87.9988 59.2841C80.2459 60.1741 71.8633 59.8306 64.271 57.974C64.0102 57.9149 63.7494 57.856 63.4885 57.7971C61.6025 57.3406 59.8714 56.6641 58.1406 55.7987C57.9733 55.7212 57.8061 55.6437 57.6338 55.5638C57.1882 55.2907 57.0167 55.063 56.7563 54.6121C56.686 54.2147 56.686 54.2147 56.6767 53.7902C56.6731 53.6381 56.6696 53.486 56.6659 53.3293C56.6716 52.6335 56.7076 51.9443 56.7563 51.2502Z" fill="white"/>
<path d="M140.099 94.2786C140.55 94.6192 140.975 94.9741 141.396 95.35C141.666 95.5886 141.666 95.5886 141.94 95.8321C143.691 97.8257 143.93 99.6573 143.807 102.228C143.648 104.079 142.494 105.578 141.179 106.815C139.427 108.27 137.853 108.725 135.58 108.667C134.663 108.58 133.936 108.363 133.091 108.006C133.091 107.876 133.091 107.745 133.091 107.611C132.945 107.593 132.8 107.575 132.65 107.556C131.5 107.256 130.711 106.269 130.106 105.281C128.962 103.183 128.565 101.247 129.148 98.8849C129.837 96.9044 131.1 95.1151 132.965 94.1086C135.206 93.0766 137.958 92.8909 140.099 94.2786Z" fill="white"/>
<path d="M132.102 126.794C131.42 127.939 130.526 128.816 129.58 129.748C129.427 129.9 129.274 130.053 129.117 130.211C128.166 131.154 127.188 132.054 126.169 132.924C125.904 133.153 125.904 133.153 125.635 133.387C123.122 135.515 120.489 137.554 117.666 139.252C117.411 139.412 117.158 139.573 116.904 139.733C112.575 142.457 108.024 144.603 103.229 146.371C103.103 146.419 102.976 146.467 102.846 146.515C101.003 147.206 99.1741 147.754 97.2525 148.178C96.6654 148.312 96.111 148.467 95.5414 148.658C93.4057 149.326 91.0237 149.645 88.793 149.536C89.0648 148.5 89.3957 147.53 90.1773 146.767C91.3258 146.19 92.6675 146.072 93.9245 145.877C94.8952 145.718 95.8474 145.495 96.8021 145.259C96.9955 145.211 97.1889 145.164 97.3882 145.114C101.447 144.066 105.388 142.444 109.162 140.637C109.419 140.517 109.675 140.398 109.932 140.279C114.691 138.026 119.117 135.043 123.203 131.737C123.493 131.505 123.493 131.505 123.789 131.268C124.681 130.547 125.552 129.81 126.404 129.043C126.567 128.898 126.731 128.753 126.899 128.603C127.355 128.193 127.355 128.193 127.719 127.758C128.949 126.421 130.416 126.665 132.102 126.794Z" fill="white"/>
<path d="M123.994 126.793C123.241 127.729 122.467 128.507 121.509 129.228C121.389 129.321 121.269 129.413 121.145 129.508C120.897 129.698 120.649 129.888 120.4 130.077C120.061 130.336 119.726 130.598 119.391 130.863C115.227 134.145 110.581 136.874 105.705 138.95C105.179 139.179 104.674 139.416 104.169 139.685C103.178 140.194 102.114 140.502 101.054 140.834C100.868 140.895 100.682 140.956 100.49 141.018C94.5048 142.929 94.5048 142.929 91.5615 143.01C91.5615 142.096 91.5615 141.182 91.5615 140.241C92.1794 140.084 92.7974 139.927 93.4155 139.771C93.5876 139.727 93.7596 139.684 93.9369 139.638C94.9754 139.377 96.0149 139.148 97.066 138.943C98.2158 138.711 99.3182 138.335 100.403 137.894C101.066 137.626 101.73 137.362 102.396 137.105C104.382 136.331 106.297 135.487 108.187 134.503C108.571 134.307 108.959 134.119 109.35 133.934C111.238 133.03 112.978 131.971 114.715 130.804C115.054 130.578 115.395 130.357 115.737 130.137C116.572 129.596 117.372 129.072 118.097 128.388C119.988 126.649 121.473 126.527 123.994 126.793Z" fill="white"/>
<path d="M48.7224 139.326C53.2061 141.732 57.6849 143.72 62.5985 145.049C63.0862 145.185 63.5679 145.336 64.0509 145.488C64.768 145.706 65.4776 145.865 66.2154 145.997C66.4098 146.032 66.6042 146.068 66.8045 146.105C67.2033 146.176 67.603 146.243 68.0034 146.305C69.4305 146.578 69.4305 146.578 69.9559 147.13C70.2074 147.528 70.4097 147.918 70.5993 148.349C70.7176 148.577 70.8359 148.806 70.9577 149.041C71.0352 149.204 71.1127 149.367 71.1926 149.536C65.8884 149.983 59.7762 147.609 54.9765 145.58C54.8118 145.511 54.6471 145.441 54.4774 145.37C51.3623 144.039 48.3484 142.51 45.4471 140.76C45.3106 140.68 45.1742 140.6 45.0336 140.518C44.6599 140.286 44.6599 140.286 44.0999 139.845C44.0999 139.584 44.0999 139.323 44.0999 139.054C44.4074 138.915 44.7168 138.78 45.0268 138.647C45.1989 138.571 45.371 138.495 45.5483 138.417C46.7551 138.067 47.6902 138.759 48.7224 139.326Z" fill="white"/>
<path d="M60.1181 14.6652C60.1235 15.0895 60.1273 15.5139 60.1305 15.9382C60.1328 16.1745 60.1351 16.4109 60.1375 16.6543C60.1181 17.236 60.1181 17.236 59.9204 17.4338C59.5098 17.5269 59.0974 17.6119 58.6844 17.6933C56.5893 18.1319 54.5646 18.7475 52.6034 19.6091C52.4734 19.6653 52.3435 19.7216 52.2096 19.7795C46.8991 22.0434 46.8991 22.0434 42.9133 25.9373C41.6081 25.9373 40.3029 25.9373 38.9581 25.9373C41.4341 20.9853 48.8784 17.8548 53.7878 16.1889C54.1857 16.0494 54.5775 15.8983 54.9703 15.7451C55.794 15.4337 56.6282 15.2205 57.4855 15.0236C57.6304 14.9885 57.7753 14.9535 57.9247 14.9174C58.6703 14.7432 59.3466 14.621 60.1181 14.6652Z" fill="white"/>
<path d="M100.065 107.611C100.065 109.047 100.065 110.482 100.065 111.962C95.7107 113.071 91.3121 113.835 86.8154 113.939C86.8154 112.569 86.8154 111.198 86.8154 109.786C87.3782 109.71 87.9411 109.633 88.521 109.555C89.0775 109.478 89.6338 109.4 90.1902 109.323C90.5713 109.27 90.9525 109.218 91.3338 109.166C93.8432 108.827 96.2695 108.395 98.704 107.687C99.0763 107.611 99.0763 107.611 100.065 107.611Z" fill="#2F1F40"/>
<path d="M82.131 138.35C83.0717 138.92 83.774 139.639 84.2445 140.636C84.5035 141.996 84.468 143.225 83.7254 144.419C83.1917 145.095 82.6379 145.568 81.8714 145.976C81.7205 146.057 81.5696 146.139 81.4141 146.223C80.4815 146.483 79.5914 146.57 78.678 146.198C77.551 145.542 76.7135 144.653 76.0623 143.529C75.7135 142.064 75.9199 140.999 76.6456 139.681C77.8121 137.907 80.2446 137.543 82.131 138.35Z" fill="#2F1F40"/>
<path d="M100.065 64.6978C100.065 66.003 100.065 67.3081 100.065 68.6529C97.2013 69.3497 94.3606 69.937 91.4379 70.3091C91.1816 70.3422 90.9253 70.3753 90.6612 70.4093C89.3516 70.5685 88.1479 70.6305 86.8154 70.6305C86.8154 69.3253 86.8154 68.0201 86.8154 66.6753C87.1016 66.6651 87.3879 66.6549 87.6829 66.6444C90.833 66.4871 93.7973 65.9456 96.8629 65.2404C97.017 65.2051 97.1711 65.1697 97.3298 65.1333C97.6202 65.0662 97.9103 64.9981 98.2002 64.9288C98.8488 64.7772 99.3934 64.6978 100.065 64.6978Z" fill="#2F1F40"/>
<path d="M52.2079 134.308C53.0974 134.642 53.9341 135.063 54.7788 135.495C54.7788 135.625 54.7788 135.756 54.7788 135.89C54.8873 135.925 54.9958 135.959 55.1077 135.994C56.0383 136.295 56.9352 136.633 57.8296 137.028C61.3066 138.562 64.9295 139.57 68.6217 140.439C68.6217 141.287 68.6217 142.135 68.6217 143.01C67.0138 142.907 65.5207 142.696 63.9621 142.293C63.757 142.24 63.5519 142.188 63.3405 142.134C61.4229 141.629 59.5787 140.993 57.7451 140.241C57.5959 140.18 57.4466 140.12 57.2928 140.057C55.5662 139.347 53.9047 138.545 52.2821 137.621C52.1355 137.539 51.9888 137.458 51.8378 137.374C51.4339 137.136 51.4339 137.136 50.8236 136.681C50.8236 135.775 50.9261 135.682 51.5158 135.05C51.6442 134.91 51.7727 134.77 51.9051 134.626C52.055 134.469 52.055 134.469 52.2079 134.308Z" fill="white"/>
<path d="M100.065 121.454C100.065 122.629 100.065 123.803 100.065 125.014C99.154 125.469 98.5338 125.727 97.5746 125.947C97.1985 126.033 97.1985 126.033 96.8149 126.121C96.547 126.181 96.2791 126.24 96.0111 126.299C95.8754 126.329 95.7397 126.36 95.5999 126.391C92.6946 127.038 89.7997 127.585 86.8154 127.585C86.8154 126.279 86.8154 124.974 86.8154 123.629C87.1498 123.593 87.4843 123.557 87.8289 123.52C91.2501 123.145 94.5503 122.61 97.8892 121.775C98.0577 121.734 98.2261 121.692 98.3996 121.649C98.5493 121.612 98.699 121.574 98.8533 121.535C99.2741 121.454 99.2741 121.454 100.065 121.454Z" fill="#2F1F40"/>
<path d="M100.065 93.768C100.065 95.0079 100.065 96.2479 100.065 97.5254C95.6584 98.6419 91.3822 99.6552 86.8154 99.503C86.8154 98.3283 86.8154 97.1536 86.8154 95.9433C87.3668 95.8692 87.9182 95.795 88.4863 95.7185C93.5744 95.0479 93.5744 95.0479 98.5804 93.9426C99.2741 93.768 99.2741 93.768 100.065 93.768Z" fill="#2F1F40"/>
<path d="M100.065 79.134C100.065 80.374 100.065 81.6139 100.065 82.8914C95.7424 84.085 91.3222 84.9845 86.8154 84.869C86.8154 83.6291 86.8154 82.3891 86.8154 81.1116C87.3823 81.0586 87.9493 81.0056 88.5334 80.9509C91.7365 80.6339 94.8743 80.1739 98.0136 79.4555C98.1955 79.4139 98.3775 79.3723 98.5649 79.3295C98.7259 79.2918 98.887 79.2542 99.0528 79.2154C99.4718 79.134 99.4718 79.134 100.065 79.134Z" fill="#2F1F40"/>
<path d="M80.6849 23.1688C81.0088 23.3799 81.0088 23.3799 81.2782 23.7621C81.3299 24.2599 81.3473 24.7076 81.3361 25.2043C81.3353 25.3439 81.3344 25.4836 81.3336 25.6274C81.3302 26.0728 81.3228 26.518 81.3152 26.9633C81.3123 27.2654 81.3096 27.5676 81.3071 27.8698C81.3006 28.61 81.2904 29.3501 81.2782 30.0903C81.4785 30.08 81.4785 30.08 81.6829 30.0695C81.8594 30.0641 82.0358 30.0587 82.2175 30.0532C82.4791 30.0429 82.4791 30.0429 82.7459 30.0324C83.3547 30.1016 83.6133 30.2561 84.0468 30.6836C84.1404 31.3257 84.1745 31.6938 83.7872 32.2286C83.1806 32.6554 82.6498 32.6839 81.9332 32.6735C81.6935 32.6708 81.6935 32.6708 81.4489 32.6681C81.3273 32.6658 81.2057 32.6635 81.0804 32.6612C81.0835 32.7789 81.0866 32.8966 81.0898 33.0179C81.1021 33.5499 81.1099 34.0819 81.1175 34.614C81.1225 34.7993 81.1274 34.9847 81.1326 35.1756C81.1345 35.3528 81.1364 35.5299 81.1383 35.7125C81.1415 35.8761 81.1446 36.0397 81.1478 36.2083C81.1255 36.343 81.1033 36.4776 81.0804 36.6163C80.4871 37.0118 80.4871 37.0118 79.9804 36.9747C79.4984 36.8141 79.4984 36.8141 79.1028 36.2208C79.0579 35.8267 79.0579 35.8267 79.0642 35.3842C79.0655 35.2255 79.0668 35.0668 79.0681 34.9033C79.0714 34.7385 79.0747 34.5737 79.0781 34.4039C79.0799 34.2368 79.0817 34.0697 79.0835 33.8975C79.0882 33.4854 79.0953 33.0733 79.1028 32.6612C78.9407 32.6703 78.7786 32.6795 78.6115 32.689C78.2919 32.6997 78.2919 32.6997 77.9657 32.7106C77.7547 32.7198 77.5436 32.7289 77.3261 32.7384C76.7298 32.6612 76.7298 32.6612 76.2632 32.3004C75.9387 31.8701 75.9387 31.8701 75.8398 31.2645C75.9387 30.6836 75.9387 30.6836 76.2632 30.353C76.8649 30.0142 77.2798 30.0309 77.9657 30.0532C78.2854 30.0613 78.2854 30.0613 78.6115 30.0695C78.7737 30.0763 78.9358 30.0832 79.1028 30.0903C79.0997 29.9017 79.0966 29.7131 79.0934 29.5188C79.0827 28.819 79.0759 28.1191 79.0702 27.4192C79.0673 27.1163 79.0632 26.8134 79.0581 26.5106C79.0509 26.0751 79.0475 25.6398 79.0449 25.2043C79.0418 25.069 79.0388 24.9336 79.0356 24.7941C79.0354 24.226 79.0393 23.8522 79.3722 23.3799C79.8383 23.0761 80.1405 23.0871 80.6849 23.1688Z" fill="white"/>
<path d="M60.5137 107.413C61.6485 107.575 62.7122 107.804 63.8137 108.096C64.9546 108.391 66.0662 108.585 67.2374 108.798C67.2374 110.364 67.2374 111.93 67.2374 113.544C65.0126 113.321 65.0126 113.321 64.0285 113.067C63.8407 113.019 63.6529 112.972 63.4595 112.923C63.2297 112.862 62.9999 112.802 62.7632 112.74C62.0208 112.549 61.2785 112.357 60.5137 112.159C60.5137 110.593 60.5137 109.027 60.5137 107.413Z" fill="#2F1F40"/>
<path d="M60.5137 64.5C61.3064 64.6133 62.0703 64.7225 62.8497 64.8832C63.0174 64.9173 63.1852 64.9515 63.358 64.9867C63.703 65.0577 64.0481 65.1288 64.3931 65.1999C64.5608 65.234 64.7286 65.2682 64.9014 65.3034C65.1259 65.3497 65.1259 65.3497 65.3549 65.3969C65.9792 65.5121 66.6089 65.5968 67.2374 65.6865C67.2374 67.1875 67.2374 68.6885 67.2374 70.235C65.4733 70.235 65.4733 70.235 64.6171 69.963C63.6213 69.6682 62.6339 69.4851 61.6075 69.3311C61.1069 69.2462 61.1069 69.2462 60.5137 69.0484C60.5137 67.5474 60.5137 66.0465 60.5137 64.5Z" fill="#2F1F40"/>
<path d="M60.5137 121.454C62.2917 121.676 62.2917 121.676 62.8729 121.83C63.066 121.88 63.066 121.88 63.263 121.931C63.3917 121.965 63.5204 122 63.6531 122.035C64.843 122.349 66.0267 122.596 67.2374 122.838C67.2374 124.339 67.2374 125.84 67.2374 127.387C66.4502 127.236 65.6634 127.083 64.8767 126.929C64.6558 126.887 64.4349 126.845 64.2073 126.802C63.99 126.759 63.7727 126.716 63.5488 126.672C63.351 126.634 63.1532 126.596 62.9494 126.556C62.1234 126.357 61.3197 126.073 60.5137 125.805C60.5137 124.369 60.5137 122.933 60.5137 121.454Z" fill="#2F1F40"/>
<path d="M60.5137 78.9362C60.999 79.0545 61.4844 79.1728 61.9845 79.2947C63.7251 79.7112 65.4725 80.0239 67.2374 80.3205C67.2374 81.691 67.2374 83.0614 67.2374 84.4734C66.0689 84.3436 64.9203 84.204 63.7643 84.0037C63.6252 83.9813 63.4862 83.9589 63.3429 83.9358C63.2044 83.9118 63.0658 83.8878 62.9231 83.8632C62.8018 83.8427 62.6806 83.8222 62.5557 83.8011C61.8577 83.621 61.1886 83.3422 60.5137 83.0891C60.5137 81.7187 60.5137 80.3482 60.5137 78.9362Z" fill="#2F1F40"/>
<path d="M60.5137 93.768C61.6275 93.8918 62.6054 94.0142 63.6778 94.2624C64.7355 94.4982 65.765 94.6491 66.8419 94.7568C66.9724 94.8221 67.1029 94.8873 67.2374 94.9545C67.2374 96.325 67.2374 97.6955 67.2374 99.1074C65.1191 99.0126 62.4362 98.6844 60.5137 97.7231C60.5137 96.418 60.5137 95.1128 60.5137 93.768Z" fill="#2F1F40"/>
<path d="M77.1253 124.025C79.4747 124.025 81.824 124.025 84.2446 124.025C84.2446 125.2 84.2446 126.374 84.2446 127.585C81.8952 127.585 79.5459 127.585 77.1253 127.585C77.1253 126.41 77.1253 125.235 77.1253 124.025Z" fill="#2F1F40"/>
<path d="M77.1253 109.984C79.4094 109.984 81.6935 109.984 84.0468 109.984C84.0468 111.159 84.0468 112.333 84.0468 113.544C81.7627 113.544 79.4786 113.544 77.1253 113.544C77.1253 112.369 77.1253 111.194 77.1253 109.984Z" fill="#2F1F40"/>
<path d="M77.1253 95.9434C79.4747 95.9434 81.824 95.9434 84.2446 95.9434C84.2446 97.0528 84.2446 98.1622 84.2446 99.3052C81.8952 99.3052 79.5459 99.3052 77.1253 99.3052C77.1253 98.1958 77.1253 97.0864 77.1253 95.9434Z" fill="#2F1F40"/>
<path d="M77.1253 81.3093C79.4094 81.3093 81.6935 81.3093 84.0468 81.3093C84.0468 82.4187 84.0468 83.5282 84.0468 84.6712C81.7627 84.6712 79.4786 84.6712 77.1253 84.6712C77.1253 83.5618 77.1253 82.4524 77.1253 81.3093Z" fill="#2F1F40"/>
<path d="M77.1253 66.873C79.4094 66.873 81.6935 66.873 84.0468 66.873C84.0468 67.9825 84.0468 69.0919 84.0468 70.2349C81.7627 70.2349 79.4786 70.2349 77.1253 70.2349C77.1253 69.1255 77.1253 68.0161 77.1253 66.873Z" fill="#2F1F40"/>
<path d="M66.1622 13.7135C66.6442 13.8742 66.6442 13.8742 67.0397 14.2697C67.0784 14.7841 67.0784 14.7841 67.0645 15.3821C67.0609 15.5804 67.0573 15.7787 67.0536 15.983C67.0491 16.1355 67.0445 16.2879 67.0397 16.445C67.2885 16.4328 67.5373 16.4205 67.7937 16.4079C68.3226 16.4098 68.5653 16.4125 69.0297 16.6798C69.2151 17.0383 69.2151 17.0383 69.178 17.545C69.0173 18.0271 69.0173 18.0271 68.6218 18.4226C68.0901 18.4759 67.5754 18.4398 67.0397 18.4226C67.0501 18.6692 67.0501 18.6692 67.0606 18.9208C67.0659 19.1357 67.0713 19.3506 67.0768 19.572C67.0871 19.8921 67.0871 19.8921 67.0977 20.2186C67.0397 20.7957 67.0397 20.7957 66.7725 21.1703C66.4465 21.3889 66.4465 21.3889 65.9397 21.3642C65.4577 21.1912 65.4577 21.1912 65.0622 20.5979C65.0235 20.0641 65.0235 20.0641 65.0374 19.4732C65.041 19.2766 65.0446 19.0801 65.0483 18.8776C65.0528 18.7274 65.0574 18.5773 65.0622 18.4226C64.8134 18.4348 64.5646 18.447 64.3082 18.4596C63.7793 18.4578 63.5366 18.4551 63.0722 18.1877C62.8868 17.8293 62.8868 17.8293 62.9239 17.3225C63.0846 16.8405 63.0846 16.8405 63.4801 16.445C64.0118 16.3916 64.5265 16.4277 65.0622 16.445C65.0553 16.2948 65.0484 16.1447 65.0413 15.99C65.0333 15.6952 65.0333 15.6952 65.0251 15.3944C65.0148 15.1019 65.0148 15.1019 65.0042 14.8035C65.0622 14.2697 65.0622 14.2697 65.3294 13.9004C65.6554 13.6764 65.6554 13.6764 66.1622 13.7135Z" fill="white"/>
<path d="M115.787 89.9612C116.281 90.0106 116.281 90.0106 116.677 90.4061C116.715 90.9206 116.715 90.9206 116.701 91.5185C116.698 91.7168 116.694 91.9152 116.691 92.1195C116.686 92.272 116.681 92.4244 116.677 92.5815C116.995 92.5631 116.995 92.5631 117.319 92.5444C118.082 92.5825 118.316 92.6599 118.852 93.1747C118.679 94.3366 118.679 94.3366 118.456 94.559C117.932 94.6489 117.404 94.6979 116.874 94.7568C116.865 94.9092 116.855 95.0617 116.845 95.2187C116.83 95.4171 116.816 95.6154 116.8 95.8197C116.787 96.017 116.773 96.2144 116.759 96.4176C116.677 96.9321 116.677 96.9321 116.281 97.3276C115.787 97.3771 115.787 97.3771 115.292 97.3276C114.897 96.9321 114.897 96.9321 114.858 96.3744C114.863 96.1587 114.867 95.9431 114.872 95.7209C114.876 95.5042 114.879 95.2875 114.883 95.0642C114.888 94.8975 114.892 94.7308 114.897 94.559C114.714 94.5694 114.714 94.5694 114.528 94.5799C114.369 94.5852 114.209 94.5906 114.044 94.5961C113.807 94.6064 113.807 94.6064 113.564 94.617C113.117 94.559 113.117 94.559 112.761 94.2918C112.524 93.9658 112.524 93.9658 112.548 93.459C112.722 92.977 112.722 92.977 113.315 92.5815C113.719 92.5428 113.719 92.5428 114.143 92.5567C114.516 92.569 114.516 92.569 114.897 92.5815C114.892 92.429 114.888 92.2766 114.883 92.1195C114.879 91.9212 114.876 91.7229 114.872 91.5185C114.868 91.3212 114.863 91.1239 114.858 90.9206C114.911 90.2157 115.081 90.0317 115.787 89.9612Z" fill="white"/>
<path d="M44.8168 89.8746C45.2864 90.0106 45.2864 90.0106 45.4842 90.2083C45.4985 90.6077 45.5007 91.0076 45.4965 91.4072C45.4948 91.6257 45.493 91.8442 45.4911 92.0692C45.4888 92.2383 45.4865 92.4073 45.4842 92.5814C45.6963 92.5732 45.9084 92.5651 46.1269 92.5567C46.8007 92.5791 47.1073 92.6235 47.6595 92.9769C47.6966 93.5455 47.6966 93.5455 47.6595 94.1635C47.0487 94.5707 46.926 94.6062 46.2381 94.5837C45.9893 94.5755 45.7405 94.5674 45.4842 94.559C45.4888 94.7257 45.4934 94.8924 45.4981 95.0642C45.5034 95.3892 45.5034 95.3892 45.5089 95.7208C45.5135 95.9365 45.5181 96.1521 45.5228 96.3743C45.4842 96.9321 45.4842 96.9321 45.0887 97.3276C44.4366 97.2624 44.1745 97.2044 43.7044 96.7343C43.6657 96.2198 43.6657 96.2198 43.6796 95.6219C43.6832 95.4236 43.6868 95.2253 43.6905 95.0209C43.6951 94.8685 43.6996 94.716 43.7044 94.559C43.5805 94.5636 43.4566 94.5681 43.3289 94.5729C43.0865 94.5782 43.0865 94.5782 42.8392 94.5837C42.5983 94.5906 42.5983 94.5906 42.3525 94.5976C41.9246 94.559 41.9246 94.559 41.529 94.1635C41.4596 93.6216 41.461 93.298 41.7268 92.8162C42.3675 92.4358 42.9692 92.5452 43.7044 92.5814C43.694 92.3313 43.694 92.3313 43.6835 92.0762C43.6782 91.8595 43.6728 91.6428 43.6673 91.4196C43.6604 91.2039 43.6535 90.9882 43.6464 90.7661C43.6655 90.582 43.6847 90.3979 43.7044 90.2083C44.2976 89.8128 44.2976 89.8128 44.8168 89.8746Z" fill="white"/>
<path d="M112.919 100.492C113.571 100.557 113.833 100.615 114.304 101.085C114.342 101.556 114.342 101.556 114.328 102.099C114.325 102.279 114.321 102.458 114.318 102.644C114.313 102.782 114.308 102.92 114.304 103.063C114.52 103.054 114.736 103.046 114.959 103.038C115.688 103.063 115.688 103.063 116.281 103.458C116.355 104.051 116.355 104.051 116.281 104.645C115.561 105.125 115.152 105.072 114.304 105.04C114.308 105.193 114.313 105.345 114.318 105.502C114.323 105.8 114.323 105.8 114.328 106.103C114.333 106.3 114.338 106.498 114.342 106.701C114.304 107.216 114.304 107.216 113.908 107.611C113.414 107.66 113.414 107.66 112.919 107.611C112.524 107.216 112.524 107.216 112.485 106.701C112.49 106.504 112.494 106.306 112.499 106.103C112.503 105.905 112.506 105.706 112.51 105.502C112.514 105.35 112.519 105.197 112.524 105.04C112.402 105.045 112.281 105.049 112.155 105.054C111.916 105.059 111.916 105.059 111.671 105.065C111.434 105.072 111.434 105.072 111.191 105.079C110.744 105.04 110.744 105.04 110.151 104.645C110.077 104.163 110.077 104.163 110.151 103.656C110.394 103.33 110.394 103.33 110.744 103.063C111.191 103.005 111.191 103.005 111.671 103.026C111.911 103.034 111.911 103.034 112.155 103.042C112.277 103.049 112.399 103.056 112.524 103.063C112.519 102.91 112.515 102.758 112.51 102.601C112.506 102.402 112.503 102.204 112.499 102C112.494 101.802 112.49 101.605 112.485 101.402C112.524 100.887 112.524 100.887 112.919 100.492Z" fill="white"/>
<path d="M16.0183 88.0331C16.6239 87.9836 16.6239 87.9836 17.2049 88.0331C17.4026 88.2308 17.4026 88.2308 17.4219 88.7692C17.4196 88.9872 17.4173 89.2051 17.415 89.4297C17.4132 89.6482 17.4114 89.8666 17.4096 90.0917C17.4073 90.2607 17.405 90.4298 17.4026 90.6039C17.5265 90.5993 17.6504 90.5947 17.778 90.59C17.9397 90.5864 18.1013 90.5829 18.2678 90.5792C18.4284 90.5746 18.589 90.57 18.7545 90.5653C19.1824 90.6039 19.1824 90.6039 19.5779 90.9994C19.6274 91.4938 19.6274 91.4938 19.5779 91.9882C19.1824 92.3837 19.1824 92.3837 18.7545 92.4223C18.5939 92.4177 18.4333 92.4132 18.2678 92.4084C18.1062 92.4049 17.9446 92.4013 17.778 92.3976C17.6541 92.393 17.5303 92.3884 17.4026 92.3837C17.4049 92.5527 17.4072 92.7217 17.4096 92.8959C17.4113 93.1143 17.4131 93.3328 17.415 93.5579C17.4173 93.7758 17.4196 93.9938 17.4219 94.2184C17.4026 94.7568 17.4026 94.7568 17.2049 94.9546C16.6239 95.004 16.6239 95.004 16.0183 94.9546C15.5959 94.321 15.577 94.1597 15.5981 93.4343C15.6016 93.2745 15.6052 93.1146 15.6089 92.9499C15.6135 92.8283 15.6181 92.7067 15.6228 92.5815C15.0338 92.6008 15.0338 92.6008 14.4447 92.6201C14.0407 92.5815 14.0407 92.5815 13.4475 92.186C13.3733 91.5927 13.3733 91.5927 13.4475 90.9994C14.0583 90.5922 14.181 90.5566 14.8688 90.5792C15.242 90.5914 15.242 90.5914 15.6228 90.6039C15.6182 90.468 15.6136 90.3321 15.6089 90.1922C15.6053 90.014 15.6018 89.8358 15.5981 89.6522C15.5935 89.4755 15.5889 89.2989 15.5842 89.1169C15.6228 88.6263 15.6228 88.6263 16.0183 88.0331Z" fill="white"/>
<path d="M43.1111 122.443C44.9384 122.443 46.7656 122.443 48.6483 122.443C48.6483 123.487 48.6483 124.531 48.6483 125.607C46.821 125.607 44.9937 125.607 43.1111 125.607C43.1111 124.563 43.1111 123.519 43.1111 122.443Z" fill="#2F1F40"/>
<path d="M39.1559 116.51C40.0087 116.505 40.8615 116.501 41.7144 116.498C41.9579 116.496 42.2015 116.494 42.4525 116.493C42.6838 116.492 42.9152 116.491 43.1535 116.491C43.4751 116.489 43.4751 116.489 43.8031 116.488C44.2976 116.51 44.2976 116.51 44.4953 116.708C44.5098 117.209 44.5136 117.703 44.5077 118.203C44.5036 118.689 44.4995 119.174 44.4953 119.674C42.7333 119.674 40.9713 119.674 39.1559 119.674C39.1559 118.63 39.1559 117.586 39.1559 116.51Z" fill="#2F1F40"/>
<path d="M123.005 98.9098C123.829 99.2576 124.233 99.6716 124.587 100.492C124.696 101.346 124.645 101.766 124.241 102.531C123.611 103.283 123.307 103.425 122.338 103.532C121.484 103.444 121.088 103.215 120.434 102.667C119.922 101.992 119.953 101.316 120.039 100.492C120.772 99.1517 121.483 98.7192 123.005 98.9098Z" fill="white"/>
<path d="M35.2007 128.771C36.8975 128.771 38.5943 128.771 40.3424 128.771C40.3424 129.815 40.3424 130.859 40.3424 131.935C39.6624 131.962 38.9834 131.981 38.3031 131.997C38.11 132.005 37.9169 132.014 37.7179 132.022C36.3134 132.046 36.3134 132.046 35.7855 131.573C35.5096 130.66 35.3714 129.71 35.2007 128.771Z" fill="#2F1F40"/>
<path d="M35.3985 122.641C36.9647 122.641 38.531 122.641 40.1447 122.641C40.1447 123.619 40.1447 124.598 40.1447 125.607C38.5784 125.607 37.0122 125.607 35.3985 125.607C35.3985 124.628 35.3985 123.649 35.3985 122.641Z" fill="#2F1F40"/>
<path d="M24.1263 114.533C24.7246 114.876 25.1978 115.291 25.5106 115.917C25.519 116.783 25.4685 117.489 24.9421 118.191C24.1653 118.739 23.4739 118.782 22.5443 118.685C21.9757 118.203 21.9757 118.203 21.5555 117.697C21.4902 117.631 21.425 117.566 21.3577 117.499C21.2427 116.586 21.2343 115.917 21.7285 115.126C22.4485 114.448 23.1656 114.369 24.1263 114.533Z" fill="white"/>
<path d="M43.3088 128.771C44.7445 128.771 46.1802 128.771 47.6594 128.771C47.4241 129.948 46.9828 130.85 46.4729 131.935C45.2982 131.935 44.1235 131.935 42.9133 131.935C43.0042 130.857 43.0964 129.833 43.3088 128.771Z" fill="#2F1F40"/>
<path d="M111.291 126.771C111.439 126.772 111.587 126.773 111.74 126.774C111.9 126.775 112.06 126.775 112.224 126.776C112.393 126.778 112.561 126.779 112.734 126.781C112.903 126.782 113.072 126.783 113.246 126.784C113.664 126.786 114.083 126.79 114.501 126.794C113.778 127.555 113.022 128.179 112.165 128.783C112.043 128.87 111.921 128.956 111.795 129.045C109.637 130.551 109.637 130.551 108.371 130.551C108.221 129.782 108.163 129.137 108.371 128.376C109.092 127.759 109.885 127.383 110.744 126.991C110.942 126.794 110.942 126.794 111.291 126.771Z" fill="white"/>
<path d="M72.787 80.8203C73.4991 80.994 73.765 81.2993 74.159 81.9026C74.308 82.5317 74.319 83.0547 74.159 83.6824C73.7099 84.346 73.1641 84.6312 72.3791 84.7948C71.5942 84.6312 71.0484 84.346 70.5993 83.6824C70.4393 83.0547 70.4503 82.5317 70.5993 81.9026C71.1857 81.0047 71.7472 80.7435 72.787 80.8203Z" fill="#2F1F40"/>
<path d="M72.787 109.494C73.4803 109.666 73.7658 110 74.1589 110.577C74.2704 111.358 74.2328 111.804 73.8994 112.518C73.4544 113.095 73.1305 113.325 72.4038 113.42C71.6438 113.329 71.3397 113.082 70.7971 112.555C70.4775 111.916 70.4857 111.268 70.5993 110.577C71.1943 109.685 71.7466 109.421 72.787 109.494Z" fill="#2F1F40"/>
<path d="M45.0268 32.797C45.8376 32.8735 46.2359 33.1497 46.8684 33.6499C47.1555 34.2239 47.1398 34.5937 47.0662 35.2319C46.5755 36.0201 46.275 36.3549 45.3853 36.6409C44.5435 36.6109 44.2835 36.4209 43.7043 35.8252C43.2405 35.1294 43.1941 34.8645 43.3088 34.0454C43.7908 33.4892 43.7908 33.4892 44.2976 33.0566C44.4954 32.8588 44.4954 32.8588 45.0268 32.797Z" fill="#2F1F40"/>
<path d="M72.4903 66.4652C73.2472 66.6991 73.6453 66.8594 74.1589 67.4664C74.308 68.3908 74.3008 68.9698 73.751 69.7406C73.1701 70.235 73.1701 70.235 72.478 70.3586C71.6924 70.2183 71.3562 70.0031 70.797 69.4439C70.4759 68.8017 70.462 68.1581 70.5993 67.4664C71.2127 66.7332 71.5262 66.4821 72.4903 66.4652Z" fill="#2F1F40"/>
<path d="M73.1701 95.5478C73.7734 95.9418 74.0787 96.2077 74.2524 96.9197C74.3097 97.6955 74.2022 98.0537 73.7634 98.7119C73.1086 99.1484 72.7449 99.269 71.9712 99.2148C71.4223 99.061 71.09 98.7492 70.7669 98.2871C70.4474 97.5891 70.4887 97.1005 70.5993 96.3388C71.1724 95.3421 72.1288 95.3384 73.1701 95.5478Z" fill="#2F1F40"/>
<path d="M72.5691 123.534C73.3312 123.714 73.6483 124.018 74.1589 124.618C74.287 125.415 74.2346 125.844 73.887 126.571C73.5656 126.991 73.5656 126.991 73.1701 127.189C72.5746 127.257 72.1628 127.303 71.5881 127.189C70.8816 126.585 70.6332 126.217 70.488 125.298C70.6969 124.022 71.2162 123.44 72.5691 123.534Z" fill="#2F1F40"/>
<path d="M109.953 28.1127C110.53 28.5058 110.865 28.7913 111.037 29.4847C111.091 30.2605 110.985 30.6184 110.546 31.2768C109.724 31.8247 109.346 31.8117 108.371 31.6724C107.89 31.3025 107.651 31.0234 107.382 30.4858C107.297 29.7201 107.319 29.3932 107.753 28.7431C108.453 28.0223 108.96 28.0117 109.953 28.1127Z" fill="#2F1F40"/>
<path d="M29.2681 100.294C29.7625 100.578 29.7625 100.578 30.0592 101.085C30.2094 101.938 30.2148 102.616 29.7502 103.359C29.1252 103.744 28.6118 103.813 27.8838 103.854C27.7533 103.788 27.6228 103.723 27.4883 103.656C27.4883 103.525 27.4883 103.395 27.4883 103.26C27.3578 103.26 27.2273 103.26 27.0928 103.26C26.6305 102.538 26.5919 101.928 26.6973 101.085C27.4516 100.166 28.156 100.153 29.2681 100.294Z" fill="#2F1F40"/>
<path d="M36.5851 116.312C36.5851 117.422 36.5851 118.531 36.5851 119.674C35.2146 119.674 33.8442 119.674 32.4322 119.674C32.7365 118.457 33.4649 117.648 34.5249 116.979C35.8221 116.312 35.8221 116.312 36.5851 116.312Z" fill="#2F1F40"/>
<path d="M124.192 112.95C124.785 113.358 124.785 113.358 125.18 113.939C125.313 114.762 125.27 115.165 124.859 115.892C124.276 116.413 123.984 116.526 123.203 116.51C122.083 115.918 122.083 115.918 121.818 115.126C121.75 114.371 121.713 113.913 122.115 113.259C122.802 112.83 123.416 112.775 124.192 112.95Z" fill="#2F1F40"/>
<path d="M116.578 116.473C117.467 116.775 117.781 117.089 118.259 117.894C118.288 118.746 118.202 119.117 117.641 119.761C116.918 120.154 116.499 120.203 115.688 120.07C115.181 119.654 114.953 119.344 114.815 118.698C114.758 117.909 114.853 117.564 115.305 116.893C115.886 116.51 115.886 116.51 116.578 116.473Z" fill="#2F1F40"/>
<path d="M31.0479 122.443C31.7657 122.443 32.4836 122.443 33.2232 122.443C33.1579 123.487 33.0927 124.531 33.0255 125.607C32.2423 125.607 31.4592 125.607 30.6524 125.607C30.6029 123.555 30.6029 123.555 31.0479 122.443Z" fill="#2F1F40"/>
<path d="M132.3 96.1411C133.278 96.1411 134.257 96.1411 135.266 96.1411C135.266 96.7937 135.266 97.4463 135.266 98.1187C134.091 98.1187 132.917 98.1187 131.706 98.1187C131.902 97.4661 132.098 96.8135 132.3 96.1411Z" fill="#2F1F40"/>
<path d="M14.152 64.3147C14.8318 64.5001 14.8318 64.5001 15.2149 64.7225C15.5527 65.3186 15.4966 65.8094 15.425 66.4776C15.2273 66.8608 15.2273 66.8608 14.8318 67.0709C14.1237 67.1756 13.495 67.2012 12.8542 66.8608C12.5361 66.2445 12.573 65.7731 12.6564 65.0933C13.105 64.3756 13.2999 64.2997 14.152 64.3147Z" fill="white"/>
<path d="M38.7604 66.082C39.6998 66.4528 39.6998 66.4528 40.1447 66.6753C40.0409 67.5765 39.6869 68.0977 39.1436 68.8136C38.9985 69.0065 38.8535 69.1995 38.704 69.3983C38.5921 69.5439 38.4802 69.6894 38.3649 69.8394C37.7202 69.7022 37.4176 69.5509 36.9806 69.0484C37.255 68.2791 37.6164 67.6709 38.093 67.009C38.2179 66.8344 38.3428 66.6598 38.4715 66.4799C38.5668 66.3486 38.6622 66.2173 38.7604 66.082Z" fill="white"/>
<path d="M120.632 66.082C121.097 66.0905 121.097 66.0905 121.621 66.2798C122.07 66.7471 122.07 66.7471 122.486 67.3304C122.696 67.6168 122.696 67.6168 122.911 67.909C123.203 68.4551 123.203 68.4551 123.173 68.8962C123.005 69.2461 123.005 69.2461 122.609 69.6417C122.164 69.6664 122.164 69.6664 121.621 69.4439C121.173 68.9509 120.802 68.4162 120.434 67.8618C120.304 67.6661 120.173 67.4703 120.039 67.2686C120.11 66.6831 120.206 66.5079 120.632 66.082Z" fill="white"/>
<path d="M146.056 64.3145C146.736 64.4999 146.736 64.4999 147.119 64.7224C147.457 65.3184 147.401 65.8092 147.329 66.4775C147.131 66.8606 147.131 66.8606 146.736 67.0707C146.19 67.1617 145.698 67.1717 145.154 67.0707C144.621 66.6381 144.572 66.3619 144.474 65.6864C144.56 65.0932 144.56 65.0932 144.869 64.6111C145.351 64.3021 145.351 64.3021 146.056 64.3145Z" fill="white"/>
<path d="M37.9694 85.2645C38.7646 85.5295 38.9395 85.9221 39.4031 86.6117C39.6188 86.9256 39.6188 86.9256 39.8388 87.2459C40.1447 87.8353 40.1447 87.8353 40.1161 88.2857C39.8848 88.7514 39.5963 88.9527 39.1559 89.2196C39.0254 89.2196 38.8949 89.2196 38.7604 89.2196C38.4775 88.8517 38.2124 88.47 37.957 88.0825C37.816 87.8714 37.6751 87.6604 37.5298 87.4429C37.2404 86.9519 37.068 86.6098 36.9806 86.0555C37.4379 85.6476 37.4379 85.6476 37.9694 85.2645Z" fill="white"/>
<path d="M20.5667 71.0259C21.6503 71.3316 22.5669 71.8477 23.5331 72.4102C23.1623 73.5473 23.1623 73.5473 22.9398 73.9923C22.1784 73.8729 21.583 73.6427 20.9004 73.2878C20.7258 73.1978 20.5512 73.1078 20.3713 73.0151C20.24 72.946 20.1087 72.8769 19.9734 72.8058C20.0719 72.0672 20.1465 71.6563 20.5667 71.0259Z" fill="white"/>
<path d="M134.079 66.082C134.667 66.3044 135.134 66.5216 135.661 66.8731C135.356 67.5158 135.002 68.1084 134.611 68.7023C134.497 68.8787 134.384 69.0551 134.267 69.2369C133.882 69.6417 133.882 69.6417 133.366 69.7251C132.893 69.6417 132.893 69.6417 132.497 69.2461C132.549 68.3055 132.844 67.7437 133.4 66.9967C133.526 66.8238 133.653 66.651 133.783 66.4729C133.881 66.3439 133.979 66.2149 134.079 66.082Z" fill="white"/>
<path d="M25.8815 66.0952C26.4974 66.3658 26.7604 66.7792 27.1546 67.3181C27.2965 67.5067 27.4385 67.6954 27.5848 67.8897C27.8838 68.4552 27.8838 68.4552 27.8305 69.0207C27.7828 69.1604 27.7351 69.3001 27.686 69.444C27.2945 69.5092 26.9029 69.5745 26.4995 69.6417C26.2383 69.33 25.9791 69.0165 25.7208 68.7024C25.5763 68.528 25.4317 68.3537 25.2828 68.174C24.9503 67.71 24.7633 67.4373 24.7197 66.8731C25.3023 66.0747 25.3023 66.0747 25.8815 66.0952Z" fill="white"/>
<path d="M137.243 96.1411C138.157 96.1411 139.071 96.1411 140.012 96.1411C140.605 97.4513 140.605 97.4513 140.605 98.1187C139.496 98.1187 138.386 98.1187 137.243 98.1187C137.243 97.4661 137.243 96.8135 137.243 96.1411Z" fill="#2F1F40"/>
<path d="M88.793 34.6388C89.1762 34.9601 89.1762 34.9601 89.3863 35.4298C89.3216 36.681 89.3216 36.681 88.793 37.2096C87.3877 37.3434 87.3877 37.3434 86.8031 36.9006C86.5347 36.2028 86.6206 35.7486 86.8155 35.0343C87.4185 34.3196 87.934 34.3646 88.793 34.6388Z" fill="white"/>
<path d="M121.818 85.4622C122.288 85.5117 122.288 85.5117 122.807 85.66C123.067 86.0679 123.067 86.0679 123.203 86.451C122.963 86.8447 122.719 87.2356 122.473 87.6252C122.338 87.8431 122.203 88.0611 122.063 88.2857C121.621 88.8241 121.621 88.8241 121.096 89.0118C120.632 89.0218 120.632 89.0218 120.261 88.7994C120.038 88.4286 120.038 88.4286 120.073 87.9767C120.275 87.3118 120.594 86.9198 121.04 86.3892C121.185 86.2146 121.33 86.04 121.479 85.8601C121.591 85.7288 121.703 85.5975 121.818 85.4622Z" fill="white"/>
<path d="M26.4995 85.4622C27.4388 85.6353 27.4388 85.6353 27.8838 85.8577C27.7859 86.7979 27.5434 87.3512 26.9815 88.1072C26.8548 88.2801 26.7281 88.4529 26.5976 88.631C26.5 88.76 26.4023 88.8889 26.3017 89.0218C25.1646 88.8735 25.1646 88.8735 24.7197 88.4286C24.7733 87.646 25.2643 87.1092 25.7208 86.5004C25.9384 86.2083 25.9384 86.2083 26.1604 85.9103C26.2723 85.7624 26.3842 85.6146 26.4995 85.4622Z" fill="white"/>
<path d="M22.9923 81.6932C23.5343 82.024 23.5798 82.4975 23.7308 83.0891C23.3856 83.3171 23.0394 83.5433 22.6926 83.7689C22.4999 83.8951 22.3072 84.0213 22.1086 84.1513C21.6378 84.4255 21.2949 84.5815 20.7645 84.6712C20.3109 83.9908 20.1712 83.7372 20.1712 82.8914C20.5487 82.6866 20.9281 82.4854 21.3083 82.2857C21.6249 82.1171 21.6249 82.1171 21.9479 81.9451C22.5443 81.7048 22.5443 81.7048 22.9923 81.6932Z" fill="white"/>
<path d="M133.47 85.4707C134.078 85.7504 134.345 86.1726 134.734 86.7106C134.947 86.997 134.947 86.997 135.165 87.2892C135.464 87.8353 135.464 87.8353 135.447 88.2764C135.266 88.6264 135.266 88.6264 134.673 89.0219C134.412 89.0219 134.151 89.0219 133.882 89.0219C133.551 88.6064 133.293 88.2277 133.029 87.7735C132.918 87.5971 132.918 87.5971 132.806 87.417C132.598 87.0713 132.598 87.0713 132.299 86.451C132.518 85.7964 132.727 85.4541 133.47 85.4707Z" fill="white"/>
<path d="M41.7268 81.9026C42.8103 82.2082 43.7269 82.7244 44.6931 83.2869C44.5849 83.9542 44.4845 84.292 44.0998 84.8689C43.2529 84.7606 42.7449 84.4686 42.0605 83.9667C41.8858 83.84 41.7112 83.7133 41.5313 83.5828C41.4 83.4851 41.2687 83.3875 41.1335 83.2869C41.5043 82.3475 41.5043 82.3475 41.7268 81.9026Z" fill="white"/>
<path d="M82.3411 46.2322C83.058 46.3063 83.058 46.3063 83.54 46.6277C83.9377 47.2321 83.9549 47.5733 83.849 48.2839C83.6513 48.6547 83.6513 48.6547 83.2558 48.8772C82.7102 48.9692 82.2186 48.9769 81.6737 48.8772C81.2658 48.5682 81.2658 48.5682 81.0804 48.0862C81.1696 46.3623 81.1696 46.3623 82.3411 46.2322Z" fill="#2F1F40"/>
<path d="M68.6218 46.3063C69.1038 46.6276 69.1038 46.6276 69.4128 47.0973C69.5117 47.7029 69.5117 47.7029 69.4128 48.2838C68.9741 48.7901 68.6906 48.8671 68.0285 48.9636C67.4353 48.8771 67.4353 48.8771 66.9656 48.5557C66.5525 47.952 66.5373 47.6175 66.6442 46.8995C67.0952 46.1038 67.7887 46.2039 68.6218 46.3063Z" fill="#2F1F40"/>
<path d="M134.673 100.096C135.652 100.096 136.63 100.096 137.639 100.096C137.639 100.749 137.639 101.401 137.639 102.074C136.66 102.074 135.681 102.074 134.673 102.074C134.673 101.421 134.673 100.769 134.673 100.096Z" fill="#2F1F40"/>
<path d="M44.1616 71.0653C44.4954 71.2236 44.4954 71.2236 44.7425 71.5944C44.8909 72.0147 44.8909 72.0147 44.8909 72.6079C44.5134 72.8127 44.134 73.0139 43.7538 73.2136C43.5427 73.326 43.3316 73.4384 43.1141 73.5542C42.5178 73.7945 42.5178 73.7945 42.0697 73.769C41.7268 73.5967 41.7268 73.5967 41.3312 73.0034C41.3312 72.7424 41.3312 72.4814 41.3312 72.2124C41.7087 72.0077 42.0881 71.8064 42.4683 71.6068C42.785 71.4382 42.785 71.4382 43.108 71.2661C43.7043 71.0259 43.7043 71.0259 44.1616 71.0653Z" fill="white"/>
<path d="M139.814 71.2237C140.068 71.6415 140.216 71.9098 140.188 72.4041C139.926 73.0013 139.55 73.097 138.962 73.3496C138.675 73.4766 138.675 73.4766 138.383 73.6061C137.837 73.7946 137.837 73.7946 137.046 73.7946C136.65 73.2013 136.65 73.2013 136.666 72.7046C136.907 72.0528 137.165 71.9462 137.787 71.6563C137.958 71.5735 138.128 71.4906 138.303 71.4053C138.844 71.2175 139.247 71.188 139.814 71.2237Z" fill="white"/>
<path d="M115.886 71.0259C116.647 71.1453 117.243 71.3755 117.925 71.7304C118.1 71.8204 118.274 71.9104 118.454 72.0031C118.651 72.1068 118.651 72.1068 118.852 72.2125C118.744 72.8798 118.643 73.2176 118.259 73.7945C117.497 73.6752 116.902 73.445 116.219 73.09C116.045 73 115.87 72.9101 115.69 72.8173C115.559 72.7483 115.428 72.6792 115.292 72.608C115.663 71.4709 115.663 71.4709 115.886 71.0259Z" fill="white"/>
<path d="M92.7481 46.3064C93.2425 46.6154 93.2425 46.6154 93.5391 47.0974C93.5267 47.8143 93.5267 47.8143 93.3413 48.4817C92.6509 48.942 92.3739 48.9767 91.5615 48.8772C91.0918 48.5558 91.0918 48.5558 90.7705 48.0862C90.6809 47.4588 90.6657 47.0846 90.9806 46.5288C91.5914 46.1742 92.0582 46.2216 92.7481 46.3064Z" fill="#2F1F40"/>
<path d="M73.7634 21.5866C74.1589 21.9821 74.1589 21.9821 74.2207 22.7608C74.2052 23.2644 74.1859 23.5161 73.9364 23.9597C73.3787 24.2571 73.0008 24.2463 72.3791 24.1574C71.8971 23.8485 71.8971 23.8485 71.5881 23.3664C71.5881 22.6127 71.6275 22.1698 72.1195 21.5866C72.7423 21.3173 73.1189 21.4045 73.7634 21.5866Z" fill="white"/>
<path d="M137.046 81.9026C137.359 82.0205 137.672 82.1404 137.985 82.261C138.247 82.3608 138.247 82.3608 138.513 82.4626C139.009 82.6874 139.394 82.9439 139.814 83.2869C139.765 83.8554 139.765 83.8554 139.617 84.4734C139.225 84.6692 139.225 84.6692 138.825 84.8689C138.042 84.3469 137.259 83.8248 136.452 83.2869C136.65 82.2981 136.65 82.2981 137.046 81.9026Z" fill="white"/>
<path d="M118.654 82.2982C118.72 82.6898 118.785 83.0813 118.852 83.4847C118.508 83.7226 118.161 83.9567 117.814 84.1893C117.525 84.3854 117.525 84.3854 117.23 84.5855C116.677 84.869 116.677 84.869 116.21 84.8127C116.103 84.766 115.996 84.7194 115.886 84.6713C115.755 84.2145 115.625 83.7577 115.49 83.287C115.83 83.0816 116.173 82.8806 116.516 82.6814C116.706 82.5689 116.897 82.4565 117.093 82.3407C117.731 82.0731 118.007 82.091 118.654 82.2982Z" fill="white"/>
<path d="M87.8042 46.3062C88.2739 46.5164 88.2739 46.5164 88.5952 46.8995C88.6804 47.5808 88.7205 48.0554 88.3851 48.667C87.7805 48.9985 87.2919 48.9493 86.6176 48.8771C86.2345 48.667 86.2345 48.667 86.0244 48.2838C85.8992 47.1152 85.8992 47.1152 86.2468 46.5164C86.796 46.2052 87.1837 46.2303 87.8042 46.3062Z" fill="#2F1F40"/>
<path d="M139.617 100.096C140.465 100.096 141.313 100.096 142.187 100.096C142.187 100.814 142.187 101.532 142.187 102.272C141.339 102.272 140.491 102.272 139.617 102.272C139.617 101.554 139.617 100.836 139.617 100.096Z" fill="#2F1F40"/>
<path d="M73.3679 46.3062C73.8376 46.5164 73.8376 46.5164 74.1589 46.8995C74.2441 47.5808 74.2842 48.0554 73.9488 48.667C73.3372 49.0023 72.8626 48.9622 72.1813 48.8771C71.6548 48.4355 71.5973 48.1612 71.5139 47.4804C71.5881 46.8995 71.5881 46.8995 71.8106 46.5287C72.3579 46.2003 72.7412 46.2295 73.3679 46.3062Z" fill="#2F1F40"/>
<path d="M78.3119 46.3064C78.8639 46.6986 79.0685 46.9253 79.2018 47.5918C79.0671 48.2652 78.8759 48.4867 78.3119 48.8772C77.595 48.9637 77.595 48.9637 76.9276 48.8772C76.4405 48.1465 76.455 47.7633 76.5321 46.8996C76.9582 46.1658 77.5193 46.1931 78.3119 46.3064Z" fill="#2F1F40"/>
<path d="M135.068 104.051C136.047 104.051 137.026 104.051 138.034 104.051C138.034 104.704 138.034 105.357 138.034 106.029C137.186 106.029 136.338 106.029 135.464 106.029C135.421 105.705 135.421 105.705 135.377 105.374C135.289 104.658 135.289 104.658 135.068 104.051Z" fill="#2F1F40"/>
<path d="M87.4087 26.9262C88.08 26.8529 88.5733 26.8057 89.1761 27.1363C89.5115 27.7478 89.4714 28.2225 89.3862 28.9037C89.0649 29.2992 89.0649 29.2992 88.5952 29.497C87.9772 29.4723 87.9772 29.4723 87.4087 29.2992C86.9512 28.613 86.946 28.3253 87.0132 27.5194C87.1437 27.3236 87.2742 27.1279 87.4087 26.9262Z" fill="white"/>
<path d="M74.3567 11.1056C74.8264 11.4146 74.8264 11.4146 75.1477 11.8966C75.1054 13.1256 75.1054 13.1256 74.5545 13.6764C73.9471 13.7411 73.5359 13.7716 72.9971 13.4663C72.6475 12.8643 72.7018 12.3785 72.7746 11.6989C73.1787 11.0396 73.6155 10.9791 74.3567 11.1056Z" fill="white"/>
<path d="M49.155 85.4745C49.9455 85.7785 49.9455 85.7785 50.2303 86.2531C50.2056 86.9577 50.2056 86.9577 50.0326 87.6374C49.3933 88.0636 49.1918 88.1256 48.4505 88.033C48.0921 87.8105 48.0921 87.8105 47.8572 87.4397C47.7485 86.71 47.7677 86.3825 48.1909 85.7711C48.6483 85.4621 48.6483 85.4621 49.155 85.4745Z" fill="white"/>
<path d="M140.605 112.159C141.001 112.555 141.001 112.555 141.063 113.136C141.001 113.741 141.001 113.741 140.778 114.112C140.233 114.439 139.844 114.413 139.221 114.335C138.85 114.1 138.85 114.1 138.628 113.741C138.544 113.184 138.551 112.883 138.838 112.394C139.43 112.031 139.929 112.098 140.605 112.159Z" fill="white"/>
<path d="M45.8797 102.469C46.7249 102.782 47.1187 103.36 47.6595 104.051C46.8289 104.951 46.8289 104.951 46.2752 105.263C45.8797 105.238 45.8797 105.238 45.3358 104.793C44.8909 104.249 44.8909 104.249 44.8909 103.656C45.1846 103.225 45.5319 102.861 45.8797 102.469Z" fill="white"/>
<path d="M50.3415 97.9705C50.8236 98.1188 50.8236 98.1188 51.2191 98.5143C51.2849 99.1333 51.3134 99.5385 50.9966 100.084C50.6258 100.294 50.6258 100.294 50.0202 100.269C49.4393 100.096 49.4393 100.096 49.0438 99.5031C49.0808 98.8974 49.0808 98.8974 49.2415 98.3165C49.8348 97.921 49.8348 97.921 50.3415 97.9705Z" fill="white"/>
<path d="M130.915 100.096C131.503 100.096 132.09 100.096 132.695 100.096C132.695 100.749 132.695 101.401 132.695 102.074C132.108 102.074 131.52 102.074 130.915 102.074C130.915 101.421 130.915 100.769 130.915 100.096Z" fill="#2F1F40"/>
<path d="M142.101 86.6859C142.583 86.8465 142.583 86.8465 142.978 87.2421C142.913 87.8941 142.855 88.1562 142.385 88.6264C141.891 88.6758 141.891 88.6758 141.396 88.6264C141.001 88.2308 141.001 88.2308 140.939 87.7488C141.001 87.2421 141.001 87.2421 141.236 86.8713C141.594 86.6488 141.594 86.6488 142.101 86.6859Z" fill="white"/>
<path d="M108.766 72.4103C110.095 72.5527 110.095 72.5527 110.348 72.8058C110.386 73.2878 110.386 73.2878 110.348 73.7946C109.953 74.1901 109.953 74.1901 109.36 74.2395C108.766 74.1901 108.766 74.1901 108.371 73.7946C108.483 72.6934 108.483 72.6934 108.766 72.4103Z" fill="white"/>
<path d="M109.57 109.824C109.953 109.984 109.953 109.984 110.348 110.38C110.398 110.874 110.398 110.874 110.348 111.368C109.953 111.764 109.953 111.764 109.471 111.826C108.964 111.764 108.964 111.764 108.593 111.517C108.371 111.171 108.371 111.171 108.396 110.775C108.657 110.177 108.869 109.76 109.57 109.824Z" fill="white"/>
<path d="M131.508 104.051C132.096 104.051 132.683 104.051 133.288 104.051C133.419 104.704 133.549 105.357 133.684 106.029C133.152 106.029 133.152 106.029 132.497 105.831C131.508 104.646 131.508 104.646 131.508 104.051Z" fill="#2F1F40"/>
<path d="M71.1926 32.8588C71.6401 32.9287 71.9739 33.0517 72.3791 33.2543C72.4247 33.8166 72.4501 34.1366 72.1319 34.6139C71.7858 34.8364 71.7858 34.8364 71.378 34.7993C70.9948 34.6386 70.9948 34.6386 70.5993 34.2431C70.6645 33.5911 70.7224 33.329 71.1926 32.8588Z" fill="white"/>
<path d="M109.36 96.7344C109.94 96.8069 110.124 96.9053 110.546 97.3276C110.436 98.2285 110.436 98.2285 110.151 98.5142C109.669 98.5513 109.669 98.5513 109.162 98.5142C109.031 98.3837 108.901 98.2531 108.766 98.1187C108.832 97.4666 108.89 97.2045 109.36 96.7344Z" fill="white"/>
<path d="M109.248 80.2834C109.755 80.3205 109.755 80.3205 110.151 80.716C110.041 81.6169 110.041 81.6169 109.755 81.9026C109.273 81.9397 109.273 81.9397 108.766 81.9026C108.636 81.7721 108.505 81.6415 108.371 81.5071C108.513 80.34 108.513 80.34 109.248 80.2834Z" fill="white"/>
<path d="M147.465 70.2968C147.691 70.3641 147.691 70.3641 147.922 70.4327C148.058 70.89 148.058 70.89 148.12 71.4215C147.836 71.7799 147.836 71.7799 147.527 72.0148C147.045 71.8665 147.045 71.8665 146.538 71.6193C146.34 71.2361 146.34 71.2361 146.34 70.8282C146.679 70.282 146.82 70.2218 147.465 70.2968Z" fill="white"/>
<path d="M18.7869 67.2686C19.3673 67.3411 19.5511 67.4395 19.9735 67.8618C19.8993 68.3809 19.8993 68.3809 19.7757 68.8506C19.306 68.9742 19.306 68.9742 18.7869 69.0484C18.3914 68.6529 18.3914 68.6529 18.342 68.1585C18.3914 67.6641 18.3914 67.6641 18.7869 67.2686Z" fill="white"/>
<path d="M12.1621 85.215C12.6565 85.2645 12.6565 85.2645 13.052 85.66C12.9794 86.2403 12.881 86.4242 12.4587 86.8465C11.9396 86.7724 11.9396 86.7724 11.4699 86.6488C11.3463 86.1791 11.3463 86.1791 11.2722 85.66C11.6677 85.2645 11.6677 85.2645 12.1621 85.215Z" fill="white"/>
<path d="M147.725 82.4958C148.424 82.6018 148.424 82.6018 148.713 82.8914C148.775 83.361 148.775 83.361 148.713 83.8801C148.318 84.2386 148.318 84.2386 147.922 84.4734C147.514 84.1273 147.514 84.1273 147.131 83.6824C147.166 83.0855 147.297 82.9235 147.725 82.4958Z" fill="white"/>
<path d="M123.907 93.3354C124.389 93.3725 124.389 93.3725 124.587 93.5703C124.624 94.0523 124.624 94.0523 124.587 94.5591C124.456 94.6896 124.326 94.8201 124.191 94.9546C123.672 94.8804 123.672 94.8804 123.203 94.7568C123.079 94.2872 123.079 94.2872 123.005 93.768C123.4 93.3725 123.4 93.3725 123.907 93.3354Z" fill="white"/>
<path d="M50.6258 72.608C51.5564 72.7476 51.5564 72.7476 51.8123 73.0035C51.8371 73.4979 51.8371 73.4979 51.8123 73.9923C51.6146 74.1901 51.6146 74.1901 51.1326 74.2272C50.6258 74.1901 50.6258 74.1901 50.2303 73.7946C50.3402 72.8937 50.3402 72.8937 50.6258 72.608Z" fill="white"/>
<path d="M12.2609 70.6304C13.1916 70.77 13.1916 70.77 13.4475 71.0259C13.4722 71.5203 13.4722 71.5203 13.4475 72.0147C13.2497 72.2125 13.2497 72.2125 12.7677 72.2496C12.2609 72.2125 12.2609 72.2125 11.8654 71.817C11.9753 70.9161 11.9753 70.9161 12.2609 70.6304Z" fill="white"/>
<path d="M140.605 67.2686C140.937 67.3251 141.267 67.3907 141.594 67.4663C141.817 68.4057 141.817 68.4057 141.594 68.8506C141.124 68.8753 141.124 68.8753 140.605 68.8506C140.475 68.7201 140.344 68.5896 140.21 68.4551C140.32 67.5542 140.32 67.5542 140.605 67.2686Z" fill="white"/>
<path d="M110.546 86.451C111.065 86.5251 111.065 86.5251 111.535 86.6487C111.659 87.1184 111.659 87.1184 111.733 87.6375C111.602 87.7681 111.472 87.8986 111.337 88.033C110.818 87.9589 110.818 87.9589 110.348 87.8353C110.225 87.3656 110.225 87.3656 110.151 86.8465C110.281 86.716 110.412 86.5855 110.546 86.451Z" fill="white"/>
<path d="M50.6258 80.5183C51.1449 80.5925 51.1449 80.5925 51.6146 80.7161C51.7382 81.1857 51.7382 81.1857 51.8123 81.7049C51.6818 81.8354 51.5513 81.9659 51.4168 82.1004C50.8977 82.0262 50.8977 82.0262 50.428 81.9026C50.3044 81.4329 50.3044 81.4329 50.2303 80.9138C50.3608 80.7833 50.4913 80.6528 50.6258 80.5183Z" fill="white"/>
<path d="M50.8236 104.645C51.3427 104.719 51.3427 104.719 51.8124 104.842C51.8124 105.234 51.8124 105.626 51.8124 106.029C51.4208 106.225 51.4208 106.225 51.0213 106.424C50.8256 106.294 50.6298 106.163 50.4281 106.029C50.3663 105.535 50.3663 105.535 50.4281 105.04C50.5586 104.91 50.6891 104.779 50.8236 104.645Z" fill="white"/>
<path d="M36.5851 93.5703C36.9114 93.6355 37.2377 93.7008 37.5739 93.768C37.6975 94.2377 37.6975 94.2377 37.7716 94.7568C37.6411 94.8873 37.5106 95.0178 37.3761 95.1523C36.857 95.0781 36.857 95.0781 36.3873 94.9546C36.2637 94.5961 36.2637 94.5961 36.1896 94.1635C36.3201 93.9677 36.4506 93.772 36.5851 93.5703Z" fill="white"/>
<path d="M147.23 88.6016C147.725 88.6263 147.725 88.6263 147.922 88.8241C147.959 89.3061 147.959 89.3061 147.922 89.8129C147.792 89.9434 147.661 90.0739 147.527 90.2084C146.946 90.1359 146.763 90.0375 146.34 89.6151C146.488 88.6387 146.488 88.6387 147.23 88.6016Z" fill="white"/>
<path d="M119.68 23.2306C119.858 23.2979 119.858 23.2979 120.039 23.3665C120.162 23.8238 120.162 23.8238 120.236 24.3553C120.041 24.649 120.041 24.649 119.841 24.9486C119.359 24.8003 119.359 24.8003 118.852 24.5531C118.654 24.1699 118.654 24.1699 118.654 23.762C118.971 23.2783 119.096 23.1471 119.68 23.2306Z" fill="white"/>
<path d="M107.975 17.0383C108.495 17.1124 108.495 17.1124 108.964 17.236C109.088 17.7057 109.088 17.7057 109.162 18.2248C109.031 18.3553 108.901 18.4859 108.766 18.6203C108.247 18.5462 108.247 18.5462 107.778 18.4226C107.654 17.9529 107.654 17.9529 107.58 17.4338C107.71 17.3033 107.841 17.1727 107.975 17.0383Z" fill="white"/>
<path d="M46.4729 108.798C46.6089 109.156 46.6089 109.156 46.6707 109.589C46.4359 109.947 46.4359 109.947 46.0774 110.182C45.6547 110.132 45.3933 110.091 45.0886 109.786C45.0806 109.457 45.0802 109.127 45.0886 108.798C45.616 108.534 45.9127 108.665 46.4729 108.798Z" fill="white"/>
<path d="M70.2038 26.5306C70.946 26.8179 70.946 26.8179 71.1679 27.3093C71.1926 27.7172 71.1926 27.7172 70.7971 28.3104C70.2301 28.197 70.0334 28.1401 69.6105 27.7172C69.6831 27.1368 69.7815 26.9529 70.2038 26.5306Z" fill="white"/>
<path d="M13.2497 97.1299C13.7688 97.204 13.7688 97.204 14.2385 97.3276C14.3744 97.6861 14.3744 97.6861 14.4362 98.1187C14.2014 98.4771 14.2014 98.4771 13.843 98.7119C13.4104 98.6501 13.4104 98.6501 13.0519 98.5142C12.9283 98.0445 12.9283 98.0445 12.8542 97.5254C12.9847 97.3949 13.1152 97.2644 13.2497 97.1299Z" fill="white"/>
<path d="M20.3813 48.0986C20.871 48.3355 20.9674 48.5775 21.16 49.075C20.9128 49.384 20.9128 49.384 20.5667 49.6683C20.1589 49.6559 20.1589 49.6559 19.7757 49.4705C19.5285 49.0626 19.5285 49.0626 19.3802 48.6795C19.8576 48.0827 19.8576 48.0827 20.3813 48.0986Z" fill="white"/>
<path d="M113.908 19.8069C114.427 19.881 114.427 19.881 114.897 20.0046C115.033 20.363 115.033 20.363 115.095 20.7956C114.86 21.1541 114.86 21.1541 114.501 21.3889C114.069 21.3271 114.069 21.3271 113.71 21.1912C113.587 20.7215 113.587 20.7215 113.513 20.2024C113.643 20.0718 113.774 19.9413 113.908 19.8069Z" fill="white"/>
<path d="M87.2233 12.1068C87.7129 12.3437 87.8093 12.5857 88.0019 13.0832C87.7547 13.3922 87.7547 13.3922 87.4086 13.6765C87.0008 13.6641 87.0008 13.6641 86.6176 13.4787C86.3704 13.0708 86.3704 13.0708 86.2221 12.6877C86.6995 12.0909 86.6995 12.0909 87.2233 12.1068Z" fill="white"/>
<path d="M139.814 48.2839C140.075 48.2839 140.336 48.2839 140.605 48.2839C140.828 48.7412 140.828 48.7412 141.001 49.2727C140.805 49.5663 140.805 49.5663 140.605 49.8659C140.279 49.8007 139.953 49.7354 139.617 49.6682C139.493 49.3097 139.493 49.3097 139.419 48.8771C139.549 48.6814 139.68 48.4856 139.814 48.2839Z" fill="white"/>
<path d="M16.8093 50.657C17.1356 50.7222 17.4619 50.7875 17.7981 50.8547C17.9341 51.2132 17.9341 51.2132 17.9959 51.6458C17.7116 51.9918 17.7116 51.9918 17.4026 52.239C17.0194 52.0784 17.0194 52.0784 16.6116 51.8435C16.5463 51.6477 16.4811 51.452 16.4138 51.2503C16.5443 51.0545 16.6749 50.8587 16.8093 50.657Z" fill="white"/>
<path d="M51.0214 112.555C51.4416 112.629 51.4416 112.629 51.8124 112.753C51.936 113.222 51.936 113.222 52.0102 113.741C51.8796 113.872 51.7491 114.003 51.6146 114.137C51.1944 114.063 51.1944 114.063 50.8236 113.939C50.7 113.47 50.7 113.47 50.6259 112.95C50.7564 112.82 50.8869 112.689 51.0214 112.555Z" fill="white"/>
<path d="M135.068 96.3389C135.133 96.3389 135.199 96.3389 135.266 96.3389C135.266 96.9262 135.266 97.5135 135.266 98.1187C134.091 98.1187 132.917 98.1187 131.706 98.1187C131.771 97.7924 131.837 97.4661 131.904 97.1299C132.035 97.3909 132.165 97.652 132.3 97.9209C133.213 97.9209 134.127 97.9209 135.068 97.9209C135.068 97.3988 135.068 96.8768 135.068 96.3389Z" fill="#2F1F40"/>
<path d="M116.677 90.4061C116.742 90.4061 116.807 90.4061 116.874 90.4061C116.874 90.9282 116.874 91.4503 116.874 91.9882C117.135 92.1187 117.397 92.2492 117.665 92.3837C117.665 92.449 117.665 92.5142 117.665 92.5815C117.339 92.5815 117.013 92.5815 116.677 92.5815C116.677 91.8636 116.677 91.1457 116.677 90.4061Z" fill="#2F1F40"/>
</svg>
