<svg width="134" height="161" viewBox="0 0 134 161" fill="none" xmlns="http://www.w3.org/2000/svg">
<path d="M76.5096 18.1052C76.8836 18.1489 77.2595 18.1758 77.6353 18.2C78.4953 18.2858 78.9583 18.3713 79.5196 19.0536C79.8741 19.6734 80.1542 20.295 80.4263 20.9551C80.5789 21.2991 80.5789 21.2991 80.7345 21.65C81.4948 23.3952 82.1345 25.1582 82.6746 26.9827C82.7881 27.3188 82.9029 27.6545 83.0194 27.9896C83.904 30.6482 84.5718 33.334 85.0056 36.0999C85.0334 36.2687 85.0611 36.4376 85.0897 36.6115C85.5469 39.5009 85.5965 42.3813 85.5987 45.2999C85.599 45.505 85.5992 45.7101 85.5994 45.9214C85.597 49.1793 85.4302 52.3561 84.9834 55.587C84.874 56.3893 84.7763 57.1925 84.6798 57.9964C84.3107 61.0032 83.8289 63.9537 83.1798 66.9119C82.8563 68.3998 82.5919 69.8968 82.3298 71.3964C81.9779 73.4093 81.6095 75.416 81.1862 77.4152C80.9479 78.5623 80.8192 79.6538 80.6884 80.8309C77.7025 80.8309 74.7165 80.8309 71.6401 80.8309C71.4945 79.8841 71.3488 78.9374 71.1987 77.9619C71.0908 77.3454 70.9808 76.7293 70.8677 76.1137C70.6608 74.971 70.4827 73.8325 70.3436 72.6792C70.1199 70.9157 69.7691 69.182 69.4239 67.4389C69.0868 65.7152 68.8042 63.9894 68.5505 62.2516C67.9155 57.9141 67.9155 57.9141 66.785 53.6861C66.572 54.7608 66.3601 55.8357 66.1492 56.9108C66.0776 57.2751 66.0057 57.6393 65.9334 58.0034C65.5371 60.0037 65.1637 61.9946 64.9103 64.0187C64.8018 64.7016 64.642 65.3596 64.4689 66.0286C64.2844 66.7854 64.159 67.5506 64.0324 68.3188C63.99 68.5718 63.99 68.5718 63.9468 68.8298C63.8877 69.1839 63.8289 69.5382 63.7705 69.8924C63.682 70.4282 63.5919 70.9636 63.5018 71.499C63.2402 73.0663 62.9803 74.625 62.8596 76.2108C62.8101 76.6604 62.7114 77.0708 62.5919 77.5068C62.288 78.6446 62.288 78.6446 62.1505 80.8309C59.2374 80.8309 56.3243 80.8309 53.3229 80.8309C53.0095 79.7341 52.7426 78.6684 52.5315 77.5525C52.5002 77.3902 52.469 77.228 52.4367 77.0608C52.3361 76.5383 52.2364 76.0156 52.1367 75.493C52.0325 74.9511 51.928 74.4093 51.8236 73.8675C51.755 73.5118 51.6865 73.1562 51.6181 72.8005C51.3687 71.5038 51.1143 70.2082 50.8539 68.9137C50.8203 68.7457 50.7866 68.5776 50.7519 68.4045C50.5796 67.5459 50.4048 66.6878 50.2281 65.8301C49.5629 62.5843 48.9165 59.3324 48.735 56.018C48.7073 55.4751 48.7073 55.4751 48.5828 55.0562C48.0034 52.6019 48.2059 49.8477 48.2061 47.3399C48.2057 46.7124 48.2016 46.0851 48.1975 45.4577C48.1891 42.7309 48.3581 40.0612 48.6884 37.3551C48.7105 37.1703 48.7327 36.9855 48.7555 36.7952C49.3201 32.1317 50.5471 27.6074 52.4366 23.3051C52.667 22.7754 52.8851 22.2417 53.1031 21.7068C53.2493 21.364 53.3961 21.0215 53.5436 20.6792C53.6062 20.5227 53.6687 20.3663 53.7332 20.205C54.1221 19.3406 54.3261 19.0824 55.2304 18.6803C56.1206 18.3752 57.0162 18.1978 57.947 18.0697C58.1897 18.0343 58.1897 18.0343 58.4372 17.9981C58.9574 17.9234 59.4779 17.8524 59.9988 17.7827C60.1781 17.7585 60.3575 17.7343 60.5423 17.7094C65.9685 16.9874 71.0941 17.4058 76.5096 18.1052Z" fill="white"/>
<path d="M66.1196 25.1563C69.2481 25.001 72.5242 26.0839 74.9489 28.0847C77.5495 30.5403 79.0899 33.4463 79.2576 37.0537C79.3196 40.7014 77.938 43.9368 75.4429 46.6011C72.8599 49.0219 69.6299 49.8776 66.1737 49.8284C62.433 49.6739 59.6439 48.0069 57.1274 45.3279C54.7392 42.4221 54.3994 38.9712 54.6455 35.3675C55.1616 32.302 56.874 29.5838 59.28 27.6434C61.4525 26.1609 63.511 25.3913 66.1196 25.1563Z" fill="#181D4C"/>
<path d="M46.4786 65.6035C46.6242 65.6035 46.7699 65.6035 46.92 65.6035C47.058 66.3943 47.1959 67.1851 47.3337 67.9759C47.3722 68.1958 47.4106 68.4157 47.4501 68.6423C47.6444 69.7574 47.8353 70.8729 48.0191 71.9897C48.2554 73.4138 48.5172 74.8328 48.782 76.2518C48.831 76.5157 48.8799 76.7797 48.9303 77.0516C49.2233 78.6317 49.2233 78.6317 49.5277 80.2096C49.8095 81.654 50.0563 83.0998 50.2794 84.5544C50.3036 84.7117 50.3278 84.869 50.3528 85.031C50.4756 85.831 50.5968 86.6311 50.7156 87.4317C50.761 87.7309 50.8064 88.0302 50.8518 88.3294C50.8916 88.5958 50.9313 88.8623 50.9722 89.1368C51.1088 89.8571 51.3088 90.5138 51.5544 91.2035C51.8089 92.1704 51.792 93.0786 51.7751 94.0725C51.6357 94.1157 51.4963 94.159 51.3527 94.2035C48.4945 95.159 46.1893 96.5956 44.051 98.707C43.911 98.8336 43.7711 98.9602 43.6269 99.0906C40.4056 102.077 39.1892 106.264 39.0197 110.502C39.003 110.984 38.9888 111.466 38.9751 111.948C38.4871 111.495 38.1569 111.066 37.845 110.479C37.7619 110.323 37.6789 110.167 37.5934 110.006C37.5077 109.842 37.422 109.677 37.3338 109.507C37.2451 109.337 37.1564 109.168 37.0651 108.993C36.4466 107.796 35.8793 106.604 35.4441 105.328C35.3727 105.122 35.3013 104.916 35.2277 104.704C33.7187 100.096 33.3706 95.5456 33.314 90.7315C33.3038 89.8764 33.289 89.022 33.2626 88.1673C33.0646 81.5707 33.0646 81.5707 34.5924 79.8052C35.0059 79.3806 35.4315 79.0085 35.8855 78.6242C36.1511 78.3235 36.4119 78.0185 36.6648 77.707C36.8826 77.4605 37.101 77.2145 37.32 76.969C38.4689 75.6621 39.5551 74.3177 40.6217 72.9432C41.2736 72.1032 41.9472 71.2816 42.6225 70.4604C43.317 69.6157 44.0086 68.7686 44.6993 67.9208C44.8874 67.6906 44.8874 67.6906 45.0793 67.4558C45.1971 67.3111 45.315 67.1664 45.4363 67.0173C45.5416 66.8883 45.6468 66.7593 45.7552 66.6264C46.0124 66.2973 46.2469 65.951 46.4786 65.6035Z" fill="white"/>
<path d="M86.6444 65.6035C87.5285 65.8982 87.8707 66.4848 88.4099 67.2035C89.2312 68.2749 90.0677 69.3246 90.9478 70.3483C91.794 71.335 92.6068 72.3416 93.403 73.369C94.266 74.4819 95.1705 75.5365 96.1237 76.5742C96.6831 77.1998 97.1948 77.8515 97.6933 78.5264C98.1135 79.0773 98.1135 79.0773 98.6219 79.5732C100.231 81.2668 100.39 82.7278 100.339 84.9561C100.338 85.2902 100.338 85.6243 100.339 85.9584C100.338 86.6577 100.33 87.3564 100.317 88.0556C100.301 88.9334 100.298 89.8105 100.3 90.6883C100.308 98.1166 99.326 106.197 94.8099 112.39C94.737 112.39 94.6642 112.39 94.5892 112.39C94.586 112.243 94.5827 112.097 94.5794 111.946C94.4438 106.42 93.41 102.179 89.4056 98.1552C87.7228 96.6844 85.764 95.7198 83.7754 94.7346C83.4429 94.5683 83.1104 94.4019 82.778 94.2354C82.5245 94.1088 82.271 93.9822 82.0099 93.8518C82.5826 89.7872 83.2019 85.7365 83.9284 81.6964C83.9846 81.3838 84.0408 81.0713 84.097 80.7587C84.1249 80.6034 84.1528 80.448 84.1816 80.288C84.5123 78.4395 84.8202 76.5872 85.1271 74.7346C85.1547 74.5683 85.1822 74.4021 85.2106 74.2308C85.3444 73.4238 85.4779 72.6168 85.6112 71.8098C85.8345 70.458 86.0602 69.1066 86.2857 67.7552C86.3564 67.3311 86.4271 66.907 86.4978 66.4828C86.5467 66.1897 86.5955 65.8966 86.6444 65.6035Z" fill="white"/>
<path d="M80.4619 104.005C81.0696 104.613 81.2219 105.33 81.4826 106.129C82.154 108.096 83.0172 109.898 83.9929 111.729C84.1407 112.012 84.1407 112.012 84.2915 112.3C85.7233 115.032 87.2478 117.625 89.0688 120.115C89.2338 120.345 89.3988 120.575 89.5688 120.812C91.1811 123.016 92.9353 125.161 94.9058 127.056C95.2741 127.424 95.6035 127.813 95.9377 128.212C101.678 134.816 109.815 139.021 117.979 141.743C118.232 141.83 118.485 141.917 118.746 142.006C123.681 143.567 128.751 143.637 133.869 143.509C130.512 147.063 123.815 148.251 119.139 148.433C116.222 148.504 113.465 148.45 110.696 147.481C110.52 147.419 110.344 147.358 110.162 147.294C101.844 144.306 95.5388 138.455 90.4714 131.349C90.2794 131.079 90.0863 130.811 89.892 130.544C87.3589 127.04 85.4841 123.059 83.9929 119.012C83.9315 118.855 83.87 118.698 83.8067 118.536C83.6401 118.109 83.4851 117.678 83.3308 117.246C83.2523 117.038 83.1738 116.829 83.0929 116.615C81.7094 112.749 80.3818 108.131 80.4619 104.005Z" fill="white"/>
<path d="M53.0967 103.561C53.1695 103.561 53.2424 103.561 53.3174 103.561C53.2463 104.37 53.1722 105.179 53.0967 105.988C53.0808 106.167 53.0649 106.346 53.0484 106.53C53.0325 106.692 53.0166 106.855 53.0002 107.023C52.9868 107.165 52.9734 107.307 52.9596 107.453C52.8354 108.228 52.6305 108.981 52.4346 109.74C52.3633 110.027 52.2924 110.313 52.2217 110.6C52.0351 111.353 51.8461 112.105 51.656 112.857C51.57 113.199 51.4857 113.542 51.4019 113.884C49.534 121.183 46.0453 128.473 41.1795 134.237C41.0834 134.352 40.9873 134.468 40.8883 134.587C36.3304 140.073 30.8441 144.779 23.9657 147.037C23.7907 147.109 23.6158 147.182 23.4355 147.257C22.7871 147.507 22.1464 147.668 21.4691 147.823C21.2333 147.878 20.9975 147.933 20.7545 147.989C17.3376 148.666 13.4579 148.699 10.0623 147.919C9.91276 147.887 9.76326 147.855 9.60924 147.822C6.30877 147.103 2.8786 145.969 0.131226 143.947C0.131226 143.874 0.131226 143.801 0.131226 143.726C0.380432 143.721 0.380432 143.721 0.634674 143.717C9.12872 143.534 17.0938 142.405 24.6278 138.209C24.7943 138.117 24.9609 138.026 25.1325 137.931C29.9318 135.278 34.004 132.016 37.8691 128.14C38.0042 128.005 38.1392 127.87 38.2783 127.731C40.319 125.686 42.1912 123.603 43.8278 121.216C43.968 121.023 44.1083 120.83 44.2528 120.631C44.6382 120.098 45.0064 119.556 45.3726 119.009C45.4559 118.888 45.5393 118.767 45.6252 118.642C48.4665 114.5 50.6951 110.033 52.4346 105.326C52.5604 104.991 52.6862 104.656 52.8122 104.32C52.953 103.944 52.953 103.944 53.0967 103.561Z" fill="white"/>
<path d="M70.7582 30.0743C70.9295 30.1679 71.1008 30.2615 71.2772 30.3579C73.0303 31.4104 74.3289 32.9856 75.0263 34.9148C75.5842 37.5059 75.3787 40.0463 73.9565 42.2976C72.5777 44.2376 70.6426 45.4234 68.3307 45.9639C65.888 46.2262 63.7483 45.8168 61.7462 44.37C59.7706 42.7474 58.6024 40.8599 58.3022 38.2881C58.2227 35.7634 58.7736 33.7833 60.4048 31.8398C61.0739 31.1407 61.7723 30.5855 62.5927 30.0743C62.7293 29.983 62.8658 29.8917 63.0065 29.7976C65.2296 28.5514 68.608 28.8284 70.7582 30.0743Z" fill="white"/>
<path d="M65.0143 92.7473C66.2523 92.7473 67.4904 92.7473 68.766 92.7473C68.8174 126.92 68.8174 126.92 68.5453 137.989C68.5394 138.231 68.5334 138.473 68.5273 138.722C68.3397 146.081 67.6972 153.394 67.0005 160.72C66.8548 160.72 66.7092 160.72 66.5591 160.72C66.2269 156.782 65.9002 152.843 65.6487 148.899C65.6321 148.646 65.6155 148.393 65.5984 148.133C65.2863 143.06 65.1858 137.976 65.1175 132.895C65.113 132.564 65.1084 132.233 65.1038 131.902C64.9211 118.852 64.9952 105.798 65.0143 92.7473Z" fill="white"/>
<path d="M57.9527 102.677C58.0983 102.677 58.244 102.677 58.394 102.677C58.4096 104.362 58.4213 106.047 58.4283 107.732C58.4317 108.515 58.4363 109.298 58.444 110.081C58.4825 114.131 58.3357 118.083 57.732 122.098C57.7083 122.256 57.6846 122.413 57.6603 122.575C57.5349 123.382 57.3861 124.182 57.2216 124.981C57.1513 125.331 57.1513 125.331 57.0796 125.688C56.9331 126.405 56.7816 127.12 56.6285 127.836C56.5799 128.068 56.5313 128.3 56.4812 128.539C54.6232 137.281 50.8281 145.695 44.713 152.284C44.4038 152.626 44.1077 152.98 43.8225 153.342C43.4308 153.824 43.046 154.209 42.5734 154.609C41.9279 155.159 41.2959 155.719 40.6699 156.291C37.6744 158.953 37.6744 158.953 36.5458 158.953C36.6188 158.855 36.6919 158.757 36.7671 158.655C43.1798 149.984 47.6592 140.377 51.332 130.264C51.4344 129.99 51.4344 129.99 51.5389 129.712C52.0595 128.311 52.5076 126.904 52.9044 125.464C53.0004 125.116 53.0004 125.116 53.0983 124.761C53.3211 123.948 53.5407 123.133 53.7596 122.319C53.8018 122.162 53.844 122.006 53.8875 121.845C55.0001 117.72 56.0408 113.591 56.8492 109.395C56.8805 109.233 56.9118 109.071 56.944 108.904C57.34 106.836 57.6738 104.764 57.9527 102.677Z" fill="white"/>
<path d="M75.3918 102.898C75.8954 103.654 76.0103 104.319 76.1599 105.194C76.2208 105.532 76.2818 105.87 76.3428 106.208C76.3744 106.386 76.4059 106.564 76.4384 106.747C77.0712 110.298 77.8444 113.782 78.7601 117.272C78.9835 118.141 79.1813 119.015 79.378 119.891C79.8181 121.817 80.3961 123.699 80.9799 125.585C81.1049 125.99 81.2271 126.396 81.3487 126.802C81.5635 127.516 81.7867 128.228 82.0125 128.939C82.0686 129.118 82.1248 129.296 82.1826 129.48C84.6345 137.216 87.9404 144.521 92.1642 151.45C92.2669 151.62 92.3696 151.789 92.4754 151.964C93.5922 153.806 94.7713 155.596 96.0092 157.359C96.4712 158.019 96.9113 158.655 97.2401 159.395C93.3169 156.992 89.8782 153.535 87.0883 149.905C86.8885 149.658 86.6885 149.411 86.4883 149.164C83.5056 145.419 81.2843 141.127 79.5849 136.664C79.487 136.418 79.3892 136.173 79.2884 135.92C78.6411 134.223 78.1603 132.483 77.6815 130.733C77.6176 130.501 77.5537 130.269 77.4879 130.029C76.6702 126.967 76.1463 123.853 75.7918 120.705C75.7726 120.536 75.7533 120.367 75.7335 120.194C75.1066 114.467 75.3138 108.649 75.3918 102.898Z" fill="white"/>
<path d="M66.554 0.720215C70.4369 2.44312 73.6487 8.45036 75.8229 11.9754C76.029 12.3057 76.029 12.3057 76.2393 12.6426C77.147 14.1196 77.147 14.1196 77.147 14.6237C76.6504 14.5979 76.1539 14.5698 75.6574 14.5409C75.3809 14.5255 75.1044 14.5102 74.8195 14.4943C74.0737 14.4393 73.3566 14.317 72.622 14.178C70.9572 13.8914 69.2996 13.8851 67.616 13.8926C67.4534 13.8927 67.2907 13.8927 67.1231 13.8927C64.4724 13.8967 61.887 14.0961 59.2617 14.4788C58.3692 14.6084 57.5238 14.6536 56.6229 14.6237C56.9589 13.3865 57.5655 12.4088 58.2505 11.3409C58.4263 11.065 58.4263 11.065 58.6056 10.7835C59.6769 9.12291 60.8369 7.54219 62.0478 5.98153C62.3521 5.58678 62.6508 5.18842 62.9479 4.78832C64.0477 3.31594 65.2102 1.97634 66.554 0.720215Z" fill="white"/>
<path d="M53.7645 84.5851C62.2853 84.5851 70.8062 84.5851 79.5852 84.5851C79.4685 85.9857 79.3426 87.3869 79.1438 88.7782C71.06 88.7782 62.9761 88.7782 54.6473 88.7782C53.7645 85.0265 53.7645 85.0265 53.7645 84.5851Z" fill="white"/>
<path d="M61.4808 118.787C61.5536 118.787 61.6265 118.787 61.7015 118.787C61.717 120.869 61.7287 122.951 61.7358 125.033C61.7392 126 61.7439 126.967 61.7515 127.934C61.8122 135.874 61.8122 135.874 61.0394 139.753C60.9666 140.286 60.8969 140.819 60.8325 141.353C60.6315 142.777 60.3004 144.15 59.9325 145.538C59.8046 146.03 59.684 146.525 59.5808 147.023C58.9224 150.15 57.3878 153.113 55.9222 155.932C55.8358 156.099 55.7495 156.266 55.6605 156.439C55.0515 157.581 54.3387 158.601 53.536 159.615C53.1671 158.877 53.5842 158.135 53.8119 157.38C54.3597 155.491 54.7582 153.61 55.0808 151.67C55.1279 151.39 55.1279 151.39 55.176 151.103C55.3632 149.986 55.5471 148.868 55.7276 147.75C56.3867 143.68 57.1936 139.697 58.1945 135.696C59.5708 130.109 60.5542 124.464 61.4808 118.787Z" fill="white"/>
<path d="M71.8591 119.012C72.0776 119.121 72.0776 119.121 72.3005 119.233C72.4299 119.777 72.5313 120.307 72.6195 120.858C72.6793 121.208 72.7391 121.559 72.799 121.909C72.83 122.096 72.8611 122.282 72.8932 122.474C73.4346 125.707 74.0473 128.918 74.7695 132.116C74.8052 132.274 74.841 132.433 74.8778 132.597C75.1884 133.972 75.5032 135.345 75.8364 136.715C76.7523 140.494 77.3287 144.322 77.9172 148.164C78.0008 148.709 78.0855 149.254 78.1703 149.799C78.195 149.962 78.2196 150.124 78.2449 150.292C78.4121 151.361 78.6506 152.392 78.9212 153.44C78.9981 153.798 79.0723 154.156 79.1419 154.515C79.1783 154.701 79.2147 154.886 79.2522 155.078C79.3258 155.457 79.3994 155.836 79.4729 156.215C79.6977 157.36 79.9526 158.49 80.2453 159.619C79.5194 159.003 79.112 158.192 78.6591 157.371C78.5721 157.213 78.4851 157.056 78.3954 156.894C78.1272 156.406 77.8617 155.916 77.5971 155.426C77.5192 155.283 77.4413 155.14 77.3611 154.993C75.0542 150.728 73.7432 146.295 72.9626 141.522C72.9288 141.316 72.895 141.111 72.8602 140.898C71.9998 135.492 71.7922 130.079 71.8315 124.612C71.8338 124.064 71.8358 123.516 71.8376 122.968C71.8424 121.649 71.8497 120.331 71.8591 119.012Z" fill="white"/>
<path d="M14.6981 109.741C14.8437 109.741 14.9894 109.741 15.1395 109.741C15.2089 109.992 15.2783 110.242 15.3498 110.5C16.3333 114.189 16.3333 114.189 19.0567 116.721C19.8578 117.06 20.6621 117.296 21.5015 117.522C21.9808 117.686 21.9808 117.686 22.4222 118.128C21.384 118.599 20.3477 119.044 19.2774 119.438C17.8065 120.023 17.0523 120.987 16.2429 122.321C16.0017 122.926 15.8161 123.543 15.636 124.169C15.563 124.413 15.563 124.413 15.4886 124.661C15.3702 125.057 15.2546 125.454 15.1395 125.852C14.9938 125.852 14.8481 125.852 14.6981 125.852C14.6127 125.596 14.5274 125.341 14.4395 125.078C14.3235 124.738 14.2074 124.398 14.0912 124.059C14.0354 123.891 13.9797 123.723 13.9222 123.55C13.3397 121.861 12.5884 120.52 10.9533 119.666C9.73748 119.099 8.48622 118.704 7.19464 118.348C7.19464 118.13 7.19464 117.911 7.19464 117.686C7.44755 117.619 7.70045 117.552 7.96102 117.484C8.29871 117.39 8.63635 117.297 8.97395 117.203C9.13994 117.16 9.30594 117.117 9.47696 117.072C10.8377 116.689 11.9797 116.151 12.8524 115.005C13.5224 113.585 13.9324 112.15 14.3015 110.63C14.4774 109.962 14.4774 109.962 14.6981 109.741Z" fill="white"/>
<path d="M118.865 109.741C119.011 109.741 119.157 109.741 119.307 109.741C119.342 109.902 119.377 110.062 119.413 110.228C120.166 113.607 120.166 113.607 122.249 116.259C123.53 116.964 124.961 117.315 126.369 117.686C126.369 117.905 126.369 118.123 126.369 118.348C126.121 118.421 126.121 118.421 125.867 118.495C123.788 119.139 121.725 119.821 120.636 121.832C120.061 123.077 119.548 124.274 119.307 125.631C119.088 125.558 118.87 125.485 118.645 125.41C118.436 124.879 118.264 124.371 118.107 123.824C117.59 122.041 116.878 120.792 115.334 119.672C114.01 118.984 112.59 118.684 111.141 118.348C111.141 118.203 111.141 118.057 111.141 117.907C111.36 117.84 111.578 117.773 111.803 117.704C114.877 116.788 114.877 116.788 117.1 114.597C117.43 113.799 117.706 112.986 117.983 112.169C118.147 111.713 118.313 111.258 118.479 110.803C118.553 110.6 118.627 110.397 118.703 110.187C118.757 110.04 118.81 109.893 118.865 109.741Z" fill="white"/>
<path d="M44.4944 137.325C44.6037 137.543 44.6037 137.543 44.7151 137.766C44.5189 138.222 44.5189 138.222 44.2022 138.788C44.0857 138.996 43.9692 139.204 43.8491 139.419C43.7207 139.643 43.5923 139.866 43.46 140.097C43.3291 140.326 43.1983 140.555 43.0635 140.791C41.1983 144.009 39.0523 146.934 36.5496 149.683C36.3986 149.85 36.2475 150.017 36.0919 150.189C32.1761 154.302 26.1423 157.234 20.4264 157.431C20.285 157.423 20.1436 157.415 19.9979 157.407C20.355 156.693 21.1096 156.497 21.8048 156.166C26.96 153.645 31.5736 150.364 35.8876 146.594C36.0748 146.431 36.2619 146.269 36.4548 146.101C38.8193 144.014 41.0134 141.803 42.9496 139.311C43.103 139.115 43.2563 138.92 43.4143 138.719C43.7763 138.255 44.1364 137.791 44.4944 137.325Z" fill="white"/>
<path d="M88.6248 137.107C89.35 137.787 89.9699 138.503 90.5834 139.286C91.2335 140.11 91.9086 140.858 92.6627 141.587C93.0535 141.977 93.4112 142.384 93.7696 142.803C95.4235 144.711 97.2449 146.352 99.2179 147.92C99.4605 148.121 99.7027 148.323 99.9446 148.525C104.039 151.914 108.564 154.661 113.342 156.969C113.342 157.042 113.342 157.114 113.342 157.189C108 157.514 102.934 154.855 99.0051 151.398C97.4552 149.993 96.1084 148.448 94.8041 146.817C94.6232 146.595 94.4423 146.374 94.2558 146.145C92.6476 144.125 91.2981 141.954 89.949 139.755C89.7965 139.51 89.644 139.265 89.4869 139.012C88.6248 137.609 88.6248 137.609 88.6248 137.107Z" fill="white"/>
<path d="M66.3425 19.0364C66.3425 19.4734 66.3425 19.9103 66.3425 20.3605C66.0891 20.4356 65.8356 20.5107 65.5744 20.5881C61.2882 21.9049 57.7191 24.0711 55.4563 28.045C54.3619 30.1264 53.5894 32.2492 52.8805 34.4847C52.7348 34.4847 52.5892 34.4847 52.4391 34.4847C52.352 30.1196 53.8166 26.5099 56.6322 23.2295C56.7642 23.075 56.8962 22.9205 57.0322 22.7614C59.3176 20.2947 62.9544 18.6699 66.3425 19.0364Z" fill="#181D4C"/>
<path d="M71.8583 92.7473C73.3148 92.7473 74.7714 92.7473 76.2721 92.7473C76.4757 97.0234 76.4757 97.0234 74.9479 98.7059C73.9628 99.6506 73.2274 99.8596 71.8583 100.251C71.8583 97.7746 71.8583 95.2985 71.8583 92.7473Z" fill="white"/>
<path d="M57.5116 92.7473C58.9681 92.7473 60.4247 92.7473 61.9254 92.7473C61.9254 95.2235 61.9254 97.6996 61.9254 100.251C59.9523 99.8562 58.8106 98.6038 57.6892 97.0059C57.4082 96.2039 57.466 95.4101 57.484 94.568C57.4931 93.9672 57.5022 93.3663 57.5116 92.7473Z" fill="white"/>
<path d="M30.8033 113.716C31.4157 114.022 31.4229 114.347 31.6447 114.985C32.118 116.193 32.576 116.942 33.7921 117.508C34.3366 117.73 34.8825 117.937 35.4378 118.13C35.4378 118.276 35.4378 118.421 35.4378 118.571C35.2569 118.654 35.0759 118.737 34.8895 118.822C34.6517 118.935 34.4139 119.048 34.1688 119.164C33.9333 119.274 33.6977 119.385 33.455 119.498C32.4428 120.102 31.8962 120.842 31.5206 121.951C31.4295 122.219 31.3385 122.488 31.2447 122.764C31.099 122.764 30.9534 122.764 30.8033 122.764C30.7333 122.586 30.6634 122.408 30.5912 122.224C29.9139 120.673 29.3858 119.843 27.7947 119.204C27.5361 119.109 27.5361 119.109 27.2723 119.013C26.9762 118.869 26.6813 118.723 26.3895 118.571C26.4624 118.353 26.5352 118.134 26.6102 117.909C27.1395 117.675 27.1395 117.675 27.7964 117.468C28.8934 117.132 28.8934 117.132 29.6999 116.364C29.9129 115.916 30.1095 115.46 30.293 114.999C30.3894 114.759 30.4859 114.519 30.5852 114.272C30.6572 114.089 30.7292 113.905 30.8033 113.716Z" fill="white"/>
<path d="M102.537 113.716C102.682 113.716 102.828 113.716 102.978 113.716C103.075 114.011 103.075 114.011 103.173 114.313C103.701 115.89 103.701 115.89 104.702 117.178C105.524 117.516 106.301 117.729 107.171 117.909C106.954 118.47 106.831 118.738 106.291 119.025C106.122 119.084 105.952 119.144 105.778 119.206C104.618 119.686 103.949 120.307 103.427 121.476C103.264 121.901 103.12 122.332 102.978 122.764C102.832 122.764 102.687 122.764 102.537 122.764C102.467 122.586 102.397 122.408 102.325 122.224C101.647 120.673 101.119 119.843 99.5281 119.204C99.2695 119.109 99.2695 119.109 99.0057 119.013C98.7096 118.869 98.4147 118.723 98.1229 118.571C98.1958 118.353 98.2686 118.134 98.3436 117.909C98.7609 117.723 98.7609 117.723 99.2815 117.578C100.093 117.349 100.759 117.102 101.433 116.585C101.802 115.891 101.802 115.891 102.054 115.109C102.146 114.849 102.239 114.589 102.334 114.32C102.434 114.021 102.434 114.021 102.537 113.716Z" fill="white"/>
<path d="M110.033 123.648C110.324 123.648 110.615 123.648 110.916 123.648C110.964 123.794 111.012 123.941 111.062 124.092C111.527 125.385 111.916 126.206 113.122 126.958C113.775 127.221 114.431 127.435 115.109 127.62C115.109 127.766 115.109 127.911 115.109 128.061C114.928 128.128 114.747 128.195 114.56 128.264C114.323 128.356 114.085 128.449 113.84 128.544C113.486 128.679 113.486 128.679 113.126 128.816C112.207 129.298 111.751 129.861 111.347 130.811C111.295 130.982 111.244 131.154 111.191 131.33C111.138 131.505 111.084 131.679 111.029 131.859C110.992 131.989 110.954 132.12 110.916 132.254C110.254 132.034 110.254 132.034 110.035 131.617C109.97 131.445 109.906 131.273 109.84 131.096C109.235 129.671 108.528 129.016 107.095 128.434C106.751 128.307 106.407 128.182 106.06 128.061C106.06 127.916 106.06 127.77 106.06 127.62C106.241 127.553 106.422 127.486 106.609 127.417C106.965 127.279 106.965 127.279 107.329 127.137C107.565 127.048 107.8 126.958 108.043 126.866C108.932 126.4 109.425 125.863 109.774 124.919C109.805 124.768 109.836 124.617 109.867 124.461C109.922 124.193 109.977 123.924 110.033 123.648Z" fill="white"/>
<path d="M22.8629 123.648C23.0814 123.72 23.2999 123.793 23.525 123.868C23.7439 124.342 23.7439 124.342 23.9388 124.93C24.3062 125.9 24.5822 126.43 25.5112 126.958C26.0945 127.207 26.675 127.416 27.2767 127.62C27.2767 127.766 27.2767 127.911 27.2767 128.061C27.1117 128.144 26.9467 128.227 26.7767 128.312C24.9149 129.28 24.0649 130.094 23.3043 132.034C23.1586 132.034 23.013 132.034 22.8629 132.034C22.796 131.885 22.7292 131.736 22.6603 131.582C21.7162 129.572 20.686 128.887 18.6698 128.061C18.6698 127.916 18.6698 127.77 18.6698 127.62C18.8507 127.553 19.0317 127.486 19.2181 127.417C19.5748 127.279 19.5748 127.279 19.9388 127.137C20.1743 127.048 20.4099 126.958 20.6526 126.866C21.6954 126.319 22.2141 125.562 22.587 124.461C22.6781 124.193 22.7691 123.924 22.8629 123.648Z" fill="white"/>
<path d="M67.8793 31.1725C68.0978 31.3181 68.3163 31.4638 68.5414 31.6138C68.4686 31.978 68.3957 32.3421 68.3207 32.7173C68.2004 32.7497 68.08 32.7822 67.956 32.8156C66.0213 33.391 64.448 34.3176 63.2767 35.9923C62.9256 36.6549 62.7839 37.3014 62.6759 38.0397C62.5828 38.4552 62.5828 38.4552 62.1414 38.8966C61.4655 38.8414 61.4655 38.8414 60.8173 38.6759C60.301 37.6434 60.5861 36.569 60.9138 35.5173C61.5668 33.842 62.7518 32.4012 64.3069 31.4759C65.4272 30.9971 66.6869 31.0205 67.8793 31.1725Z" fill="#181D4C"/>
<path d="M66.7762 66.9283C66.849 66.9283 66.9218 66.9283 66.9969 66.9283C67.1509 68.3763 67.3038 69.8243 67.4562 71.2724C67.508 71.7636 67.56 72.2547 67.6122 72.7459C67.8986 75.4398 68.1663 78.1269 68.321 80.8318C67.3742 80.8318 66.4275 80.8318 65.452 80.8318C65.5732 79.2979 65.6959 77.7641 65.8197 76.2304C65.8721 75.5805 65.924 74.9306 65.9757 74.2806C66.0478 73.3752 66.1209 72.4699 66.1946 71.5646C66.2237 71.2046 66.2525 70.8445 66.281 70.4844C66.3213 69.9751 66.3628 69.466 66.4046 68.9568C66.4166 68.8028 66.4285 68.6488 66.4408 68.4901C66.5303 67.42 66.5303 67.42 66.7762 66.9283Z" fill="white"/>
<path d="M71.8583 119.012C72.0768 119.121 72.0768 119.121 72.2997 119.233C72.4471 119.754 72.4471 119.754 72.5617 120.405C72.6013 120.618 72.6408 120.831 72.6816 121.051C72.7379 121.628 72.7026 121.999 72.5203 122.543C72.3747 122.47 72.229 122.397 72.079 122.322C72.079 125.163 72.079 128.003 72.079 130.929C72.0061 130.929 71.9333 130.929 71.8583 130.929C71.8583 126.997 71.8583 123.064 71.8583 119.012Z" fill="white"/>
<path d="M53.1014 103.561C53.1742 103.561 53.247 103.561 53.3221 103.561C53.1926 105.034 53.0493 106.505 52.8807 107.975C52.8079 107.975 52.735 107.975 52.66 107.975C52.5872 107.61 52.5143 107.246 52.4393 106.871C52.2208 106.98 52.2208 106.98 51.9979 107.092C52.0982 106.71 52.1996 106.328 52.3014 105.947C52.3577 105.734 52.414 105.522 52.4721 105.303C52.6484 104.703 52.8593 104.136 53.1014 103.561Z" fill="white"/>
<path d="M66.7831 66.9283C66.8559 66.9283 66.9287 66.9283 67.0037 66.9283C67.0766 68.0936 67.1494 69.2588 67.2244 70.4594C67.0788 70.4594 66.9331 70.4594 66.7831 70.4594C66.7102 70.8963 66.6374 71.3333 66.5624 71.7835C66.4895 71.7835 66.4167 71.7835 66.3417 71.7835C66.3722 71.057 66.405 70.3306 66.4382 69.6042C66.4512 69.294 66.4512 69.294 66.4645 68.9775C66.4738 68.7798 66.483 68.5821 66.4925 68.3783C66.5006 68.1957 66.5087 68.0131 66.5171 67.825C66.5624 67.3697 66.5624 67.3697 66.7831 66.9283Z" fill="white"/>
<path d="M67.003 157.189C67.0759 157.189 67.1487 157.189 67.2237 157.189C67.1509 158.355 67.0781 159.52 67.003 160.72C66.8574 160.72 66.7117 160.72 66.5617 160.72C66.5166 159.454 66.5018 158.38 67.003 157.189Z" fill="white"/>
<path d="M44.4841 137.325C44.557 137.47 44.6298 137.616 44.7048 137.766C44.4678 138.284 44.4678 138.284 44.1117 138.883C43.9971 139.081 43.8824 139.28 43.7643 139.484C43.3807 139.973 43.3807 139.973 42.8936 140.151C42.763 140.165 42.6325 140.179 42.4979 140.194C42.8269 139.469 43.2452 138.885 43.7393 138.263C43.8787 138.086 44.0181 137.91 44.1617 137.728C44.2681 137.595 44.3745 137.462 44.4841 137.325Z" fill="white"/>
<path d="M21.8324 156.721C21.9553 156.803 22.0782 156.885 22.2048 156.969C22.2048 157.042 22.2048 157.115 22.2048 157.19C21.4765 157.263 20.7483 157.335 19.9979 157.41C20.2186 156.969 20.2186 156.969 20.729 156.693C21.3221 156.528 21.3221 156.528 21.8324 156.721Z" fill="white"/>
<path d="M106.062 117.904C106.426 117.904 106.79 117.904 107.165 117.904C106.999 118.331 106.999 118.331 106.724 118.786C106.255 118.952 106.255 118.952 105.841 119.007C105.841 118.861 105.841 118.716 105.841 118.566C105.986 118.566 106.132 118.566 106.282 118.566C106.209 118.347 106.137 118.129 106.062 117.904Z" fill="white"/>
<path d="M118.862 109.741C119.008 109.741 119.153 109.741 119.304 109.741C119.359 110.252 119.359 110.252 119.304 110.845C118.862 111.245 118.862 111.245 118.421 111.507C118.614 110.238 118.614 110.238 118.862 109.741Z" fill="white"/>
<path d="M80.4667 104.005C81.001 104.539 81.0426 104.809 81.1287 105.55C81.0322 106.171 81.0322 106.171 80.9081 106.653C80.8352 106.653 80.7624 106.653 80.6874 106.653C80.6145 105.779 80.5417 104.906 80.4667 104.005Z" fill="white"/>
</svg>
