<svg width="160" height="143" viewBox="0 0 160 143" fill="none" xmlns="http://www.w3.org/2000/svg">
<path d="M103.103 54.9475C110.49 60.7831 115.722 68.6519 117.825 77.8661C117.88 78.0927 117.934 78.3193 117.991 78.5527C118.53 81.0847 118.369 83.1451 118.369 85.8855C93.0455 85.8855 67.722 85.8855 41.6311 85.8855C41.6311 75.3549 45.1845 66.4355 52.5049 58.8564C52.7159 58.6293 52.927 58.4022 53.1445 58.1683C54.8263 56.4025 56.7312 54.9801 58.7185 53.5748C58.9868 53.3822 59.2551 53.1895 59.5316 52.9911C72.5471 44.1492 90.8523 45.6167 103.103 54.9475Z" fill="#D8B94B"/>
<path d="M144.369 16.1573C145.42 16.959 146.376 17.7943 147.262 18.7787C147.411 18.9337 147.56 19.0887 147.714 19.2483C150.54 22.3098 151.833 26.3112 151.72 30.4413C151.278 34.8389 149.596 39.0337 146.33 42.0796C141.713 45.8224 136.907 46.5243 131.107 46.1185C129.991 45.9338 129.031 45.6459 128 45.1864C127.793 45.1071 127.587 45.0278 127.374 44.9461C123.517 43.2912 120.574 39.5442 118.99 35.7617C117.44 31.6316 117.518 26.8592 119.301 22.8175C121.389 18.7615 124.579 15.7217 128.874 14.0991C129.616 13.8695 130.35 13.6678 131.107 13.4971C131.346 13.4415 131.584 13.3858 131.83 13.3284C136.438 12.5403 140.521 13.558 144.369 16.1573Z" fill="#D8B94B"/>
<path d="M4.63617 107.325C4.90088 107.325 5.1656 107.324 5.43834 107.323C6.32778 107.321 7.2168 107.323 8.10623 107.326C8.74933 107.325 9.39244 107.324 10.0355 107.323C11.8046 107.321 13.5736 107.323 15.3427 107.325C17.2498 107.327 19.1569 107.325 21.064 107.324C24.5846 107.323 28.1052 107.324 31.6258 107.326C34.8779 107.328 38.13 107.329 41.3821 107.329C41.5977 107.329 41.8133 107.329 42.0355 107.329C42.9107 107.329 43.786 107.329 44.6613 107.329C52.8735 107.328 61.0856 107.331 69.2978 107.335C76.5962 107.339 83.8946 107.34 91.193 107.339C91.6617 107.339 92.1303 107.339 92.599 107.339C92.8307 107.339 93.0624 107.339 93.3011 107.339C94.4674 107.339 95.6337 107.339 96.8 107.339C97.1451 107.339 97.1451 107.339 97.4972 107.339C103.593 107.338 109.689 107.339 115.786 107.341C116.002 107.341 116.219 107.341 116.443 107.341C116.659 107.341 116.875 107.341 117.098 107.341C117.314 107.342 117.53 107.342 117.753 107.342C118.188 107.342 118.623 107.342 119.058 107.342C122.093 107.343 125.128 107.343 128.163 107.343C132.074 107.343 135.984 107.344 139.895 107.347C141.781 107.348 143.668 107.349 145.554 107.348C147.28 107.347 149.005 107.348 150.73 107.351C151.356 107.351 151.981 107.351 152.607 107.351C153.455 107.35 154.302 107.351 155.15 107.353C155.518 107.352 155.518 107.352 155.893 107.351C157.294 107.356 158.209 107.418 159.32 107.739C159.793 108.088 159.704 108.384 159.631 108.768C159.321 108.962 159.321 108.962 158.7 109.111C157.821 109.145 157.01 109.157 156.131 109.155C155.865 109.155 155.598 109.156 155.324 109.156C154.424 109.158 153.523 109.157 152.623 109.156C151.974 109.157 151.325 109.157 150.676 109.158C148.886 109.16 147.097 109.16 145.308 109.159C143.38 109.159 141.453 109.16 139.525 109.162C135.747 109.164 131.968 109.165 128.19 109.165C125.12 109.164 122.051 109.165 118.981 109.166C118.54 109.166 118.1 109.166 117.659 109.166C117.331 109.166 117.331 109.166 116.996 109.166C116.777 109.166 116.558 109.166 116.332 109.166C116.113 109.166 115.893 109.167 115.667 109.167C109.492 109.168 103.318 109.169 97.1429 109.169C96.91 109.169 96.6771 109.169 96.4371 109.169C95.2565 109.168 94.076 109.168 92.8954 109.168C92.6609 109.168 92.4264 109.168 92.1849 109.168C91.7107 109.168 91.2365 109.168 90.7623 109.168C83.3828 109.167 76.0034 109.169 68.6239 109.173C60.3382 109.177 52.0525 109.179 43.7668 109.179C42.8838 109.179 42.0009 109.178 41.118 109.178C40.9006 109.178 40.6832 109.178 40.4592 109.178C37.1726 109.178 33.8861 109.18 30.5995 109.182C26.8632 109.184 23.127 109.185 19.3907 109.182C17.4829 109.181 15.5753 109.181 13.6675 109.184C11.923 109.186 10.1787 109.185 8.43421 109.183C7.80122 109.182 7.16822 109.183 6.53524 109.184C5.67833 109.186 4.82198 109.185 3.96509 109.182C3.71618 109.184 3.46728 109.185 3.21083 109.186C2.00121 109.179 1.47459 109.152 0.586155 108.839C0.046559 108.495 -0.146308 108.355 0.116318 107.968C1.57566 107.406 2.56843 107.313 4.63617 107.325Z" fill="#D8B94B"/>
<path d="M3.93354 119.135C4.19971 119.134 4.46588 119.134 4.74013 119.133C5.64003 119.131 6.53979 119.133 7.43969 119.134C8.08817 119.134 8.73665 119.133 9.38513 119.132C11.1734 119.131 12.9616 119.131 14.7498 119.133C16.6759 119.134 18.602 119.132 20.5281 119.131C24.0855 119.129 27.6428 119.129 31.2001 119.131C34.4863 119.132 37.7724 119.132 41.0586 119.131C41.2763 119.131 41.4941 119.131 41.7184 119.131C42.6022 119.131 43.486 119.131 44.3698 119.131C52.6658 119.13 60.9618 119.131 69.2577 119.133C76.6322 119.135 84.0066 119.135 91.3811 119.133C99.6611 119.131 107.941 119.13 116.221 119.131C117.104 119.131 117.986 119.131 118.868 119.131C119.085 119.132 119.303 119.132 119.527 119.132C122.811 119.132 126.095 119.132 129.379 119.13C133.113 119.129 136.847 119.13 140.581 119.132C142.487 119.133 144.393 119.133 146.3 119.132C148.043 119.131 149.786 119.131 151.53 119.134C152.162 119.134 152.795 119.134 153.427 119.133C154.284 119.132 155.14 119.133 155.996 119.135C156.369 119.133 156.369 119.133 156.749 119.132C157.749 119.137 158.484 119.161 159.376 119.38C159.845 119.626 159.845 119.626 160 120.126C159.845 120.645 159.845 120.645 159.376 120.963C158.287 121.333 157.291 121.307 155.996 121.299C155.729 121.3 155.462 121.301 155.188 121.302C154.288 121.304 153.389 121.301 152.489 121.299C151.84 121.3 151.191 121.301 150.542 121.302C148.754 121.304 146.966 121.302 145.178 121.3C143.251 121.299 141.325 121.3 139.398 121.302C135.841 121.304 132.283 121.303 128.726 121.301C125.44 121.299 122.154 121.298 118.868 121.299C118.65 121.299 118.433 121.299 118.208 121.299C117.324 121.299 116.44 121.299 115.557 121.299C107.261 121.3 98.9657 121.298 90.6703 121.294C83.2958 121.291 75.9213 121.29 68.5468 121.291C66.6584 121.292 64.77 121.292 62.8815 121.292C62.6491 121.292 62.4166 121.293 62.1771 121.293C56.0198 121.294 49.8625 121.293 43.7052 121.291C43.043 121.291 42.3807 121.291 41.7184 121.291C41.279 121.291 40.8397 121.29 40.4003 121.29C37.1157 121.289 33.8311 121.29 30.5465 121.29C26.8131 121.291 23.0798 121.29 19.3463 121.287C17.44 121.286 15.5336 121.285 13.6272 121.286C11.8844 121.287 10.1416 121.286 8.39873 121.284C7.76598 121.283 7.13322 121.283 6.50048 121.284C5.64476 121.285 4.78924 121.284 3.93354 121.282C3.68408 121.283 3.43463 121.284 3.17761 121.285C1.51846 121.276 1.51846 121.276 0.747902 121.022C0.35738 120.733 0.30967 120.549 0.317952 120.208C0.315549 120.109 0.313145 120.01 0.310669 119.908C0.698305 119.026 2.3411 119.128 3.93354 119.135Z" fill="#D8B94B"/>
<path d="M3.84481 130.63C4.24428 130.629 4.24428 130.629 4.65182 130.628C5.55035 130.626 6.44863 130.628 7.34717 130.63C7.99538 130.629 8.64359 130.628 9.29179 130.627C11.0778 130.624 12.8638 130.626 14.6499 130.627C16.5741 130.629 18.4984 130.627 20.4227 130.625C23.9761 130.623 27.5295 130.623 31.0829 130.625C34.3653 130.626 37.6477 130.626 40.9301 130.626C41.1476 130.626 41.3651 130.626 41.5893 130.626C42.4722 130.625 43.3552 130.625 44.2382 130.625C52.5253 130.623 60.8123 130.625 69.0993 130.628C76.4656 130.631 83.8318 130.63 91.1981 130.628C99.4697 130.625 107.741 130.623 116.013 130.625C116.894 130.625 117.776 130.625 118.657 130.626C118.874 130.626 119.091 130.626 119.315 130.626C122.596 130.626 125.876 130.626 129.157 130.624C132.887 130.623 136.616 130.623 140.346 130.626C142.25 130.628 144.154 130.628 146.058 130.626C147.799 130.625 149.54 130.626 151.282 130.629C151.914 130.629 152.545 130.629 153.177 130.628C154.032 130.626 154.887 130.628 155.742 130.63C155.991 130.629 156.239 130.628 156.495 130.626C157.593 130.633 158.225 130.661 159.119 130.968C159.759 131.393 159.77 131.635 159.587 132.143C159.119 132.453 159.119 132.453 158.345 132.719C157.44 132.775 156.652 132.796 155.747 132.791C155.482 132.792 155.216 132.793 154.942 132.794C154.045 132.796 153.149 132.794 152.252 132.792C151.605 132.792 150.958 132.793 150.311 132.794C148.529 132.797 146.746 132.796 144.964 132.794C143.043 132.793 141.123 132.795 139.202 132.796C135.656 132.799 132.11 132.798 128.563 132.797C125.287 132.795 122.011 132.795 118.736 132.796C118.518 132.796 118.301 132.796 118.078 132.796C117.196 132.796 116.315 132.796 115.434 132.796C107.163 132.798 98.8927 132.797 90.622 132.793C83.2704 132.791 75.9187 132.791 68.5671 132.794C60.3118 132.797 52.0565 132.798 43.8012 132.796C42.9216 132.796 42.0419 132.796 41.1622 132.796C40.9456 132.796 40.729 132.796 40.5059 132.796C37.2316 132.795 33.9574 132.796 30.6832 132.797C26.9611 132.799 23.239 132.798 19.5169 132.795C17.6165 132.794 15.7161 132.793 13.8157 132.795C12.0779 132.797 10.3402 132.796 8.6024 132.793C7.97185 132.792 7.34129 132.792 6.71074 132.794C5.85718 132.796 5.00399 132.794 4.15045 132.791C3.90251 132.792 3.65458 132.794 3.39914 132.795C2.30483 132.788 1.67637 132.762 0.788471 132.453C0.16384 132.047 0 131.777 0 131.279C1.00818 130.596 2.19809 130.621 3.84481 130.63Z" fill="#D8B94B"/>
<path d="M4.14774 141.215C4.4131 141.214 4.67847 141.214 4.95187 141.213C5.84714 141.212 6.74226 141.213 7.63753 141.213C8.28343 141.213 8.92932 141.212 9.57522 141.212C11.3549 141.21 13.1345 141.21 14.9141 141.211C16.8316 141.211 18.749 141.209 20.6664 141.208C24.4246 141.206 28.1828 141.206 31.9411 141.206C34.9946 141.206 38.0482 141.206 41.1017 141.205C41.5401 141.205 41.9785 141.205 42.4168 141.204C42.6344 141.204 42.852 141.204 43.0762 141.204C43.2942 141.204 43.5122 141.204 43.7368 141.204C43.9552 141.204 44.1735 141.204 44.3985 141.204C50.5417 141.203 56.6848 141.202 62.828 141.202C63.1755 141.202 63.1755 141.202 63.53 141.202C64.7044 141.202 65.8787 141.202 67.053 141.202C67.4029 141.203 67.4029 141.203 67.7598 141.203C68.2314 141.203 68.7031 141.203 69.1748 141.203C76.5151 141.203 83.8554 141.202 91.1957 141.198C99.4387 141.195 107.682 141.193 115.925 141.193C116.803 141.193 117.682 141.193 118.56 141.193C118.884 141.193 118.884 141.193 119.215 141.193C122.485 141.194 125.753 141.192 129.023 141.191C132.739 141.188 136.456 141.188 140.172 141.19C142.07 141.191 143.967 141.191 145.865 141.189C147.6 141.187 149.335 141.187 151.071 141.19C151.7 141.19 152.329 141.19 152.959 141.188C153.812 141.187 154.664 141.188 155.516 141.19C155.763 141.189 156.01 141.188 156.264 141.186C157.506 141.193 158.093 141.239 159.092 141.487C159.703 141.76 159.703 141.76 159.684 142.134C159.393 142.47 159.393 142.47 158.771 142.673C157.917 142.693 157.093 142.701 156.238 142.699C155.972 142.7 155.705 142.7 155.431 142.701C154.529 142.702 153.627 142.701 152.724 142.701C152.075 142.701 151.426 142.702 150.776 142.702C148.984 142.704 147.192 142.704 145.399 142.704C143.469 142.704 141.539 142.705 139.61 142.707C135.606 142.709 131.603 142.71 127.599 142.71C127.382 142.71 127.164 142.71 126.94 142.71C126.721 142.71 126.503 142.71 126.279 142.71C123.864 142.711 121.449 142.711 119.035 142.712C111.746 142.714 104.456 142.716 97.1671 142.716C96.9338 142.716 96.7005 142.716 96.4602 142.716C95.5148 142.716 94.5694 142.716 93.624 142.716C92.9124 142.716 92.2008 142.716 91.4892 142.716C91.2541 142.716 91.0189 142.716 90.7766 142.716C83.3864 142.716 75.9961 142.719 68.6058 142.722C60.3088 142.727 52.0118 142.729 43.7148 142.729C42.8307 142.729 41.9465 142.729 41.0624 142.729C40.7358 142.729 40.7358 142.729 40.4026 142.729C36.8939 142.729 33.3851 142.731 29.8763 142.733C26.352 142.736 22.8276 142.736 19.3032 142.734C17.3926 142.734 15.4821 142.734 13.5714 142.736C11.8243 142.738 10.0773 142.738 8.33017 142.736C7.69621 142.736 7.06224 142.736 6.4283 142.737C5.57007 142.739 4.7124 142.738 3.8542 142.736C3.48027 142.738 3.48027 142.738 3.09878 142.74C1.89343 142.734 1.35606 142.707 0.458203 142.435C-1.11117e-07 142.166 0 142.166 0 141.849C0.707438 141.185 2.22936 141.209 4.14774 141.215Z" fill="#D8B94B"/>
<path d="M3.77628 125.976C4.0423 125.976 4.30833 125.975 4.58241 125.975C5.4818 125.974 6.38105 125.975 7.28044 125.976C7.92856 125.975 8.57667 125.975 9.22478 125.974C11.012 125.973 12.7992 125.973 14.5864 125.974C16.5114 125.974 18.4364 125.973 20.3614 125.972C23.9168 125.971 27.472 125.971 31.0274 125.971C34.3117 125.971 37.5959 125.971 40.8802 125.971C41.3203 125.971 41.7603 125.971 42.2004 125.971C42.8634 125.971 43.5265 125.971 44.1896 125.97C50.3567 125.969 56.5237 125.969 62.6908 125.97C63.0397 125.97 63.0397 125.97 63.3957 125.97C65.2849 125.97 67.1741 125.97 69.0633 125.97C76.4336 125.971 83.8039 125.971 91.1741 125.969C99.4495 125.966 107.725 125.965 116 125.966C116.882 125.966 117.764 125.966 118.646 125.966C118.971 125.966 118.971 125.966 119.304 125.966C122.586 125.966 125.868 125.966 129.151 125.964C132.883 125.963 136.614 125.963 140.346 125.965C142.251 125.965 144.156 125.966 146.062 125.964C147.804 125.963 149.546 125.963 151.289 125.965C151.921 125.965 152.553 125.965 153.185 125.964C154.041 125.963 154.896 125.964 155.752 125.966C156.001 125.965 156.249 125.964 156.505 125.963C157.603 125.967 158.236 125.984 159.132 126.171C159.762 126.426 159.76 126.581 159.599 126.885C159.285 127.031 159.285 127.031 158.667 127.148C157.786 127.174 156.973 127.183 156.091 127.181C155.824 127.182 155.557 127.182 155.282 127.183C154.378 127.184 153.475 127.183 152.572 127.182C151.921 127.183 151.27 127.183 150.619 127.184C148.824 127.186 147.029 127.185 145.235 127.185C143.301 127.185 141.368 127.186 139.435 127.187C135.645 127.189 131.855 127.189 128.065 127.189C124.987 127.189 121.908 127.189 118.829 127.19C118.387 127.19 117.945 127.19 117.503 127.19C117.174 127.19 117.174 127.19 116.839 127.19C116.619 127.19 116.399 127.19 116.173 127.19C115.953 127.19 115.733 127.191 115.506 127.191C109.313 127.192 103.121 127.193 96.9281 127.192C96.6946 127.192 96.461 127.192 96.2203 127.192C95.0364 127.192 93.8524 127.192 92.6684 127.192C92.4333 127.192 92.1981 127.192 91.9559 127.192C91.4803 127.192 91.0048 127.192 90.5293 127.192C83.1277 127.191 75.7262 127.193 68.3247 127.195C60.0146 127.199 51.7046 127.2 43.3946 127.2C42.5092 127.2 41.6238 127.2 40.7384 127.2C40.5204 127.2 40.3024 127.2 40.0777 127.2C36.7812 127.2 33.4847 127.201 30.1881 127.202C26.4409 127.204 22.6938 127.204 18.9465 127.203C17.033 127.202 15.1196 127.202 13.2061 127.204C11.4568 127.205 9.70753 127.205 7.95816 127.203C7.32304 127.203 6.68792 127.203 6.05281 127.204C5.19377 127.206 4.3353 127.204 3.47628 127.203C3.22589 127.204 2.97549 127.205 2.7175 127.206C2.02659 127.203 2.02659 127.203 0.900342 127.148C0.176907 126.909 -0.0455769 126.794 0.00746949 126.48C0.708343 125.944 1.93176 125.972 3.77628 125.976Z" fill="#D8B94B"/>
<path d="M3.89706 100.213C4.29587 100.212 4.29587 100.212 4.70275 100.211C5.60164 100.21 6.5004 100.211 7.3993 100.212C8.04707 100.211 8.69483 100.211 9.34259 100.21C11.1289 100.207 12.9151 100.208 14.7013 100.208C16.6254 100.209 18.5494 100.207 20.4734 100.205C24.2451 100.202 28.0169 100.202 31.7887 100.202C34.8533 100.202 37.9178 100.202 40.9824 100.201C41.4223 100.201 41.8622 100.2 42.302 100.2C42.5204 100.2 42.7387 100.2 42.9637 100.2C43.1824 100.2 43.4012 100.2 43.6265 100.2C43.8456 100.2 44.0647 100.2 44.2904 100.2C50.4552 100.198 56.6199 100.197 62.7847 100.197C63.0172 100.197 63.2497 100.197 63.4893 100.197C64.668 100.197 65.8466 100.198 67.0253 100.198C67.2594 100.198 67.4935 100.198 67.7347 100.198C68.2081 100.198 68.6815 100.198 69.1549 100.198C76.5216 100.199 83.8883 100.197 91.255 100.192C99.5268 100.188 107.799 100.185 116.07 100.186C116.952 100.186 117.833 100.186 118.715 100.186C118.932 100.186 119.149 100.186 119.373 100.186C122.653 100.186 125.934 100.185 129.215 100.182C132.945 100.179 136.675 100.179 140.405 100.181C142.309 100.183 144.214 100.183 146.118 100.18C147.86 100.177 149.602 100.178 151.343 100.181C151.975 100.182 152.607 100.181 153.238 100.179C154.094 100.177 154.949 100.179 155.805 100.182C156.053 100.18 156.301 100.178 156.556 100.177C157.814 100.185 158.386 100.244 159.389 100.579C160 100.926 160 100.926 160 101.274C159.651 101.628 159.494 101.765 158.758 101.986C157.878 102.025 157.067 102.039 156.187 102.036C155.788 102.037 155.788 102.037 155.38 102.038C154.478 102.039 153.577 102.038 152.676 102.036C152.026 102.037 151.377 102.038 150.727 102.038C148.936 102.04 147.145 102.039 145.354 102.038C143.425 102.037 141.496 102.038 139.567 102.039C136.004 102.041 132.442 102.041 128.879 102.04C125.588 102.039 122.297 102.039 119.006 102.039C118.679 102.039 118.679 102.039 118.345 102.039C117.46 102.039 116.575 102.039 115.69 102.04C107.383 102.041 99.0752 102.04 90.7678 102.038C83.3823 102.036 75.9968 102.036 68.6113 102.038C60.3193 102.04 52.0273 102.041 43.7353 102.04C42.8518 102.039 41.9684 102.039 41.0849 102.039C40.8674 102.039 40.6498 102.039 40.4257 102.039C37.1363 102.039 33.8469 102.039 30.5575 102.04C26.8185 102.041 23.0794 102.041 19.3403 102.039C17.431 102.038 15.5217 102.037 13.6124 102.039C11.8668 102.04 10.1213 102.039 8.37579 102.037C7.74206 102.037 7.10832 102.037 6.47458 102.038C5.61753 102.039 4.76068 102.038 3.90364 102.036C3.65379 102.037 3.40394 102.038 3.14652 102.039C1.49644 102.032 1.49644 102.032 0.713921 101.813C0.180062 101.429 0.292973 101.094 0.401551 100.662C1.17691 100.105 2.54807 100.209 3.89706 100.213Z" fill="#D8B94B"/>
<path d="M4.14957 92.7252C4.54816 92.7243 4.54816 92.7243 4.95481 92.7234C5.85134 92.722 6.74772 92.7233 7.64424 92.7247C8.29103 92.7243 8.93782 92.7236 9.58461 92.7228C11.3667 92.7212 13.1488 92.722 14.9309 92.7232C16.851 92.7241 18.7711 92.7227 20.6911 92.7216C24.2367 92.72 27.7823 92.7201 31.3279 92.7212C34.6031 92.7222 37.8783 92.7225 41.1535 92.722C41.3706 92.722 41.5876 92.7219 41.8113 92.7219C42.6923 92.7218 43.5734 92.7217 44.4545 92.7215C52.7233 92.7203 60.9922 92.7214 69.2611 92.7235C76.6112 92.7254 83.9613 92.7253 91.3114 92.7234C99.5649 92.7212 107.818 92.7204 116.072 92.7216C116.951 92.7218 117.831 92.7219 118.71 92.722C119.035 92.722 119.035 92.722 119.367 92.7221C122.64 92.7225 125.914 92.722 129.187 92.721C132.909 92.7199 136.63 92.7202 140.351 92.7223C142.251 92.7234 144.151 92.7238 146.051 92.7225C147.789 92.7213 149.526 92.7219 151.263 92.724C151.894 92.7245 152.524 92.7242 153.155 92.7233C154.008 92.7221 154.861 92.7233 155.714 92.7252C155.962 92.7242 156.21 92.7233 156.465 92.7223C157.462 92.7267 158.195 92.7492 159.087 92.948C159.553 93.1725 159.554 93.1725 159.689 93.636C159.554 94.0996 159.553 94.0996 159.24 94.3241C158.252 94.6005 157.197 94.5516 156.053 94.5477C155.787 94.5483 155.52 94.549 155.246 94.5497C154.345 94.5514 153.445 94.5503 152.544 94.5492C151.895 94.5498 151.246 94.5506 150.597 94.5516C148.807 94.5538 147.017 94.5535 145.227 94.5527C143.299 94.5524 141.371 94.5543 139.443 94.5559C135.664 94.5587 131.885 94.5593 128.105 94.5591C125.035 94.5589 121.964 94.5594 118.894 94.5604C118.453 94.5605 118.012 94.5607 117.572 94.5608C117.243 94.5609 117.243 94.5609 116.909 94.561C116.69 94.5611 116.47 94.5612 116.245 94.5612C116.025 94.5613 115.806 94.5614 115.579 94.5615C109.403 94.5634 103.227 94.5645 97.0505 94.5639C96.8175 94.5638 96.5845 94.5638 96.3445 94.5638C95.1636 94.5637 93.9828 94.5636 92.8019 94.5634C92.5674 94.5634 92.3329 94.5634 92.0912 94.5634C91.6169 94.5633 91.1426 94.5632 90.6684 94.5632C83.287 94.5624 75.9057 94.5645 68.5244 94.5687C60.2367 94.5735 51.9489 94.576 43.6612 94.5754C42.778 94.5753 41.8949 94.5753 41.0118 94.5752C40.7943 94.5752 40.5768 94.5752 40.3528 94.5752C37.0654 94.575 33.7781 94.5766 30.4907 94.5791C26.7535 94.5819 23.0163 94.5823 19.2791 94.5798C17.3709 94.5786 15.4627 94.5785 13.5545 94.5812C11.8096 94.5837 10.0649 94.5831 8.31994 94.5801C7.6868 94.5795 7.05364 94.5801 6.42051 94.5819C5.56338 94.5841 4.70682 94.5824 3.84972 94.5795C3.60075 94.5811 3.35179 94.5828 3.09528 94.5844C1.88428 94.576 1.35474 94.5423 0.457827 94.1824C-1.48018e-07 93.8347 0 93.8347 0 93.487C0.793351 92.6831 2.32621 92.7183 4.14957 92.7252Z" fill="#D8B94B"/>
<path d="M36.0388 8.83684C36.1164 9.71062 36.1164 9.71062 36.0388 10.7009C35.3621 11.3841 34.946 11.6152 33.9864 11.7289C33.6853 11.7201 33.3842 11.7112 33.074 11.7021C32.7402 11.6963 32.4064 11.6905 32.0624 11.6845C31.715 11.6739 31.3676 11.6633 31.0096 11.6524C26.0548 11.5158 22.5766 12.3894 18.8143 15.7919C17.9039 16.7343 17.7087 17.1298 17.7087 18.4679C18.0614 18.4724 18.4142 18.477 18.7776 18.4816C20.0857 18.4996 21.3936 18.5236 22.7015 18.5494C23.2677 18.5598 23.8339 18.5685 24.4002 18.5755C25.2139 18.5859 26.0274 18.6022 26.841 18.6196C27.0944 18.6216 27.3478 18.6236 27.6089 18.6256C29.3775 18.6716 29.3775 18.6716 30.0476 19.1947C30.663 19.9906 30.5682 20.6017 30.4465 21.5747C29.9511 22.2422 29.6721 22.4774 28.8481 22.6306C28.5907 22.6341 28.3334 22.6375 28.0683 22.6411C27.776 22.6472 27.4837 22.6534 27.1826 22.6597C26.7107 22.6627 26.7107 22.6627 26.2293 22.6657C25.7451 22.6741 25.7451 22.6741 25.2512 22.6826C24.2192 22.6995 23.1873 22.71 22.1553 22.7203C21.456 22.7306 20.7568 22.7414 20.0576 22.7525C18.3426 22.7789 16.6276 22.8001 14.9126 22.8174C14.8437 23.2699 14.7799 23.7231 14.7184 24.1766C14.6823 24.4289 14.6463 24.6813 14.6092 24.9412C14.6068 25.1631 14.6044 25.3849 14.6019 25.6135C15.5127 26.5243 16.4774 26.3274 17.6978 26.3308C18.2012 26.3386 18.7046 26.3465 19.2081 26.3544C20.003 26.3634 20.798 26.3708 21.593 26.3767C22.3594 26.3834 23.1256 26.3956 23.8919 26.4084C24.1298 26.4085 24.3677 26.4085 24.6128 26.4085C26.2432 26.439 26.2432 26.439 27.0334 26.951C27.5712 27.8754 27.2815 28.6607 27.0291 29.6524C25.9027 30.4033 25.3516 30.356 24.0109 30.3696C23.5948 30.3774 23.1787 30.3853 22.7627 30.3933C22.1089 30.4022 21.4551 30.4097 20.8013 30.4155C20.1688 30.4222 19.5365 30.4345 18.9041 30.4473C18.337 30.4535 18.337 30.4535 17.7585 30.4599C16.7059 30.5934 16.2602 30.7521 15.5339 31.5164C15.363 32.6913 15.3189 33.3772 16.0002 34.3721C17.0969 35.1657 18.1095 35.1045 19.4126 35.0887C19.678 35.0904 19.9433 35.0922 20.2167 35.0939C20.7921 35.0968 21.3674 35.0969 21.9428 35.0944C22.8528 35.0904 23.7626 35.0939 24.6727 35.0993C26.2756 35.1076 27.8784 35.1094 29.4813 35.1089C32.0482 35.1083 34.615 35.1126 37.1818 35.1262C38.0794 35.1293 38.9768 35.1266 39.8743 35.1235C40.4231 35.1254 40.9719 35.1276 41.5206 35.13C41.771 35.1276 42.0213 35.1252 42.2793 35.1227C43.9543 35.138 43.9543 35.138 44.7423 35.6559C45.0485 36.1766 45.0485 36.1766 45.0873 37.1669C44.6098 38.7851 43.7475 39.6686 42.563 40.8368C42.3836 41.0231 42.2042 41.2093 42.0194 41.4012C38.625 44.6711 34.0213 46.1004 29.398 46.2543C24.3217 46.1188 19.8587 44.2153 16.1747 40.7397C13.8389 38.2057 12.1435 35.4493 11.1844 32.1378C11.0799 31.811 11.0799 31.811 10.9732 31.4776C9.71994 26.9451 10.5474 21.7205 12.6407 17.5747C15.4368 12.9006 19.942 9.42926 25.165 7.9048C28.7932 7.25198 32.6796 7.15726 36.0388 8.83684Z" fill="#D8B94B"/>
<path d="M136.242 75.2018C136.479 75.2001 136.717 75.1985 136.962 75.1968C137.748 75.1927 138.533 75.1954 139.319 75.1986C139.865 75.198 140.411 75.1971 140.957 75.1959C142.102 75.1945 143.246 75.1965 144.391 75.2009C145.858 75.2062 147.325 75.2031 148.792 75.1975C149.92 75.1942 151.048 75.1952 152.175 75.1977C152.716 75.1983 153.257 75.1975 153.798 75.1953C154.555 75.193 155.311 75.1966 156.067 75.2018C156.403 75.199 156.403 75.199 156.745 75.1961C158.02 75.2123 158.761 75.3543 159.689 76.2544C159.504 77.9226 159.504 77.9226 159.046 78.6389C158.126 79.2711 157.18 79.1802 156.102 79.1711C155.864 79.1728 155.626 79.1744 155.381 79.1761C154.594 79.1802 153.807 79.1775 153.019 79.1743C152.473 79.175 151.926 79.1759 151.379 79.177C150.233 79.1784 149.087 79.1764 147.941 79.172C146.471 79.1667 145.001 79.1698 143.531 79.1754C142.402 79.1787 141.273 79.1777 140.144 79.1753C139.602 79.1746 139.06 79.1754 138.518 79.1776C137.761 79.1799 137.004 79.1763 136.247 79.1711C136.022 79.173 135.797 79.1749 135.566 79.1769C134.668 79.1654 134.05 79.1517 133.298 78.6352C132.783 77.8213 132.854 77.1912 132.971 76.2544C133.75 75.023 134.927 75.1907 136.242 75.2018Z" fill="#D8B94B"/>
<path d="M138.817 0.323065C139.027 0.320933 139.237 0.3188 139.454 0.316603C140.148 0.310929 140.841 0.31212 141.534 0.313887C142.017 0.31247 142.5 0.310821 142.983 0.308952C143.994 0.306178 145.005 0.30693 146.016 0.310019C147.312 0.31359 148.607 0.307306 149.902 0.298239C150.899 0.292538 151.896 0.292624 152.893 0.294398C153.371 0.294445 153.848 0.292565 154.326 0.288715C154.994 0.28409 155.661 0.287394 156.329 0.292725C156.709 0.292777 157.089 0.292828 157.48 0.292881C158.63 0.478135 159.012 0.755643 159.689 1.69131C159.644 2.84036 159.578 3.35595 158.757 4.17675C157.84 4.25774 157.84 4.25774 156.648 4.26208C156.432 4.26367 156.215 4.26526 155.991 4.26689C155.273 4.27122 154.555 4.27091 153.836 4.2702C153.338 4.2714 152.84 4.27275 152.341 4.27423C151.296 4.27655 150.25 4.27646 149.205 4.27482C147.864 4.27302 146.523 4.27828 145.182 4.28549C144.153 4.29007 143.123 4.29034 142.094 4.28937C141.599 4.28953 141.105 4.29117 140.611 4.29429C139.92 4.29811 139.229 4.29603 138.538 4.29242C138.144 4.29262 137.751 4.29281 137.346 4.29301C136.388 4.17675 136.388 4.17675 135.797 3.76175C135.257 2.94092 135.317 2.33394 135.456 1.38063C136.479 0.319048 137.388 0.329378 138.817 0.323065Z" fill="#D8B94B"/>
<path d="M3.61225 75.237C3.92383 75.2346 3.92383 75.2346 4.24172 75.2322C4.92816 75.2279 5.61451 75.2282 6.30096 75.2289C6.77802 75.2277 7.25507 75.2264 7.73213 75.2249C8.73187 75.2226 9.73158 75.2226 10.7313 75.2243C12.0133 75.2261 13.295 75.2208 14.577 75.2136C15.562 75.209 16.5471 75.2088 17.5321 75.2097C18.0048 75.2096 18.4775 75.2079 18.9502 75.2048C19.6107 75.201 20.2709 75.2031 20.9314 75.2067C21.4953 75.2064 21.4953 75.2064 22.0706 75.2061C22.9903 75.3224 22.9903 75.3224 23.5777 75.7373C24.1175 76.5472 24.0405 77.1731 23.9223 78.1185C23.5774 78.6349 23.5774 78.6349 22.9903 79.0505C22.0727 79.171 22.0727 79.171 20.9364 79.176C20.6255 79.1792 20.6255 79.1792 20.3084 79.1825C19.6234 79.1882 18.9386 79.187 18.2536 79.1852C17.7773 79.1866 17.301 79.1883 16.8247 79.1902C15.8262 79.1929 14.8279 79.1922 13.8294 79.1891C12.5502 79.1855 11.2714 79.1918 9.99223 79.2009C9.00847 79.2066 8.02477 79.2065 7.041 79.2047C6.56944 79.2047 6.09787 79.2065 5.62632 79.2104C4.96655 79.215 4.30727 79.2117 3.64752 79.2064C3.27226 79.2063 2.89701 79.2063 2.51039 79.2062C1.36663 79.0201 0.986588 78.7366 0.310669 77.8078C0.330086 76.8369 0.330086 76.8369 0.621349 75.9437C1.74703 75.1933 2.27221 75.2421 3.61225 75.237Z" fill="#D8B94B"/>
<path d="M101.903 9.76892C102.108 9.76892 102.313 9.76892 102.524 9.76892C102.618 10.0837 102.713 10.3985 102.81 10.7228C102.941 11.1428 103.072 11.5627 103.204 11.9825C103.296 12.2925 103.296 12.2925 103.389 12.6087C103.946 14.3563 104.724 15.6439 106.25 16.7362C107.614 17.3787 108.785 17.7211 110.291 17.8466C110.291 18.1542 110.291 18.4617 110.291 18.7786C110.077 18.8171 109.863 18.8555 109.642 18.8951C107.257 19.4185 105.63 20.2829 104.078 22.1961C103.208 23.7589 102.712 25.386 102.524 27.167C102.319 27.167 102.114 27.167 101.903 27.167C101.876 26.9491 101.849 26.7313 101.822 26.5068C101.455 24.0316 100.802 22.2832 98.9709 20.5456C97.3667 19.4892 96.0595 18.971 94.136 18.7786C94.136 18.5736 94.136 18.3685 94.136 18.1573C94.3314 18.108 94.5269 18.0588 94.7282 18.008C96.8431 17.4315 98.9107 16.8596 100.205 14.9789C101.101 13.2951 101.571 11.6398 101.903 9.76892Z" fill="#D8B94B"/>
<path d="M42.2137 16.1378C42.4928 16.129 42.7719 16.1202 43.0595 16.1111C44.4322 16.1071 45.1392 16.1318 46.2695 16.9607C46.9259 17.8648 47.4422 18.741 47.9224 19.7495C48.0778 20.0707 48.2332 20.3919 48.3933 20.7228C49.1865 22.485 49.1554 24.0008 49.1651 25.9048C49.1715 26.2162 49.1779 26.5276 49.1845 26.8484C49.1869 27.2986 49.1869 27.2986 49.1894 27.758C49.1938 28.1688 49.1938 28.1688 49.1982 28.588C49.0643 29.4994 48.7875 29.9227 48.1554 30.5844C47.3787 30.7398 47.3787 30.7398 46.602 30.5844C45.9722 30.0239 45.6985 29.567 45.592 28.7264C45.5544 27.7153 45.5512 26.7066 45.5608 25.6949C45.5241 23.7658 45.06 22.4429 43.8059 20.9534C42.6934 20.3971 41.3572 20.5685 40.1287 20.5408C39.1457 20.332 39.1457 20.332 38.3945 19.5917C37.903 18.7786 37.903 18.7786 37.9224 17.9631C38.7432 15.8838 40.2432 16.1322 42.2137 16.1378Z" fill="#D8B94B"/>
<path d="M4.54248 0.313777C4.83356 0.312148 5.12464 0.31052 5.42454 0.308842C6.03952 0.306848 6.65452 0.307261 7.2695 0.309908C8.20921 0.312551 9.14833 0.303618 10.088 0.293752C10.6861 0.293252 11.2842 0.293431 11.8823 0.294359C12.1626 0.290869 12.4429 0.287379 12.7317 0.283783C14.0683 0.298577 14.7329 0.331076 15.8787 1.07948C16.0725 1.28135 16.2663 1.48322 16.466 1.6912C16.3689 2.58441 16.3689 2.58441 16.1553 3.55528C15.1831 4.20347 14.956 4.25546 13.8489 4.26197C13.4337 4.26641 13.4337 4.26641 13.0101 4.27095C12.712 4.27066 12.4139 4.27038 12.1068 4.27009C11.8 4.27142 11.4932 4.27275 11.1771 4.27412C10.5284 4.27591 9.87974 4.27606 9.23104 4.27471C8.23685 4.27373 7.24294 4.28102 6.24879 4.2889C5.61893 4.2896 4.98908 4.28982 4.35923 4.28951C3.91212 4.2938 3.91212 4.2938 3.45597 4.29818C3.17915 4.29624 2.90233 4.29431 2.61711 4.29231C2.25189 4.2926 2.25189 4.2926 1.87929 4.2929C1.07244 4.14554 0.799084 3.89441 0.310682 3.2446C0.17476 2.31256 0.17476 2.31256 0.310682 1.38052C1.42453 0.0836079 2.96814 0.308666 4.54248 0.313777Z" fill="#D8B94B"/>
<path d="M79.534 23.1281C79.7391 23.1281 79.9441 23.1281 80.1554 23.1281C80.2323 23.4934 80.3092 23.8586 80.3884 24.2349C80.8466 26.0206 81.4424 27.5321 83.0874 28.5262C84.01 28.947 84.7486 29.2207 85.7476 29.3417C85.0168 29.829 84.3823 30.1698 83.5923 30.5262C82.1452 31.255 81.3623 31.9845 80.8071 33.5493C80.5718 34.3179 80.3549 35.0874 80.1554 35.866C79.9503 35.866 79.7453 35.866 79.534 35.866C79.4571 35.4944 79.3802 35.1227 79.301 34.7398C78.8674 33.0355 78.1588 31.9097 76.7767 30.798C75.7961 30.2685 75.0442 30.0681 73.9418 29.9631C73.9418 29.758 73.9418 29.553 73.9418 29.3417C74.148 29.27 74.3543 29.1984 74.5668 29.1245C76.5305 28.3992 77.9921 27.7348 78.9903 25.7883C79.2484 24.9067 79.4071 24.0374 79.534 23.1281Z" fill="#D8B94B"/>
<path d="M122.408 55.1281C122.854 55.7982 123.247 56.4445 123.631 57.1476C124.468 58.6084 125.142 59.2207 126.757 59.7883C125.825 60.4097 125.825 60.4097 125.049 60.8175C123.504 61.8601 123.163 63.3241 122.718 65.0699C122.063 64.4142 121.965 64.1237 121.709 63.2641C121.195 61.8363 120.564 61.2436 119.301 60.4097C118.456 60.1408 118.456 60.1408 117.748 60.099C117.748 59.894 117.748 59.6889 117.748 59.4777C117.931 59.4392 118.115 59.4008 118.305 59.3612C119.784 58.975 120.649 58.6299 121.476 57.3029C121.872 56.5766 122.145 55.9172 122.408 55.1281Z" fill="#D8B94B"/>
<path d="M141.048 64.4486C141.961 64.934 141.961 64.934 142.602 65.6913C142.796 66.7593 142.796 66.7593 142.602 67.8661C141.842 68.9165 141.392 69.3478 140.116 69.6136C138.84 69.3478 138.391 68.9165 137.631 67.8661C137.435 66.6263 137.435 65.9967 138.116 64.934C139.171 64.258 139.817 64.2758 141.048 64.4486Z" fill="#D8B94B"/>
<path d="M59.0485 0.739792C60.103 1.12121 60.5692 1.38503 61.2039 2.31261C61.3786 3.39999 61.3786 3.39999 61.2039 4.48736C60.4044 5.40436 59.8934 5.68546 58.699 5.90484C57.7864 5.73008 57.7864 5.73008 57.0485 5.06989C56.4496 4.01022 56.3193 3.50931 56.5437 2.31261C57.3241 1.23383 57.6906 0.767505 59.0485 0.739792Z" fill="#D8B94B"/>
<path d="M30.7573 65.0699C30.9624 65.0699 31.1674 65.0699 31.3787 65.0699C31.4504 65.2385 31.5221 65.4071 31.5959 65.5808C32.2391 66.9918 32.695 67.8297 34.1748 68.4874C34.0723 68.7949 33.9697 69.1025 33.8641 69.4194C33.6206 69.5027 33.3771 69.586 33.1263 69.6718C32.022 70.1714 31.8296 70.8131 31.3787 71.9048C31.1736 71.9048 30.9686 71.9048 30.7573 71.9048C30.69 71.4723 30.69 71.4723 30.6214 71.0311C30.246 70.0118 30.246 70.0118 29.4721 69.7094C28.7655 69.4798 28.0631 69.2784 27.3398 69.1087C27.8046 68.1793 28.6014 68.0119 29.5146 67.5553C30.2709 66.9816 30.4215 66.7217 30.6602 65.7883C30.6923 65.5512 30.7243 65.3142 30.7573 65.0699Z" fill="#D8B94B"/>
<path d="M104.699 35.866C104.904 35.866 105.109 35.866 105.32 35.866C105.442 36.1543 105.564 36.4427 105.689 36.7398C106.292 37.8001 106.728 38.1377 107.806 38.6621C107.569 38.8864 107.332 39.1107 107.087 39.3417C106.239 40.1656 106.239 40.1656 105.728 41.0893C105.594 41.3136 105.459 41.5378 105.32 41.7689C105.115 41.7689 104.91 41.7689 104.699 41.7689C104.571 41.5318 104.443 41.2947 104.311 41.0505C103.647 40.0313 103.007 39.7497 101.903 39.2835C101.903 39.0784 101.903 38.8734 101.903 38.6621C102.198 38.5211 102.492 38.3802 102.796 38.2349C103.768 37.7915 103.768 37.7915 104.388 37.1087C104.588 36.466 104.588 36.466 104.699 35.866Z" fill="#D8B94B"/>
<path d="M11.8059 50.7786C11.9725 51.0093 12.1391 51.24 12.3107 51.4777C13.096 52.3869 13.8931 52.9491 14.9127 53.5747C14.6756 53.7413 14.4385 53.9079 14.1942 54.0796C13.2882 54.8802 12.9024 55.5812 12.4272 56.6815C12.2222 56.6815 12.0171 56.6815 11.8059 56.6815C11.6201 56.3868 11.4342 56.092 11.2428 55.7883C10.5307 54.771 10.1774 54.5204 9.00977 54.1961C9.00977 53.9911 9.00977 53.786 9.00977 53.5747C9.29812 53.3889 9.58646 53.2031 9.88355 53.0116C10.877 52.3299 11.2757 51.839 11.8059 50.7786Z" fill="#D8B94B"/>
<path d="M114.175 47.2058C114.951 47.3612 114.951 47.3612 115.689 47.8466C116.194 48.6039 116.194 48.6039 116.175 49.7301C115.883 50.7786 115.883 50.7786 114.951 51.4C114.019 51.5165 114.019 51.5165 113.087 51.4C112.368 50.7527 112.186 50.3299 112.019 49.3806C112.246 48.0863 112.892 47.4624 114.175 47.2058Z" fill="#D8B94B"/>
<path d="M63.068 12.2543C63.2922 12.4914 63.5165 12.7285 63.7476 12.9728C64.5275 13.7181 65.2328 14.2284 66.1748 14.7398C65.9377 14.9128 65.7006 15.0858 65.4563 15.2641C64.6334 15.9722 64.1917 16.584 63.6893 17.5359C62.5395 17.1526 62.0526 16.5206 61.2039 15.6718C60.8963 15.5693 60.5887 15.4668 60.2719 15.3611C60.6658 14.1794 61.0935 14.1176 62.1359 13.4971C62.69 12.8541 62.69 12.8541 63.068 12.2543Z" fill="#D8B94B"/>
<path d="M59.6505 38.9728C59.8747 39.2099 60.099 39.447 60.3301 39.6913C61.1539 40.5399 61.1539 40.5399 62.0777 41.0505C62.4141 41.2523 62.4141 41.2523 62.7573 41.4582C62.7573 41.6633 62.7573 41.8683 62.7573 42.0796C62.5266 42.2142 62.2959 42.3487 62.0582 42.4874C61.1194 43.0635 60.6059 43.6815 59.9612 44.565C59.7305 44.2703 59.4998 43.9755 59.2621 43.6718C58.6319 42.9106 58.1102 42.4297 57.165 42.0796C57.165 41.8746 57.165 41.6695 57.165 41.4582C57.4085 41.439 57.652 41.4198 57.9029 41.4C58.172 41.3167 58.4412 41.2334 58.7184 41.1476C59.13 40.4034 59.13 40.4034 59.3398 39.5942C59.4423 39.3891 59.5448 39.1841 59.6505 38.9728Z" fill="#D8B94B"/>
<path d="M146.33 52.9534C146.465 53.1392 146.599 53.325 146.738 53.5165C147.496 54.4995 147.931 55.0405 149.126 55.4388C149.126 55.6439 149.126 55.8489 149.126 56.0602C148.889 56.1947 148.652 56.3293 148.408 56.4679C147.474 57.0545 147.138 57.5767 146.641 58.5456C146.019 58.2349 146.019 58.2349 145.786 57.6524C145.236 56.7173 144.508 56.4835 143.534 56.0602C143.765 55.8936 143.995 55.727 144.233 55.5553C145.142 54.77 145.704 53.9729 146.33 52.9534Z" fill="#D8B94B"/>
<path d="M7.14567 62.2737C7.76703 63.2058 7.76703 63.2058 7.70878 63.9825C7.43298 64.8311 7.26089 65.1914 6.52431 65.6912C5.63739 65.8242 5.17443 65.8175 4.40781 65.3417C3.86739 64.4884 3.91532 63.8835 4.03888 62.8951C4.76721 61.5669 5.84059 61.9415 7.14567 62.2737Z" fill="#D8B94B"/>
<path d="M81.5535 4.85624C82.3302 5.10867 82.3302 5.10867 83.2622 5.73003C83.3982 6.64265 83.3982 6.64265 83.2622 7.5941C82.7574 8.19605 82.7574 8.19605 82.0195 8.52614C81.0487 8.48731 81.0487 8.48731 80.1555 8.21546C79.5341 7.28343 79.5341 7.28343 79.5923 6.50673C79.9689 5.348 80.2652 4.75962 81.5535 4.85624Z" fill="#D8B94B"/>
<path d="M38.2331 54.8756C39.1457 55.1281 39.1457 55.1281 39.767 55.7494C39.8641 56.8368 39.8641 56.8368 39.767 57.9242C38.7628 58.5937 38.4462 58.6911 37.2816 58.5456C36.7185 58.196 36.7185 58.196 36.3496 57.6135C36.2262 56.6267 36.1944 56.0166 36.6991 55.1475C37.2816 54.8174 37.2816 54.8174 38.2331 54.8756Z" fill="#D8B94B"/>
<path d="M40.5437 25.5165C41.082 25.5646 41.082 25.5646 41.6311 25.6136C42.2525 26.5456 42.2525 26.5456 42.1554 27.6718C41.9418 28.7204 41.9418 28.7204 41.6311 29.0311C40.5631 29.0893 40.5631 29.0893 39.4564 29.0311C38.835 28.4097 38.835 28.4097 38.7573 27.3223C38.8633 25.8389 39.0645 25.6486 40.5437 25.5165Z" fill="#D8B94B"/>
<path d="M5.88348 12.5068C6.83494 12.565 6.83494 12.565 7.4563 13.1864C7.53397 13.9631 7.53397 13.9631 7.4563 14.7398C6.83494 15.3611 6.83494 15.3611 6.07766 15.4582C5.28154 15.3611 5.28154 15.3611 4.69902 14.9922C4.3495 14.4291 4.3495 14.4291 4.42717 13.6136C4.75392 12.5789 4.75392 12.5789 5.88348 12.5068Z" fill="#D8B94B"/>
<path d="M5.5922 39.2835C7.00751 39.4561 7.00751 39.4561 7.45627 39.9048C7.51453 40.8175 7.51453 40.8175 7.45627 41.7689C7.25122 41.974 7.04618 42.179 6.83491 42.3903C5.81056 42.2878 5.39874 42.1968 4.66016 41.4582C4.76259 40.4339 4.85361 40.0221 5.5922 39.2835Z" fill="#D8B94B"/>
<path d="M59.4757 30.5262C60.2718 30.5845 60.2718 30.5845 60.8932 31.2058C60.7907 32.2302 60.6997 32.642 59.9611 33.3806C59.0494 33.2666 58.7605 33.112 58.097 32.4485C58.3206 30.615 58.3206 30.615 59.4757 30.5262Z" fill="#D8B94B"/>
<path d="M119.612 4.48737C120.427 4.60387 120.427 4.60387 121.165 4.79805C121.359 5.53591 121.359 5.53591 121.476 6.35144C121.271 6.55649 121.066 6.76154 120.854 6.9728C120.039 6.8563 120.039 6.8563 119.301 6.66212C119.107 5.92426 119.107 5.92426 118.99 5.10872C119.195 4.90368 119.4 4.69863 119.612 4.48737Z" fill="#D8B94B"/>
<path d="M101.903 9.76892C102.108 9.76892 102.313 9.76892 102.524 9.76892C102.832 10.9992 103.139 12.2295 103.456 13.4971C102.944 13.4971 102.431 13.4971 101.903 13.4971C101.8 13.7021 101.698 13.9072 101.592 14.1184C101.387 14.1184 101.182 14.1184 100.971 14.1184C101.278 12.6831 101.586 11.2478 101.903 9.76892Z" fill="#D8B94B"/>
<path d="M92.2913 0.739792C92.7431 0.749404 92.7431 0.749404 93.2039 0.759209C93.3981 1.49707 93.3981 1.49707 93.5146 2.31261C93.3096 2.51766 93.1045 2.7227 92.8933 2.93397C92.0777 2.81746 92.0777 2.81746 91.3399 2.62329C91.2211 2.10876 91.118 1.59041 91.0292 1.06989C91.3399 0.759209 91.3399 0.759209 92.2913 0.739792Z" fill="#D8B94B"/>
<path d="M41.6311 1.06993C41.6444 1.58756 41.6438 2.10568 41.6311 2.62333C41.3204 2.93401 41.3204 2.93401 40.5437 2.97284C39.767 2.93401 39.767 2.93401 39.4564 2.62333C39.4437 2.10568 39.4431 1.58756 39.4564 1.06993C40.2848 0.655696 40.7509 0.861459 41.6311 1.06993Z" fill="#D8B94B"/>
<path d="M154.097 61.9631C154.913 62.0796 154.913 62.0796 155.65 62.2738C155.664 62.7914 155.663 63.3095 155.65 63.8272C155.34 64.1378 155.34 64.1378 154.544 64.1573C154.169 64.1477 154.169 64.1477 153.786 64.1378C153.592 63.4 153.592 63.4 153.476 62.5844C153.681 62.3794 153.886 62.1744 154.097 61.9631Z" fill="#D8B94B"/>
<path d="M125.068 75.6136C125.443 75.6232 125.443 75.6232 125.825 75.633C126.019 76.3709 126.019 76.3709 126.136 77.1864C125.931 77.3915 125.726 77.5965 125.515 77.8078C124.854 77.6913 124.854 77.6913 124.272 77.4971C124.153 76.9826 124.05 76.4642 123.961 75.9437C124.272 75.633 124.272 75.633 125.068 75.6136Z" fill="#D8B94B"/>
<path d="M148.68 9.7495C149.054 9.75911 149.054 9.75911 149.437 9.76891C149.631 10.5068 149.631 10.5068 149.748 11.3223C149.542 11.5274 149.337 11.7324 149.126 11.9437C148.466 11.8272 148.466 11.8272 147.883 11.633C147.765 11.1185 147.662 10.6001 147.573 10.0796C147.883 9.76891 147.883 9.76891 148.68 9.7495Z" fill="#D8B94B"/>
<path d="M157.204 17.2252C157.724 17.3141 158.243 17.4172 158.757 17.5359C158.757 18.0485 158.757 18.5611 158.757 19.0893C158.243 19.208 157.724 19.3111 157.204 19.4C156.893 19.0893 156.893 19.0893 156.854 18.3126C156.893 17.5359 156.893 17.5359 157.204 17.2252Z" fill="#D8B94B"/>
<path d="M1.2427 29.0311C1.6528 29.0311 2.0629 29.0311 2.48542 29.0311C2.58795 29.6462 2.69047 30.2613 2.7961 30.8951C2.28157 31.0139 1.76322 31.1169 1.2427 31.2058C0.932023 30.8951 0.932023 30.8951 0.893188 30.1184C0.932023 29.3417 0.932023 29.3417 1.2427 29.0311Z" fill="#D8B94B"/>
<path d="M45.3593 49.5359C46.1748 49.6524 46.1748 49.6524 46.9127 49.8466C46.8101 50.3592 46.7076 50.8718 46.602 51.4C46.0894 51.4 45.5768 51.4 45.0486 51.4C44.8544 50.8175 44.8544 50.8175 44.7379 50.1573C44.943 49.9522 45.148 49.7472 45.3593 49.5359Z" fill="#D8B94B"/>
<path d="M104.699 2.62329C105.212 2.72582 105.724 2.82834 106.252 2.93397C106.15 3.44659 106.047 3.95921 105.942 4.48737C105.429 4.38484 104.916 4.28232 104.388 4.17669C104.491 3.66407 104.593 3.15145 104.699 2.62329Z" fill="#D8B94B"/>
<path d="M59.5145 30.565C59.8894 30.5746 59.8894 30.5746 60.2718 30.5845C60.0668 30.719 59.8617 30.8536 59.6504 30.9922C59.4454 31.1652 59.2403 31.3382 59.0291 31.5165C59.0291 31.8241 59.0291 32.1316 59.0291 32.4485C59.3367 32.5511 59.6442 32.6536 59.9611 32.7592C59.9611 32.9643 59.9611 33.1693 59.9611 33.3806C59.0703 33.2024 58.7614 33.1129 58.097 32.4485C58.3232 30.5941 58.3232 30.5941 59.5145 30.565Z" fill="#D8B94B"/>
<path d="M96.6214 18.1573C96.6214 18.3623 96.6214 18.5674 96.6214 18.7786C96.929 18.7786 97.2366 18.7786 97.5535 18.7786C97.5535 18.9837 97.5535 19.1887 97.5535 19.4C96.4257 19.1949 95.2979 18.9899 94.136 18.7786C94.136 18.5736 94.136 18.3685 94.136 18.1573C95.1572 17.9089 95.5994 17.8166 96.6214 18.1573Z" fill="#D8B94B"/>
<path d="M4.66025 62.2738C5.32045 62.3903 5.32045 62.3903 5.90297 62.5845C5.5954 62.7895 5.28782 62.9945 4.97093 63.2058C4.89319 64.1638 4.89319 64.1638 4.97093 65.0699C4.66336 64.9674 4.35579 64.8648 4.03889 64.7592C4.00006 63.866 4.00006 63.866 4.03889 62.8951C4.24394 62.6901 4.44899 62.485 4.66025 62.2738Z" fill="#D8B94B"/>
<path d="M108.427 17.8466C109.042 17.8466 109.657 17.8466 110.291 17.8466C110.291 18.1542 110.291 18.4617 110.291 18.7786C109.574 18.8812 108.856 18.9837 108.116 19.0893C108.219 18.6792 108.322 18.2691 108.427 17.8466Z" fill="#D8B94B"/>
<path d="M101.903 9.76892C102.108 9.76892 102.313 9.76892 102.524 9.76892C102.627 10.6916 102.729 11.6144 102.835 12.565C102.527 12.565 102.22 12.565 101.903 12.565C101.903 11.6423 101.903 10.7196 101.903 9.76892Z" fill="#D8B94B"/>
<path d="M145.709 56.3708C146.016 56.3708 146.324 56.3708 146.641 56.3708C146.743 56.986 146.846 57.6011 146.951 58.2349C146.644 58.2349 146.336 58.2349 146.019 58.2349C145.814 57.7223 145.609 57.2097 145.398 56.6815C145.501 56.579 145.603 56.4765 145.709 56.3708Z" fill="#D8B94B"/>
<path d="M80.466 33.0699C80.3635 33.9926 80.2609 34.9153 80.1553 35.866C79.9502 35.866 79.7452 35.866 79.5339 35.866C79.5339 35.0458 79.5339 34.2256 79.5339 33.3806C80.1553 33.0699 80.1553 33.0699 80.466 33.0699Z" fill="#D8B94B"/>
<path d="M146.33 52.9534C146.535 53.3635 146.74 53.7736 146.951 54.1961C146.439 54.6062 145.926 55.0163 145.398 55.4388C145.193 55.3363 144.988 55.2338 144.777 55.1281C144.918 55 145.059 54.8718 145.204 54.7398C145.727 54.1762 146.017 53.6515 146.33 52.9534Z" fill="#D8B94B"/>
<path d="M76.4272 29.3418C76.3247 29.5468 76.2222 29.7519 76.1165 29.9631C75.3989 29.9631 74.6812 29.9631 73.9418 29.9631C73.9418 29.7581 73.9418 29.553 73.9418 29.3418C74.8902 29.0369 75.4788 29.0369 76.4272 29.3418Z" fill="#D8B94B"/>
</svg>
