<svg width="188" height="161" viewBox="0 0 188 161" fill="none" xmlns="http://www.w3.org/2000/svg">
<path d="M150.686 1.08913C150.981 1.1387 150.981 1.1387 151.281 1.18928C155.271 1.88071 159.358 2.79054 163.033 4.51898C163.328 4.64916 163.622 4.77894 163.917 4.90842C173.406 9.14537 181.099 16.5257 184.984 26.2414C186.874 31.2634 188.01 36.4542 188 41.8187C188 41.9812 187.999 42.1438 187.999 42.3112C187.978 48.3985 186.997 54.0295 185.213 59.854C185.169 60.0134 185.124 60.1728 185.079 60.337C181.869 71.618 174.734 81.6323 166.928 90.2082C166.516 90.6637 166.118 91.1269 165.72 91.5944C164.106 93.4452 162.332 95.1872 160.46 96.775C160.053 97.1318 159.679 97.5076 159.303 97.8968C158.473 98.74 157.568 99.4702 156.646 100.211C156.029 100.715 155.425 101.231 154.824 101.755C145.408 109.954 145.408 109.954 141.235 111.762C140.583 112.083 140.18 112.343 139.71 112.902C139.418 114.152 139.443 115.37 139.467 116.647C139.467 116.993 139.465 117.339 139.463 117.685C139.458 118.53 139.467 119.375 139.482 120.219C146.398 116.522 152.866 111.501 158.576 106.133C158.938 105.795 159.302 105.461 159.667 105.128C161.647 103.319 163.6 101.493 165.344 99.451C165.771 98.961 166.213 98.486 166.657 98.0113C166.816 97.8414 166.816 97.8414 166.978 97.6682C167.084 97.5545 167.19 97.4408 167.3 97.3237C168.257 96.2833 169.116 95.1761 169.941 94.0283C170.397 93.4183 170.699 93.0478 171.427 92.7904C171.951 92.7806 171.951 92.7806 172.365 93.0093C173.224 94.4553 172.31 96.7399 171.951 98.2541C171.915 98.4056 171.879 98.5572 171.843 98.7133C168.132 114.325 159.149 129.65 146.865 140.123C146.46 140.469 146.059 140.82 145.661 141.174C139.085 146.977 131.331 151.556 123.098 154.551C122.604 154.731 122.113 154.916 121.622 155.102C120.675 155.458 119.719 155.784 118.76 156.104C118.598 156.159 118.437 156.214 118.271 156.27C115.633 157.152 112.968 157.855 110.242 158.405C109.813 158.492 109.813 158.492 109.375 158.581C105.158 159.427 101.03 160.177 96.7228 160.234C96.5755 160.237 96.4282 160.239 96.2765 160.241C87.9848 160.367 87.9848 160.367 84.1467 159.777C83.9336 159.746 83.7204 159.716 83.5008 159.684C73.8726 158.294 64.2962 155.683 55.5646 151.317C54.4593 151.261 53.5515 151.381 52.492 151.688C52.1866 151.773 51.8811 151.858 51.5756 151.942C51.409 151.988 51.2424 152.035 51.0707 152.083C46.5181 153.344 41.9332 154.233 37.272 154.975C37.0627 155.01 36.8535 155.044 36.6378 155.079C33.9886 155.497 31.3158 155.477 28.6402 155.49C28.4595 155.491 28.2788 155.492 28.0926 155.494C25.0056 155.509 22.0147 155.255 18.9937 154.575C18.7381 154.518 18.7381 154.518 18.4774 154.459C12.0001 152.926 6.56083 149.398 3.03062 143.7C2.12591 142.184 1.55303 140.691 1.1442 138.969C1.04251 138.608 1.04251 138.608 0.938763 138.239C-1.18901 129.669 1.4276 120.451 5.48868 112.902C5.57652 112.737 5.66435 112.572 5.75485 112.402C7.28098 109.54 8.91193 106.726 10.9764 104.213C11.4132 104.279 11.4132 104.279 11.8911 104.442C12.1804 105.134 12.3821 105.778 12.577 106.5C12.7133 107.002 12.8501 107.503 12.9875 108.005C13.0828 108.354 13.1765 108.705 13.2683 109.055C13.6249 110.384 14.1115 111.632 14.635 112.902C14.7776 113.267 14.9193 113.632 15.0601 113.997C16.0141 116.448 17.0536 118.815 18.2935 121.134C18.4289 121.388 18.4289 121.388 18.567 121.647C21.8555 127.774 26.5451 135.477 32.4702 139.427C32.4702 139.578 32.4702 139.728 32.4702 139.884C21.655 141.254 21.655 141.254 18.2935 139.198C18.2935 139.349 18.2935 139.5 18.2935 139.655C18.4397 139.707 18.5859 139.759 18.7365 139.812C19.3199 140.063 19.8218 140.334 20.3657 140.656C29.1428 145.556 41.4302 142.17 50.516 139.778C51.6592 139.483 52.8121 139.228 53.964 138.969C53.9501 138.735 53.9363 138.5 53.922 138.258C53.8126 136.291 53.7295 134.326 53.6853 132.356C53.6811 132.177 53.6769 131.997 53.6726 131.813C53.6515 130.909 53.6325 130.005 53.6166 129.102C53.6134 125.784 53.6134 125.784 52.6635 122.663C52.0896 121.488 52.5907 120.383 52.9779 119.205C53.8305 116.979 55.297 115.369 57.4135 114.251C58.9521 113.639 60.5666 113.754 62.1956 113.817C62.2302 113.148 62.2302 113.148 62.1956 112.445C61.4819 111.731 60.7926 111.548 59.7947 111.459C57.2725 111.501 55.0027 112.968 53.278 114.703C53.1507 114.839 53.0233 114.975 52.8921 115.116C52.7931 115.215 52.6941 115.315 52.592 115.418C52.5166 115.418 52.4411 115.418 52.3634 115.418C52.3324 114.722 52.3098 114.027 52.2919 113.331C52.2776 113.038 52.2776 113.038 52.2629 112.738C52.2443 111.773 52.2489 111.073 52.8654 110.299C55.7902 107.574 58.621 107.303 62.4243 107.415C62.5197 106.758 62.5197 106.758 62.4243 106.043C61.5485 105.229 60.5486 105.241 59.4089 105.257C59.2359 105.258 59.0628 105.26 58.8846 105.262C56.7444 105.325 55.2329 106.103 53.5084 107.331C53.0493 107.643 53.0493 107.643 52.1347 108.101C52.1347 107.12 52.1347 106.139 52.1347 105.128C51.9178 105.147 51.7008 105.166 51.4773 105.185C49.3655 105.177 47.3247 103.853 45.7966 102.491C43.586 100.01 43.3017 95.3077 42.6249 92.1893C42.4062 91.1841 42.175 90.1837 41.9277 89.1853C41.3326 86.7798 40.9508 84.3407 40.5686 81.8937C40.4821 81.3564 40.4821 81.3564 40.3504 80.8712C39.6676 78.0453 40.421 74.9335 41.1592 72.2015C41.2164 71.9804 41.2735 71.7593 41.3325 71.5316C41.5413 70.7802 41.7557 70.0815 42.1259 69.3921C43.2313 67.2439 43.1394 65.1243 43.1167 62.7585C43.1098 62.018 43.1101 61.2778 43.1122 60.5372C43.1153 58.9661 43.1097 57.395 43.1028 55.8239C43.0947 54.0001 43.0904 52.1765 43.0955 50.3527C43.0956 49.6264 43.089 48.9003 43.082 48.174C43.0754 45.4148 43.2225 43.4928 45.1178 41.3614C46.3471 40.2208 47.855 39.4704 49.5436 39.4812C49.7477 39.4819 49.9518 39.4827 50.1621 39.4834C50.4807 39.4863 50.4807 39.4863 50.8057 39.4892C51.0207 39.4903 51.2357 39.4913 51.4572 39.4924C51.988 39.495 52.5186 39.4988 53.0493 39.5035C53.0387 39.3399 53.0281 39.1763 53.0172 39.0078C52.8953 35.642 54.1134 32.6098 56.322 30.0857C56.6755 29.7152 57.0327 29.3483 57.3938 28.9853C57.622 28.7452 57.622 28.7452 57.8547 28.5003C58.8865 27.4901 60.0036 26.8058 61.281 26.1557C61.5047 26.0411 61.5047 26.0411 61.733 25.9242C65.1452 24.2731 69.595 24.382 73.1515 25.5126C76.872 26.9442 79.5771 29.7393 81.3287 33.2726C82.0648 35.0791 82.4349 36.6922 82.4032 38.646C82.4009 38.855 82.3986 39.064 82.3962 39.2793C82.3429 41.6246 82.0348 43.6506 80.8598 45.7201C80.3701 46.6527 80.1496 47.2226 80.3739 48.2639C80.8865 49.6693 81.7546 50.8603 82.6033 52.0797C85.0104 55.5476 86.9183 59.3344 88.0843 63.3985C88.2677 63.9864 88.4866 64.5468 88.7216 65.1158C89.1769 66.225 89.5177 67.3447 89.8345 68.5001C89.9533 68.9247 90.0721 69.3492 90.1909 69.7738C90.2504 69.9878 90.3099 70.2019 90.3712 70.4225C90.594 71.2188 90.8236 72.013 91.0533 72.8073C91.6562 74.8964 92.2368 76.9915 92.8071 79.0898C92.8781 79.3489 92.9491 79.608 93.0223 79.875C93.0875 80.1164 93.1526 80.3577 93.2197 80.6064C93.2781 80.8213 93.3364 81.0362 93.3965 81.2577C93.5216 81.8051 93.5216 81.8051 93.5216 82.491C93.6484 82.425 93.7751 82.359 93.9057 82.291C94.0714 82.2061 94.237 82.1212 94.4077 82.0337C94.5722 81.9488 94.7366 81.8639 94.9061 81.7765C95.3509 81.5764 95.3509 81.5764 95.8082 81.5764C95.7097 81.0854 95.6093 80.5948 95.5081 80.1044C95.4524 79.8312 95.3967 79.558 95.3393 79.2764C95.1976 78.6396 95.0111 78.037 94.7935 77.4222C94.3404 76.0992 94.0841 74.7447 93.8218 73.3733C93.7703 73.1201 93.7189 72.867 93.6659 72.6061C93.2094 70.2445 93.1514 68.0957 93.6503 65.7419C93.6893 65.5517 93.7283 65.3615 93.7684 65.1655C94.9261 59.789 94.9261 59.789 96.0369 57.5674C96.0573 57.1218 96.0631 56.6755 96.062 56.2294C96.0622 55.9484 96.0623 55.6674 96.0625 55.3779C96.0621 55.2272 96.0618 55.0764 96.0615 54.9211C96.0607 54.1201 96.0666 53.3192 96.0713 52.5182C96.0768 51.5001 96.0804 50.4821 96.0769 49.4641C96.0742 48.6406 96.0783 47.8174 96.0866 46.9939C96.0886 46.6818 96.0881 46.3697 96.0851 46.0576C96.0667 43.9852 96.3049 42.5096 97.6375 40.8755C98.8124 39.7113 100.549 39.0462 102.211 39.0462C102.156 38.799 102.156 38.799 102.1 38.5469C101.436 34.9296 101.859 31.5488 103.868 28.4708C105.764 25.9557 108.146 23.873 111.286 23.1393C115.754 22.5539 119.146 23.3042 122.819 25.8993C124.984 27.5994 126.444 30.4139 127.056 33.0663C127.158 34.0095 127.167 34.9398 127.163 35.8879C127.164 36.0722 127.165 36.2566 127.165 36.4466C127.165 36.6239 127.165 36.8012 127.165 36.9838C127.164 37.224 127.164 37.224 127.164 37.469C127.134 37.9029 127.134 37.9029 126.906 38.5889C127.132 38.5936 127.358 38.5983 127.592 38.6032C128.772 38.7711 129.577 39.5393 130.335 40.4181C130.94 41.4408 131.098 42.1541 131.066 43.3362C131.064 43.7768 131.064 43.7768 131.062 44.2263C131.056 44.8373 131.041 45.4463 131.021 46.0573C131.026 48.4467 131.708 49.4617 133.308 51.165C133.737 51.7846 134.098 52.4294 134.451 53.0943C134.546 53.2686 134.64 53.443 134.737 53.6226C137.283 58.4064 139.263 63.5265 140.625 68.7716C140.696 69.036 140.768 69.3004 140.841 69.5728C141.034 70.2891 141.224 71.0063 141.412 71.7237C141.551 72.2431 141.693 72.7613 141.835 73.2795C142.341 75.1338 142.792 76.9546 143.049 78.8629C143.138 79.5023 143.254 80.1295 143.383 80.7618C143.421 80.9452 143.458 81.1285 143.497 81.3174C143.53 81.4783 143.563 81.6393 143.598 81.8051C144.109 84.3101 143.759 86.0366 142.368 88.1789C141.814 88.9093 141.274 89.2748 140.396 89.5794C139.662 89.6658 139.234 89.7054 138.596 89.3222C138.216 88.6893 138.25 88.2461 138.338 87.5215C138.653 86.9784 138.653 86.9784 139.024 86.6069C139.175 86.6069 139.326 86.6069 139.482 86.6069C139.406 86.305 139.331 86.0032 139.253 85.6922C138.951 85.7677 138.649 85.8431 138.338 85.9209C137.373 84.7686 137.19 84.142 137.21 82.6377C137.206 80.1502 136.631 78.9614 134.998 77.1588C134.414 76.4535 133.967 75.664 133.508 74.8739C133.419 74.7217 133.33 74.5696 133.238 74.4128C133.031 74.0577 132.826 73.7014 132.622 73.3448C133.414 77.4933 134.333 81.6063 135.285 85.7201C135.565 86.9284 135.832 88.1388 136.095 89.3507C136.444 90.9573 136.857 92.5446 137.293 94.1298C137.486 94.8419 137.652 95.4688 137.652 96.2105C137.454 96.1727 137.256 96.135 137.052 96.0961C134.972 95.8081 132.931 95.7306 131.021 96.6678C130.8 96.7715 130.578 96.8753 130.35 96.9822C129.829 97.3229 129.829 97.3229 129.678 97.9397C129.604 98.4989 129.604 98.4989 129.878 98.9543C130.043 98.8883 130.208 98.8223 130.378 98.7543C130.591 98.6694 130.803 98.5845 131.021 98.497C131.189 98.418 131.356 98.339 131.529 98.2577C133.033 97.7422 135.189 97.7399 136.652 98.4113C137.765 99.1033 138.516 99.9701 138.867 101.241C139.041 102.006 139.037 102.744 139.024 103.527C142.695 101.049 146.142 98.3615 149.543 95.5245C149.683 95.4072 149.824 95.29 149.969 95.1692C151.61 93.7968 153.223 92.3966 154.802 90.9513C154.917 90.8461 155.033 90.7409 155.152 90.6325C157.273 88.7 159.38 86.7564 161.245 84.5704C161.723 84.021 162.221 83.4939 162.719 82.9626C164.237 81.2955 165.583 79.5023 166.921 77.6892C167.037 77.5318 167.153 77.3743 167.273 77.2121C172.042 70.7022 176.73 63.013 177.667 54.8235C177.542 55.1441 177.542 55.1441 177.414 55.4711C175.348 60.556 171.877 65.7298 168.064 69.6862C167.837 69.7617 167.611 69.8372 167.378 69.9149C167.338 69.731 167.298 69.5472 167.256 69.3578C166.439 65.6464 165.559 62.0305 164.177 58.4821C164.068 58.1968 164.068 58.1968 163.958 57.9057C162.957 55.2722 161.838 52.7385 160.518 50.2504C160.427 50.0748 160.335 49.8993 160.241 49.7184C156.774 43.0939 152.18 37.3411 147.027 31.9578C146.913 31.838 146.798 31.7182 146.68 31.5947C145.209 30.064 143.66 28.7018 141.997 27.3847C141.738 27.1714 141.479 26.9576 141.221 26.7434C136.166 22.578 130.475 19.4151 124.537 16.6877C124.132 16.5008 123.728 16.3106 123.326 16.1172C121.734 15.3635 120.119 14.8218 118.431 14.3227C118.051 14.2081 118.051 14.2081 117.664 14.0913C117.166 13.9414 116.668 13.7923 116.17 13.6441C115.537 13.4559 114.906 13.2647 114.274 13.0731C110.536 11.9539 106.761 11.2232 102.897 10.6927C102.609 10.6512 102.321 10.6096 102.025 10.5668C99.6173 10.2374 97.242 10.1715 94.814 10.1884C94.1931 10.1925 93.5723 10.193 92.9513 10.193C89.3683 10.1997 85.8741 10.376 82.3317 10.9643C82.1804 10.9892 82.029 11.014 81.873 11.0397C76.7263 11.8914 71.4624 13.0425 66.631 15.0566C65.8667 15.3483 65.2945 15.3514 64.4822 15.2659C63.3687 14.7091 62.832 14.157 62.4243 12.9793C62.264 11.9897 62.3448 11.3223 62.7673 10.4069C64.2687 8.75535 66.8262 8.26971 68.8981 7.60585C69.0716 7.54983 69.2451 7.49381 69.4239 7.43609C71.8508 6.65485 74.2587 5.96929 76.774 5.53354C77.4086 5.40993 78.0328 5.25331 78.6607 5.09956C80.2488 4.72849 81.8422 4.50877 83.4592 4.31768C83.9329 4.26168 84.4062 4.20341 84.8796 4.14474C94.5141 2.96361 104.012 3.81021 113.415 6.11958C113.653 6.17677 113.892 6.23395 114.137 6.29286C117.305 7.06135 120.325 8.13941 123.358 9.32648C124.046 9.59313 124.74 9.84147 125.434 10.0925C132.192 12.7241 138.975 16.5103 144.512 21.2109C144.922 21.5397 145.332 21.8684 145.741 22.197C149.412 25.2196 153.078 28.5901 155.995 32.3526C156.394 32.8621 156.818 33.3288 157.26 33.8014C161.808 38.8965 165.032 45.0953 168.064 51.165C168.191 51.4201 168.319 51.6752 168.45 51.938C168.549 52.1356 168.648 52.3333 168.75 52.537C170.058 50.0652 170.888 47.5719 171.551 44.8627C171.61 44.6248 171.669 44.387 171.73 44.1419C172.363 41.4639 172.454 38.8169 172.465 36.0737C172.47 35.8037 172.475 35.5337 172.48 35.2555C172.487 33.6651 172.329 32.2636 171.889 30.7335C171.723 30.1321 171.622 29.5453 171.537 28.9281C170.35 22.2142 165.572 15.9975 160.154 12.0853C155.105 8.65669 149.488 6.60863 143.598 5.20496C143.428 5.16421 143.259 5.12346 143.084 5.08147C137.159 3.7037 130.57 3.83663 124.648 5.11921C123.942 5.2437 123.277 5.23607 122.561 5.20496C122.404 4.79051 122.404 4.79051 122.332 4.29033C122.904 3.45046 123.884 3.24396 124.805 2.94697C124.986 2.88807 125.168 2.82918 125.354 2.7685C133.535 0.189574 142.237 -0.347643 150.686 1.08913Z" fill="#D8B94B"/>
<ellipse cx="69.5" cy="40.8798" rx="9.5" ry="9" fill="#241D44"/>
<circle cx="117" cy="36.8798" r="7" fill="#241D44"/>
<path d="M36.1286 29.6714C37.1207 30.1376 37.7745 30.704 38.1865 31.7293C38.4163 32.8846 38.2755 33.7932 37.6435 34.7876C37.0698 35.5672 36.4323 36.2679 35.7713 36.9741C25.8208 47.6867 19.643 63.9721 19.6269 78.5522C19.6261 78.8003 19.6254 79.0484 19.6246 79.304C19.6234 79.8263 19.6229 80.3486 19.6229 80.8708C19.6224 81.6524 19.6183 82.434 19.6139 83.2156C19.6027 87.4967 19.8259 91.7155 20.6514 95.9248C20.7017 96.1863 20.7521 96.4477 20.804 96.7172C21.9982 102.763 24.0257 108.749 26.7537 114.275C26.8494 114.47 26.9451 114.666 27.0437 114.867C28.4898 117.794 30.1209 120.532 32.0128 123.192C32.2071 123.466 32.2071 123.466 32.4053 123.744C35.6648 128.301 39.2688 132.617 43.4893 136.322C43.7873 136.586 44.075 136.862 44.3603 137.14C44.3603 137.291 44.3603 137.442 44.3603 137.598C43.3937 137.828 42.4265 138.056 41.4592 138.284C41.1852 138.349 40.9112 138.414 40.629 138.482C40.3644 138.544 40.0999 138.606 39.8273 138.669C39.5842 138.727 39.3412 138.784 39.0907 138.844C37.9286 139.06 37.9286 139.06 37.2719 138.969C36.755 138.59 36.755 138.59 36.2322 138.058C36.04 137.864 35.8478 137.671 35.6498 137.471C35.4494 137.263 35.249 137.055 35.0425 136.84C34.7335 136.525 34.7335 136.525 34.4183 136.203C33.0729 134.818 31.8234 133.407 30.6408 131.881C30.2841 131.466 29.9268 131.052 29.569 130.638C26.8866 127.414 24.652 123.89 22.6378 120.22C22.5363 120.038 22.4348 119.857 22.3301 119.67C19.627 114.822 17.3558 109.607 16.0068 104.214C15.9337 103.923 15.8607 103.632 15.7854 103.333C14.7786 99.2873 13.9085 95.2679 13.545 91.1061C13.5105 90.7106 13.4718 90.3153 13.4283 89.9206C13.1687 87.3778 13.2071 84.8158 13.2057 82.2625C13.2056 82.007 13.2054 81.7515 13.2053 81.4883C13.2121 74.3719 13.9575 67.384 16.0068 60.5401C16.0528 60.3863 16.0988 60.2326 16.1462 60.0742C16.6565 58.3802 17.1875 56.699 17.8361 55.0523C17.915 54.8383 17.994 54.6244 18.0754 54.4039C18.8093 52.4358 19.6508 50.5323 20.5799 48.6499C20.6751 48.4571 20.7703 48.2642 20.8684 48.0655C23.2002 43.3843 25.8884 39.0135 29.1453 34.9192C29.4975 34.4733 29.8426 34.0227 30.1862 33.5702C33.4608 29.2791 33.4608 29.2791 36.1286 29.6714Z" fill="#D8B94B"/>
<path d="M97.6374 85.2348C97.7205 85.4586 97.8036 85.6823 97.8893 85.9128C98.8895 88.5477 99.9027 90.8347 102.439 92.3232C103.016 92.5393 103.585 92.7027 104.183 92.852C104.987 93.0847 105.621 93.479 106.326 93.9238C106.214 94.0181 106.101 94.1123 105.984 94.2095C105.604 94.578 105.604 94.578 105.583 95.0445C105.597 95.2037 105.61 95.363 105.623 95.5271C105.636 95.7002 105.648 95.8734 105.661 96.0518C105.678 96.2315 105.695 96.4111 105.712 96.5962C105.733 96.8697 105.733 96.8697 105.754 97.1487C105.789 97.5984 105.829 98.0477 105.869 98.4969C105.988 98.3947 106.108 98.2924 106.231 98.187C108.583 96.2546 110.567 95.4697 113.643 95.7531C113.983 95.8662 113.983 95.8662 114.329 95.9817C114.472 96.6391 114.472 96.6391 114.558 97.3537C113.922 97.9901 113.503 97.8641 112.614 97.8824C110.217 98.0224 108.491 99.0039 106.858 100.732C106.45 101.417 106.523 101.843 106.612 102.627C106.637 102.866 106.662 103.104 106.687 103.35C106.768 104.002 106.768 104.002 107.012 104.671C107.14 104.533 107.267 104.395 107.398 104.253C109 102.575 110.379 101.561 112.739 101.431C112.976 101.43 113.213 101.428 113.458 101.427C113.697 101.423 113.936 101.42 114.182 101.417C114.787 101.469 114.787 101.469 115.244 101.927C115.301 102.498 115.301 102.498 115.244 103.07C114.662 103.652 114.434 103.577 113.629 103.599C112.265 103.699 111.325 104.121 110.214 104.899C110.023 105.031 109.833 105.162 109.637 105.298C108.965 105.91 108.589 106.566 108.198 107.372C108.127 107.507 108.056 107.642 107.983 107.781C107.492 108.769 107.312 109.523 107.47 110.616C107.712 111.036 107.712 111.036 108.015 111.456C108.818 112.631 108.894 113.842 109.027 115.232C109.069 115.598 109.069 115.598 109.111 115.971C109.225 117.011 109.313 118.029 109.299 119.076C104.703 121.222 100.107 123.315 95.3913 125.186C94.6209 125.496 93.8552 125.816 93.0902 126.139C92.836 126.247 92.5819 126.354 92.3201 126.465C91.8376 126.669 91.3555 126.874 90.8739 127.08C90.6606 127.17 90.4472 127.26 90.2275 127.353C89.9469 127.473 89.9469 127.473 89.6607 127.595C89.1771 127.765 89.1771 127.765 88.4911 127.765C88.4643 126.889 88.4482 126.012 88.4339 125.135C88.4263 124.889 88.4186 124.643 88.4107 124.389C88.3912 122.792 88.5825 121.818 89.4057 120.448C90.6248 116.791 89.0703 112.188 88.3364 108.529C88.2011 107.85 88.069 107.171 87.9371 106.491C87.4017 103.733 86.8589 100.977 86.2575 98.2323C86.1935 97.9398 86.1296 97.6473 86.0637 97.3459C85.9434 96.8 85.8215 96.2544 85.6978 95.7093C85.4247 94.477 85.2157 93.3575 85.2899 92.0945C85.6943 91.9407 86.0993 91.7886 86.5046 91.6372C86.7301 91.5523 86.9556 91.4675 87.1879 91.38C87.8051 91.1799 87.8051 91.1799 88.4911 91.1799C88.4997 91.3733 88.5082 91.5666 88.517 91.7658C88.6408 93.9566 88.6408 93.9566 89.4057 95.9817C89.9936 96.2411 89.9936 96.2411 90.549 96.2104C90.6245 96.4367 90.6999 96.6631 90.7777 96.8963C90.589 97.0473 90.4004 97.1982 90.206 97.3537C89.6271 98.0484 89.5481 98.1576 89.5344 98.9971C89.5433 99.8726 89.5433 99.8726 90.0917 100.326C91.1385 100.525 91.9453 100.438 92.8785 99.926C94.5957 98.1751 95.0106 96.3621 94.9935 93.9953C94.9693 92.5115 94.8435 91.0516 94.6648 89.5793C94.5577 88.638 94.4717 87.7686 94.6648 86.8354C95.1993 86.2612 95.7803 85.9951 96.4941 85.6921C97.1801 85.2348 97.1801 85.2348 97.6374 85.2348Z" fill="#241D45"/>
<path d="M110.442 127.537C110.469 127.713 110.497 127.89 110.526 128.073C110.692 129.108 110.857 130.124 111.128 131.138C111.702 133.311 111.844 135.589 111.814 137.826C111.632 137.892 111.451 137.957 111.264 138.024C107.449 139.403 103.655 140.808 99.9235 142.399C99.7227 142.485 99.5219 142.57 99.3151 142.658C98.7308 142.908 98.1478 143.16 97.5654 143.414C97.3903 143.489 97.2151 143.565 97.0347 143.643C96.1499 143.982 96.1499 143.982 95.579 144.686C97.5893 144.409 99.5557 144.025 101.531 143.562C103.975 142.99 106.422 142.457 108.892 142.008C110.175 141.773 111.432 141.481 112.687 141.123C113.186 141.027 113.186 141.027 113.872 141.256C113.698 141.315 113.524 141.375 113.345 141.436C112.491 141.728 111.638 142.021 110.785 142.314C110.544 142.396 110.544 142.396 110.298 142.48C108.284 143.171 106.272 143.869 104.265 144.579C100.597 145.875 96.9338 147.152 93.2103 148.282C91.034 148.943 88.8751 149.651 86.7185 150.374C86.4774 150.455 86.4774 150.455 86.2313 150.537C85.9199 150.641 85.6086 150.746 85.2972 150.851C84.8628 150.996 84.4279 151.141 83.9929 151.285C83.5381 151.441 83.0853 151.603 82.638 151.779C81.3143 152.29 80.2758 152.246 78.887 152.003C78.7029 151.972 78.5189 151.942 78.3292 151.91C77.77 151.812 77.214 151.702 76.6576 151.588C76.4614 151.549 76.2651 151.509 76.063 151.469C74.3858 151.121 72.7485 150.683 71.1127 150.174C71.1127 150.023 71.1127 149.872 71.1127 149.716C71.3043 149.649 71.4959 149.582 71.6934 149.512C73.5653 148.85 75.4218 148.154 77.2713 147.432C78.0425 147.13 78.8144 146.831 79.5864 146.531C79.8177 146.441 79.8177 146.441 80.0536 146.35C82.1312 145.545 84.2185 144.766 86.3064 143.989C86.8476 143.787 87.3883 143.584 87.9288 143.38C89.2881 142.867 90.6485 142.363 92.0205 141.885C93.8122 141.251 95.5699 140.534 97.3324 139.823C98.7094 139.269 100.089 138.726 101.481 138.212C102.563 137.81 103.641 137.401 104.711 136.969C104.93 136.88 105.149 136.792 105.375 136.701C105.904 136.498 105.904 136.498 106.097 135.997C105.894 135.936 105.692 135.874 105.483 135.811C104.725 135.54 104.725 135.54 104.182 135.154C103.239 134.682 102.278 134.923 101.298 135.22C100.845 135.384 100.398 135.559 99.952 135.74C98.931 136.139 97.9207 136.525 96.8652 136.826C96.1513 137.029 95.4772 137.267 94.793 137.555C93.6411 138.029 92.4644 138.408 91.2774 138.784C91.0887 138.844 90.9001 138.904 90.7058 138.965C89.8108 139.245 88.9576 139.471 88.0333 139.655C88.0333 138.599 88.0333 137.543 88.0333 136.454C90.6645 135.35 93.3019 134.269 95.9791 133.282C97.7546 132.625 99.4943 131.892 101.236 131.15C101.942 130.85 102.652 130.559 103.368 130.28C104.652 129.775 105.907 129.203 107.165 128.638C109.62 127.537 109.62 127.537 110.442 127.537Z" fill="#241D45"/>
<path d="M71.3422 105.357C71.8038 106.049 71.9346 106.481 72.1122 107.282C72.1679 107.529 72.2236 107.776 72.281 108.031C72.339 108.294 72.3971 108.558 72.4569 108.83C72.5799 109.376 72.7032 109.923 72.8267 110.47C72.8862 110.733 72.9456 110.997 73.0069 111.269C73.2012 112.118 73.4117 112.96 73.6288 113.803C74.6353 117.787 75.4879 121.805 76.2043 125.851C76.4729 127.357 76.79 128.842 77.1558 130.328C77.2873 130.966 77.2873 130.966 77.2873 131.881C76.3823 132.205 75.4769 132.529 74.5713 132.851C74.2478 132.967 73.9243 133.082 73.6009 133.198C67.7117 135.311 67.7117 135.311 66.3118 135.311C66.5217 133.295 66.7937 131.288 67.0692 129.28C67.0944 129.096 67.1197 128.911 67.1457 128.721C67.4474 126.534 67.7662 124.364 68.2682 122.212C68.5512 120.971 68.7475 119.73 68.9172 118.469C69.2426 116.127 69.6076 113.793 69.9948 111.46C70.1011 110.817 70.2051 110.174 70.3092 109.531C70.3774 109.118 70.4458 108.706 70.5142 108.293C70.5447 108.103 70.5752 107.912 70.6067 107.716C70.6365 107.539 70.6662 107.363 70.6969 107.181C70.7223 107.027 70.7476 106.873 70.7738 106.714C70.8986 106.217 71.0989 105.806 71.3422 105.357Z" fill="#241D45"/>
<path d="M65.6251 63.5125C70.6053 63.5125 75.5854 63.5125 80.7165 63.5125C80.7165 66.3798 80.7165 69.2472 80.7165 72.2015C75.7363 72.2015 70.7562 72.2015 65.6251 72.2015C65.6251 69.3341 65.6251 66.4667 65.6251 63.5125Z" fill="#241D45"/>
<path d="M113.186 57.5675C117.563 57.5675 121.939 57.5675 126.448 57.5675C126.448 60.5103 126.448 63.4531 126.448 66.4851C122.072 66.4851 117.695 66.4851 113.186 66.4851C113.186 63.5423 113.186 60.5995 113.186 57.5675Z" fill="#241D45"/>
<path d="M56.4789 52.5373C56.7377 52.8039 56.9964 53.0708 57.2542 53.3385C58.477 54.4752 59.9973 55.2834 61.5094 55.9671C61.683 56.0499 61.8566 56.1328 62.0355 56.2181C63.5474 56.8909 64.8942 57.0704 66.5398 57.1104C66.7401 57.1163 66.9404 57.1222 67.1468 57.1283C69.9258 57.2017 72.5409 57.2194 75.2288 56.4244C74.9748 57.9147 74.6116 59.1093 73.3995 60.0829C71.7547 60.5493 69.9602 60.3923 68.269 60.3545C67.7916 60.3529 67.3142 60.3524 66.8368 60.3531C65.6703 60.3524 64.5049 60.3362 63.3386 60.3116C63.2614 60.5789 63.1842 60.8463 63.1046 61.1217C63.0016 61.4757 62.8986 61.8297 62.7956 62.1837C62.7449 62.3596 62.6942 62.5354 62.6419 62.7165C62.3806 63.6121 62.1064 64.4831 61.738 65.3421C61.349 64.6236 61.1136 63.9087 60.8806 63.1269C60.3331 61.456 59.5891 59.9231 58.0795 58.9397C57.498 58.7872 57.498 58.7872 56.9362 58.9397C56.5104 59.4904 56.5104 59.4904 56.2503 60.0829C56.512 60.373 56.512 60.373 56.779 60.6689C58.1318 62.3253 58.1719 63.7147 58.0795 65.7994C57.4591 65.2019 56.9299 64.5931 56.4218 63.8987C54.7136 61.7061 52.8132 60.7 50.3052 59.6256C50.6301 58.6295 51.1183 58.0253 51.8343 57.2676C52.0392 57.048 52.244 56.8284 52.4551 56.6022C52.6511 56.3926 52.8471 56.183 53.0491 55.9671C53.3367 55.6448 53.6227 55.321 53.9065 54.9953C54.0312 54.8527 54.1559 54.71 54.2843 54.563C54.538 54.2678 54.7885 53.9699 55.0364 53.6698C55.1587 53.5225 55.2811 53.3751 55.4071 53.2232C55.5147 53.0912 55.6223 52.9591 55.7331 52.8231C56.0216 52.5373 56.0216 52.5373 56.4789 52.5373Z" fill="#241D45"/>
<path d="M128.506 118.848C128.694 119.961 128.881 121.075 129.067 122.189C129.131 122.566 129.194 122.944 129.257 123.321C129.567 125.157 129.873 126.994 130.151 128.835C130.187 129.072 130.223 129.309 130.261 129.553C130.349 130.413 130.348 131.246 130.335 132.11C129.282 132.432 128.228 132.753 127.174 133.074C126.816 133.183 126.458 133.293 126.1 133.402C125.584 133.56 125.068 133.717 124.552 133.874C124.393 133.923 124.234 133.972 124.07 134.022C123.262 134.267 122.477 134.459 121.646 134.625C121.646 130.475 121.646 126.325 121.646 122.049C123.217 121.257 123.217 121.257 124.819 120.448C125.149 120.281 125.479 120.114 125.819 119.942C126.078 119.812 126.337 119.682 126.604 119.548C126.87 119.414 127.135 119.28 127.409 119.142C128.049 118.848 128.049 118.848 128.506 118.848Z" fill="#241D45"/>
<path d="M156.631 118.39C156.21 119.692 155.367 120.671 154.536 121.734C153.955 122.481 153.403 123.205 152.949 124.036C151.756 126.025 150.551 126.5 148.356 127.051C147.569 127.234 146.781 127.409 145.992 127.58C144.716 127.878 143.473 128.271 142.225 128.666C141.792 128.802 141.359 128.937 140.925 129.072C140.745 129.129 140.565 129.186 140.379 129.244C139.939 129.366 139.939 129.366 139.481 129.366C139.481 127.706 139.481 126.046 139.481 124.335C141.544 123.304 141.544 123.304 142.575 122.92C142.809 122.832 143.043 122.745 143.284 122.655C143.534 122.563 143.783 122.472 144.04 122.378C144.303 122.281 144.567 122.184 144.838 122.084C147.07 121.269 149.318 120.501 151.572 119.748C151.737 119.693 151.901 119.638 152.071 119.581C152.542 119.423 153.013 119.267 153.485 119.111C153.891 118.977 153.891 118.977 154.306 118.84C155.079 118.604 155.819 118.39 156.631 118.39Z" fill="#241D45"/>
<path d="M124.619 48.65C124.77 48.65 124.921 48.65 125.077 48.65C124.408 51.256 122.652 52.7056 120.503 54.1377C120.065 54.1927 120.065 54.1927 119.565 54.1896C119.377 54.1896 119.19 54.1896 118.996 54.1895C118.694 54.186 118.694 54.186 118.386 54.1824C118.179 54.1817 117.971 54.1811 117.758 54.1804C117.096 54.1779 116.435 54.1721 115.773 54.1663C115.325 54.164 114.876 54.1619 114.427 54.1601C113.328 54.155 112.228 54.1471 111.128 54.1377C111.087 54.4477 111.087 54.4477 111.044 54.7639C111.006 55.0336 110.968 55.3033 110.928 55.5811C110.891 55.8491 110.854 56.117 110.816 56.393C110.671 57.1103 110.671 57.1103 110.214 57.7962C110.128 57.6279 110.042 57.4596 109.954 57.2862C109.109 55.676 108.285 54.5082 106.784 53.4518C106.331 53.6781 106.331 53.6781 105.869 53.9091C105.869 55.0156 106.108 55.137 106.784 55.967C107.429 57.1882 107.541 58.0505 107.47 59.3968C107.314 59.2412 107.159 59.0856 106.998 58.9252C106.891 58.82 106.783 58.7148 106.672 58.6064C106.327 58.2536 106.327 58.2536 106.031 57.8936C104.656 56.3121 102.685 55.5106 100.839 54.595C101.184 53.3753 101.997 52.6244 102.854 51.7368C102.995 51.588 103.136 51.4391 103.281 51.2858C104.056 50.4711 104.842 49.6696 105.641 48.8786C106.561 49.2236 107.404 49.66 108.27 50.1219C111.851 51.9296 116.37 52.3576 120.232 51.1366C121.822 50.588 123.419 49.8503 124.619 48.65Z" fill="#241D45"/>
<path d="M48.7047 63.2838C51.1342 63.8869 52.9674 65.3818 54.4211 67.3996C55.3281 68.9364 55.8313 70.2472 55.8073 72.0442C55.8053 72.2461 55.8032 72.448 55.8011 72.656C55.7984 72.8078 55.7958 72.9596 55.793 73.116C55.5596 72.8755 55.5596 72.8755 55.3214 72.6301C55.0987 72.4099 54.8746 72.1909 54.6498 71.9728C54.5177 71.8442 54.3857 71.7157 54.2496 71.5833C54.1128 71.4572 53.9761 71.331 53.8352 71.201C53.7075 71.0814 53.5799 70.9617 53.4484 70.8384C53.0524 70.5455 53.0524 70.5455 52.5427 70.6776C52.408 70.7277 52.2733 70.7778 52.1345 70.8295C52.2214 71.6985 52.4177 72.3456 52.8348 73.1017C53.3146 74.0008 53.3618 74.6232 53.2778 75.6313C52.4947 75.2545 51.7833 74.8086 51.0582 74.3317C49.5576 73.4702 48.4885 73.248 46.7754 73.3018C46.5863 73.3049 46.3972 73.308 46.2024 73.3112C45.7407 73.3192 45.2791 73.3315 44.8175 73.3447C45.3388 71.4454 46.0352 69.629 46.7611 67.7998C46.8734 67.5134 46.9856 67.227 47.0978 66.9405C47.59 65.6934 48.0912 64.4771 48.7047 63.2838Z" fill="#241D45"/>
<path d="M51.332 85.9493C51.446 86.0153 51.5601 86.0813 51.6776 86.1493C51.562 86.9279 51.4139 87.6875 51.2185 88.4493C51.177 88.613 51.1354 88.7768 51.0926 88.9455C51.0064 89.2818 50.9182 89.6176 50.8282 89.953C50.5046 91.2487 50.4388 92.333 51.0354 93.5771C51.1389 93.7481 51.2423 93.919 51.3489 94.0952C52.0201 95.3834 52.0155 96.3858 51.9063 97.8108C51.8873 98.135 51.8689 98.4593 51.8509 98.7835C51.7999 99.6793 51.7405 100.574 51.6776 101.469C48.9874 100.734 48.9874 100.734 48.2478 99.6401C47.3724 97.2383 46.9154 94.6599 46.3756 92.1659C46.254 91.6072 46.132 91.0486 46.0097 90.4901C45.9344 90.1461 45.8596 89.8021 45.7852 89.4579C45.6416 88.7986 45.4888 88.162 45.2752 87.5213C45.2662 86.9878 45.2652 86.4541 45.2752 85.9207C47.0956 84.6724 49.4527 84.9776 51.332 85.9493Z" fill="#241D45"/>
<path d="M73.1325 29.2153C74.2516 29.8065 75.3449 30.5039 76.1442 31.5003C76.1442 31.6512 76.1442 31.8022 76.1442 31.9576C75.9818 31.8922 75.8194 31.8268 75.652 31.7594C75.4372 31.6739 75.2223 31.5884 75.0009 31.5003C74.8025 31.4196 74.6042 31.3388 74.3998 31.2556C71.7484 30.3024 68.3478 30.0269 65.6635 31.0323C62.4417 32.5908 60.2054 34.7442 58.9654 38.151C58.3828 40.3338 58.5532 43.0222 58.9949 45.2197C58.5832 45.1894 58.5832 45.1894 58.0803 44.9911C57.6989 44.3927 57.6989 44.3927 57.3514 43.6477C57.235 43.4031 57.1186 43.1584 56.9986 42.9064C55.9736 40.5788 56.279 37.4989 57.1657 35.1588C58.5575 32.2656 60.7436 30.0153 63.7824 28.8994C64.1672 28.772 64.5529 28.6476 64.94 28.5278C67.5065 27.6723 70.7335 28.0561 73.1325 29.2153Z" fill="#241D45"/>
<path d="M76.1437 76.3173C76.9737 76.3173 77.8037 76.3173 78.6589 76.3173C78.6701 76.6262 78.6813 76.9351 78.6929 77.2534C78.71 77.6654 78.7273 78.0775 78.7447 78.4896C78.7517 78.6924 78.7588 78.8951 78.7661 79.1041C78.8566 81.1559 79.1271 83.4553 80.6775 84.9527C81.5523 85.6405 82.3688 86.1052 83.4607 86.3782C83.4041 86.0033 83.4041 86.0033 83.3464 85.6208C83.1941 84.4257 83.2122 83.2364 83.2321 82.0337C83.7857 82.562 84.2521 83.1281 84.7183 83.7344C84.8527 83.9086 84.9871 84.0828 85.1256 84.2623C85.5186 84.7776 85.5186 84.7776 85.8259 85.3001C86.1873 85.75 86.1873 85.75 86.8155 85.8075C87.8222 85.6551 88.5774 85.2491 89.463 84.7633C90.0489 84.4457 90.6321 84.1489 91.2351 83.863C91.386 83.9385 91.5369 84.0139 91.6924 84.0917C90.2848 85.5801 88.8814 86.9198 87.1192 87.9788C86.9828 88.0614 86.8463 88.1439 86.7057 88.2289C84.9705 89.0637 82.4456 89.0092 80.64 88.4129C78.3527 87.2411 77.25 85.5478 76.3723 83.177C76.1669 82.3283 76.1169 81.5437 76.1214 80.6716C76.1221 80.4174 76.1228 80.1632 76.1236 79.9013C76.1255 79.6382 76.1274 79.3751 76.1294 79.1041C76.1304 78.8366 76.1315 78.5691 76.1325 78.2935C76.1352 77.6348 76.1393 76.976 76.1437 76.3173Z" fill="#241D45"/>
<path d="M121.418 70.1436C122.248 70.1436 123.078 70.1436 123.933 70.1436C123.934 70.5305 123.934 70.5305 123.935 70.9252C123.976 73.053 124.223 74.9401 124.862 76.9747C125.735 79.7902 125.918 82.0494 124.619 84.7777C123.811 86.2783 122.583 87.3287 121.132 88.1932C119.926 88.5349 118.776 88.4914 117.531 88.4362C117.531 87.6816 117.531 86.927 117.531 86.1496C117.88 86.093 118.229 86.0364 118.589 85.9781C120.178 85.6572 121.185 84.9802 122.104 83.6344C123.226 81.3048 122.528 78.7571 121.827 76.4188C121.244 74.3374 121.317 72.2861 121.418 70.1436Z" fill="#241D45"/>
<path d="M65.1676 76.3173C66.0731 76.3173 66.9785 76.3173 67.9115 76.3173C67.9238 77.2701 67.9329 78.2227 67.94 79.1755C67.9439 79.4438 67.9477 79.712 67.9516 79.9883C67.968 82.9065 67.3885 85.326 65.3248 87.4929C63.3456 89.36 61.3922 89.6689 58.7687 89.6295C57.6605 89.588 56.7943 89.3855 55.7926 88.8935C55.5646 88.3673 55.5313 88.0912 55.6917 87.5394C55.8778 87.1523 56.0639 86.7653 56.2499 86.3782C56.3773 86.4112 56.5046 86.4443 56.6358 86.4783C59.0373 87.0624 60.6903 86.9155 62.881 85.6923C64.1036 84.685 64.8459 83.3587 65.0148 81.7834C65.0573 80.9567 65.0809 80.1318 65.0961 79.3042C65.1039 79.0169 65.1117 78.7297 65.1198 78.4337C65.1386 77.7283 65.1535 77.0228 65.1676 76.3173Z" fill="#241D45"/>
<path d="M119.502 27.642C120.045 28.0707 120.045 28.0707 120.274 28.528C119.981 28.5121 119.688 28.4962 119.386 28.4798C116.458 28.3694 114.164 28.6293 111.714 30.4144C109.089 33.2318 108.727 35.5755 108.841 39.2749C107.795 38.3637 107.54 37.0331 107.41 35.6923C107.387 34.587 107.492 33.6765 107.927 32.6439C107.7 32.6439 107.474 32.6439 107.241 32.6439C106.167 34.8664 106.148 37.0854 106.097 39.5036C105.13 38.5359 105.151 36.8293 105.111 35.5164C105.178 32.8955 106.114 30.6237 107.94 28.7245C111.229 25.7654 115.69 25.25 119.502 27.642Z" fill="#241D45"/>
<path d="M51.8209 43.3765C52.0631 43.378 52.0631 43.378 52.3103 43.3796C52.7093 43.3823 53.1082 43.3864 53.5072 43.3908C53.7057 43.8276 53.9003 44.2662 54.0931 44.7056C54.2019 44.9496 54.3107 45.1937 54.4227 45.4451C54.6564 46.1526 54.7015 46.3802 54.4218 47.0493C54.3011 47.2752 54.3011 47.2752 54.178 47.5057C53.9354 48.0263 53.9544 48.3256 53.9788 48.8928C53.857 50.2907 52.8457 51.0396 51.8736 51.9324C51.1929 52.5627 50.6035 53.2276 50.0157 53.9429C49.4719 54.5248 48.8627 55.0029 48.2481 55.5096C48.2132 54.0736 48.1892 52.6377 48.1727 51.2013C48.1658 50.7132 48.1565 50.225 48.1446 49.737C48.1279 49.0336 48.1201 48.3307 48.1141 47.6272C48.107 47.4104 48.0999 47.1936 48.0927 46.9702C48.092 45.6081 48.3229 44.891 49.28 43.9073C50.0593 43.2476 50.8519 43.3649 51.8209 43.3765Z" fill="#241D45"/>
<path d="M156.473 70.9866C157.249 71.423 157.742 71.9054 158.231 72.6587C158.326 72.7954 158.42 72.9322 158.517 73.0731C158.919 74.2446 158.81 75.2727 158.303 76.3743C157.724 77.4218 156.926 77.9497 155.945 78.6037C154.694 78.7957 153.528 78.7685 152.415 78.1321C151.585 77.5191 150.976 76.8632 150.686 75.8599C150.519 74.5695 150.501 73.4989 151.071 72.3157C152.6 70.6632 154.341 69.9964 156.473 70.9866Z" fill="#D8B94B"/>
<path d="M121.875 95.7532C122.647 96.1392 122.743 97.0321 123.004 97.8111C123.066 97.9899 123.127 98.1686 123.191 98.3528C123.364 98.8576 123.535 99.3632 123.705 99.8691C123.771 100.065 123.838 100.262 123.907 100.464C124.01 100.773 124.113 101.083 124.215 101.394C124.355 101.819 124.499 102.244 124.645 102.667C125.198 104.287 125.716 105.914 126.191 107.558C126.243 107.731 126.295 107.904 126.349 108.083C126.613 109.017 126.758 109.689 126.449 110.616C126.031 110.977 126.031 110.977 125.492 111.278C125.202 111.442 125.202 111.442 124.906 111.611C124.602 111.776 124.602 111.776 124.291 111.945C123.987 112.117 123.987 112.117 123.677 112.293C122.18 113.131 122.18 113.131 121.647 113.131C121.616 107.334 121.684 101.548 121.875 95.7532Z" fill="#241D45"/>
<path d="M58.5368 46.363C59.0968 46.9074 59.6205 47.4201 60.066 48.0636C61.6038 49.7677 64.3429 51.0614 66.6414 51.198C67.2745 51.2036 67.9075 51.2072 68.5406 51.2076C68.8669 51.2118 68.8669 51.2118 69.1998 51.2161C71.2868 51.2204 72.9094 50.9477 74.7286 49.8786C76.0468 49.1069 76.0468 49.1069 77.0581 49.1069C77.1724 49.8214 77.1724 49.8214 77.0581 50.7075C75.5985 52.4522 72.637 53.4447 70.427 53.68C66.4181 54.0065 62.9158 53.2117 59.7275 50.6521C58.1671 49.3096 58.1671 49.3096 57.8812 48.6478C57.8439 48.0877 57.9644 47.7369 58.1796 47.2204C58.2453 47.0589 58.311 46.8974 58.3788 46.731C58.4309 46.6095 58.4831 46.4881 58.5368 46.363Z" fill="#241D45"/>
<path d="M115.016 70.1436C115.846 70.1436 116.676 70.1436 117.531 70.1436C117.543 70.8249 117.552 71.5059 117.559 72.1872C117.563 72.3772 117.567 72.5672 117.571 72.7629C117.589 75.0886 117.141 76.9646 115.702 78.8326C115.136 79.3792 114.547 79.8015 113.872 80.2045C113.519 80.4167 113.519 80.4167 113.158 80.6333C111.586 81.2403 109.515 81.131 107.956 80.5475C107.72 80.4343 107.484 80.3211 107.241 80.2045C107.317 79.5254 107.392 78.8463 107.47 78.1466C107.644 78.1843 107.819 78.2221 107.999 78.2609C109.798 78.5049 111.283 78.6683 112.809 77.5562C113.917 76.6033 114.656 75.4064 114.864 73.9511C114.905 73.3723 114.929 72.7959 114.944 72.2158C114.952 72.0158 114.96 71.8158 114.968 71.6098C114.987 71.1212 115.002 70.6324 115.016 70.1436Z" fill="#241D45"/>
<path d="M99.9243 58.0249C101.576 58.2161 103.042 59.1994 104.086 60.4633C105.09 61.9914 105.669 63.2711 105.641 65.1132C105.519 65.0116 105.398 64.9099 105.273 64.8051C105.111 64.6757 104.95 64.5463 104.783 64.413C104.624 64.283 104.465 64.153 104.301 64.0191C103.829 63.6853 103.829 63.6853 103.293 63.8136C103.163 63.8652 103.032 63.9168 102.897 63.97C103.01 64.1775 103.123 64.385 103.24 64.5988C103.583 65.3419 103.583 65.3419 103.583 66.2565C103.3 66.1575 103.3 66.1575 103.011 66.0565C101.127 65.4508 99.3843 65.2277 97.4091 65.1132C97.5847 64.1175 97.8651 63.1614 98.1665 62.1979C98.217 62.0363 98.2674 61.8748 98.3194 61.7083C99.2924 58.6567 99.2924 58.6567 99.9243 58.0249Z" fill="#241D45"/>
<path d="M107.013 42.4763C107.163 42.4763 107.314 42.4763 107.47 42.4763C107.611 42.6696 107.753 42.863 107.899 43.0622C109.548 45.1032 112.249 45.9348 114.763 46.2062C117.161 46.309 119.401 45.525 121.647 44.7628C121.647 45.3665 121.647 45.9701 121.647 46.5921C121.219 46.8183 120.79 47.0416 120.36 47.2638C120.122 47.3884 119.883 47.5131 119.637 47.6416C117.218 48.7038 113.407 48.4758 110.9 47.7354C109.418 47.1 107.829 46.2526 106.784 44.9915C106.498 44.1668 106.5 43.7888 106.77 42.9622C106.85 42.8018 106.93 42.6415 107.013 42.4763Z" fill="#241D45"/>
<path d="M115.93 60.0826C118.571 60.0826 121.212 60.0826 123.933 60.0826C123.933 61.3653 123.933 62.6481 123.933 63.9698C121.292 63.9698 118.651 63.9698 115.93 63.9698C115.93 62.687 115.93 61.4042 115.93 60.0826Z" fill="#D8B94B"/>
<path d="M76.6008 90.2656C76.7517 90.2656 76.9026 90.2656 77.0581 90.2656C77.2868 90.4943 77.5154 90.7229 77.7441 90.9516C78.1205 91.1879 78.5009 91.4182 78.8874 91.6376C78.3841 93.8081 77.1695 95.4916 75.3432 96.7681C75.0048 96.9712 74.6619 97.1672 74.3142 97.354C74.1716 97.4315 74.0289 97.509 73.8819 97.5889C72.487 98.2248 71.015 98.1018 69.5125 98.04C69.5125 97.1345 69.5125 96.229 69.5125 95.2961C70.0784 95.2678 70.0784 95.2678 70.6557 95.2389C72.3764 95.0819 73.7545 94.4502 75.0002 93.2382C75.6728 92.3094 76.2268 91.3536 76.6008 90.2656Z" fill="#241D45"/>
<path d="M49.1458 77.3902C50.3096 77.813 51.5486 78.3726 52.1344 79.5187C52.2424 80.3702 52.2163 81.181 52.1344 82.0339C50.8196 81.8339 50.8196 81.8339 50.3051 81.5766C49.6831 81.5479 49.0694 81.5343 48.4473 81.5337C48.1953 81.5295 48.1953 81.5295 47.9382 81.5253C46.7491 81.5221 45.7319 81.706 44.5887 82.0339C44.416 81.0624 44.324 80.1052 44.2886 79.1186C44.2801 78.9075 44.2715 78.6965 44.2627 78.479C44.3601 77.9181 44.3601 77.9181 44.7272 77.5063C46.0328 76.8525 47.7607 77.0633 49.1458 77.3902Z" fill="#241D45"/>
<path d="M102.939 75.088C103.628 76.3716 103.421 77.6229 103.353 79.061C101.844 79.061 100.335 79.061 98.7802 79.061C98.0452 76.2742 98.0452 76.2742 98.0942 75.1738C99.6772 74.611 101.394 74.3002 102.939 75.088Z" fill="#241D45"/>
<path d="M62.4242 99.6406C62.9622 100.083 63.0957 100.207 63.1817 100.913C63.1102 101.47 63.1102 101.47 62.6529 101.927C62.1765 101.818 61.7003 101.707 61.2256 101.59C59.1742 101.198 57.2751 101.433 55.3359 102.156C55.1095 102.231 54.8831 102.307 54.6499 102.385C54.916 100.045 54.916 100.045 55.636 99.3834C57.8289 98.6694 60.3078 98.6647 62.4242 99.6406Z" fill="#241D45"/>
<path d="M101.239 68.6003C102.921 69.5059 102.921 69.5059 103.354 70.3724C103.363 70.9058 103.364 71.4395 103.354 71.973C103.168 71.8984 102.983 71.8238 102.791 71.747C101.833 71.4731 100.999 71.4565 100.01 71.4728C99.7526 71.473 99.7526 71.473 99.49 71.4732C98.6829 71.4797 97.9566 71.5279 97.1803 71.7443C97.1494 71.3017 97.1272 70.8585 97.1088 70.4152C97.0955 70.1685 97.0823 69.9218 97.0686 69.6676C97.1803 69.0004 97.1803 69.0004 97.6938 68.5744C98.9222 68.0673 99.9942 68.1854 101.239 68.6003Z" fill="#241D45"/>
<path d="M49.3904 0.490715C50.2898 0.767744 50.7769 1.43234 51.2205 2.23244C51.3777 2.94699 51.3777 2.94699 51.2205 3.60438C50.6632 4.24748 50.6632 4.24748 50.0772 4.74767C50.0018 4.82312 49.9263 4.89858 49.8486 4.97632C49.1618 5.05645 48.6842 5.10504 48.0193 4.97632C47.3117 4.38666 46.978 4.03298 46.7671 3.14617C46.7048 2.28244 46.8565 1.80446 47.3333 1.08915C48.084 0.588735 48.5018 0.433389 49.3904 0.490715Z" fill="#D8B94B"/>
<path d="M101.825 43.0764C102.027 43.1047 102.23 43.1329 102.439 43.1621C102.556 43.4805 102.669 43.7998 102.782 44.1196C102.846 44.2973 102.909 44.4751 102.975 44.6582C103.149 45.3111 103.242 45.6914 103.125 46.3633C102.733 46.9666 102.264 47.4889 101.782 48.0211C101.655 48.1667 101.528 48.3123 101.397 48.4623C100.457 49.5266 100.457 49.5266 99.9238 49.7932C99.8904 48.9453 99.8702 48.0976 99.8523 47.2493C99.8428 47.01 99.8332 46.7707 99.8233 46.5241C99.7917 44.527 99.7917 44.527 100.453 43.6837C101.067 43.1621 101.067 43.1621 101.825 43.0764Z" fill="#241D45"/>
<path d="M135.095 91.0656C135.26 91.1788 135.425 91.292 135.595 91.4086C135.595 91.7104 135.595 92.0122 135.595 92.3232C135.302 92.3212 135.009 92.3191 134.707 92.317C131.983 92.3463 130.149 92.7204 127.821 94.1525C127.518 94.3085 127.213 94.4627 126.906 94.6098C126.966 93.7501 127.072 93.3153 127.621 92.6376C129.596 91.0061 132.611 89.8149 135.095 91.0656Z" fill="#241D45"/>
<path d="M113.013 90.2423C113.386 90.4941 113.386 90.4941 113.872 90.9514C113.796 91.3287 113.721 91.706 113.643 92.0947C113.403 92.1033 113.163 92.1118 112.915 92.1206C110.956 92.2065 109.26 92.3429 107.469 93.238C107.502 92.9092 107.535 92.5806 107.57 92.2519C107.588 92.0689 107.607 91.8859 107.626 91.6973C107.698 91.1801 107.698 91.1801 107.927 90.4941C109.404 89.8389 111.489 89.6316 113.013 90.2423Z" fill="#241D45"/>
<path d="M80.7165 54.1376C81.4755 54.5171 81.6071 55.2712 81.8982 56.0365C82.3645 57.5471 82.0956 58.6964 81.4025 60.0827C80.4215 60.0827 79.4406 60.0827 78.4299 60.0827C78.7596 59.2585 79.0978 58.4414 79.4446 57.6246C79.9252 56.4757 80.3406 55.3245 80.7165 54.1376Z" fill="#241D45"/>
<path d="M42.0742 106.371C42.9528 106.536 43.3221 106.731 43.9034 107.415C44.0854 108.561 44.0814 108.98 43.4318 109.944C42.7601 110.387 42.7601 110.387 41.9455 110.416C41.0124 110.11 40.7192 109.869 40.2449 109.015C40.1163 108.329 40.1163 108.329 40.2449 107.643C40.8075 106.882 41.1358 106.547 42.0742 106.371Z" fill="#D8B94B"/>
<path d="M74.7719 66.485C75.8282 66.485 76.8846 66.485 77.973 66.485C77.973 67.6168 77.973 68.7487 77.973 69.9148C76.9167 69.9148 75.8603 69.9148 74.7719 69.9148C74.7719 68.783 74.7719 67.6511 74.7719 66.485Z" fill="#D8B94B"/>
<path d="M68.8269 66.485C69.8833 66.485 70.9397 66.485 72.0281 66.485C72.0281 67.6168 72.0281 68.7487 72.0281 69.9148C70.9717 69.9148 69.9153 69.9148 68.8269 69.9148C68.8269 68.783 68.8269 67.6511 68.8269 66.485Z" fill="#D8B94B"/>
<path d="M59.4723 93.6225C60.8738 94.0963 61.9915 94.7911 63.1103 95.7528C62.3727 95.9998 62.0278 95.9652 61.3239 95.6528C59.4416 94.968 57.2752 95.1548 55.336 95.5242C55.2605 94.9205 55.185 94.3168 55.1073 93.6949C56.3313 93.0829 58.1759 93.3357 59.4723 93.6225Z" fill="#241D45"/>
<path d="M136.423 31.2718C137.445 31.7019 137.445 31.7019 137.881 32.1864C138.048 33.1886 137.997 33.6219 137.41 34.4587C136.738 34.9303 136.738 34.9303 135.909 35.0732C135.137 34.9303 135.137 34.9303 134.694 34.4444C134.409 33.6721 134.299 33.2293 134.451 32.415C135.497 31.2718 135.497 31.2718 136.423 31.2718Z" fill="#D8B94B"/>
<path d="M129.193 49.1074C130.052 49.8239 130.41 50.5302 130.564 51.6226C130.599 52.4653 130.585 53.2937 130.564 54.1378C129.508 54.1378 128.452 54.1378 127.363 54.1378C127.514 53.7605 127.665 53.3832 127.821 52.9945C128.017 52.4948 128.212 51.9945 128.407 51.494C128.556 51.1115 128.556 51.1115 128.708 50.7214C128.905 50.1818 129.071 49.6675 129.193 49.1074Z" fill="#241D45"/>
<path d="M100.61 99.6406C101.038 99.9121 101.038 99.9121 101.296 100.327C101.418 101.148 101.398 101.543 100.938 102.242C100.171 102.753 99.6842 102.745 98.7805 102.613C98.3231 102.256 98.3231 102.256 98.0945 101.699C98.1096 100.835 98.1446 100.309 98.709 99.6406C99.4371 99.3258 99.8573 99.4165 100.61 99.6406Z" fill="#D8B94B"/>
<path d="M107.469 85.0064C109.529 84.8729 111.249 84.8747 112.957 86.1497C113.362 86.6463 113.362 86.6463 113.643 87.0644C113.258 86.9521 113.258 86.9521 112.864 86.8375C111.78 86.5665 110.754 86.5549 109.642 86.5785C109.454 86.5805 109.266 86.5826 109.072 86.5847C108.614 86.59 108.156 86.5982 107.698 86.607C107.623 86.0788 107.547 85.5507 107.469 85.0064Z" fill="#241D45"/>
<path d="M58.9945 80.4333C59.447 80.4271 59.8996 80.4227 60.3522 80.419C60.6042 80.4163 60.8562 80.4137 61.1158 80.4109C61.7384 80.4333 61.7384 80.4333 61.967 80.6619C62.0099 81.3336 62.0099 81.3336 61.967 82.0339C61.5097 82.4912 61.5097 82.4912 60.9149 82.5359C60.6867 82.5305 60.4586 82.5252 60.2235 82.5198C59.8796 82.5136 59.8796 82.5136 59.5286 82.5073C59.3524 82.502 59.1761 82.4967 58.9945 82.4912C58.9945 81.8121 58.9945 81.133 58.9945 80.4333Z" fill="#241D45"/>
<path d="M109.299 72.6587C110.129 72.6587 110.959 72.6587 111.814 72.6587C111.814 73.3378 111.814 74.0169 111.814 74.7166C110.984 74.7166 110.154 74.7166 109.299 74.7166C109.299 74.0375 109.299 73.3584 109.299 72.6587Z" fill="#241D45"/>
<path d="M113.873 141.256C112.288 141.784 110.703 142.312 109.071 142.856C108.995 142.705 108.92 142.555 108.842 142.399C108.616 142.324 108.389 142.248 108.156 142.17C108.98 141.972 109.804 141.778 110.628 141.584C110.863 141.528 111.097 141.472 111.338 141.413C111.563 141.361 111.788 141.309 112.019 141.255C112.226 141.206 112.433 141.157 112.647 141.106C113.187 141.027 113.187 141.027 113.873 141.256Z" fill="#241D45"/>
<path d="M91.235 83.8632C91.3859 83.9387 91.5368 84.0141 91.6923 84.0919C90.9 84.771 90.9 84.771 90.0917 85.4638C89.9408 85.2374 89.7899 85.0111 89.6344 84.7778C90.8402 84.041 90.8402 84.041 91.235 83.8632Z" fill="#241D45"/>
<path d="M54.8786 93.4668C55.1049 93.5423 55.3313 93.6177 55.5645 93.6955C55.4136 93.6955 55.2627 93.6955 55.1072 93.6955C55.1827 93.8464 55.2581 93.9973 55.3359 94.1528C55.345 94.61 55.3458 95.0675 55.3359 95.5247C55.1095 95.4493 54.8831 95.3738 54.6499 95.2961C54.7254 94.6924 54.8008 94.0888 54.8786 93.4668Z" fill="#D8B94B"/>
</svg>
