<svg width="160" height="161" viewBox="0 0 160 161" fill="none" xmlns="http://www.w3.org/2000/svg">
<path d="M86.362 1.73389C86.5909 1.8448 86.8197 1.9557 87.0555 2.06997C89.7325 3.51764 91.3784 5.84215 92.3297 8.69622C92.5759 11.2354 92.1558 12.7117 90.6717 14.731C89.7662 15.9752 89.7662 15.9752 89.4236 17.4458C89.6405 18.6485 89.9734 19.0419 90.8378 19.8857C91.5862 20.2599 92.3561 20.1671 93.1768 20.1636C93.3689 20.1638 93.561 20.164 93.759 20.1642C94.4063 20.1645 95.0536 20.1631 95.7008 20.1617C96.1635 20.1616 96.6262 20.1617 97.089 20.1619C98.0873 20.1622 99.0856 20.1618 100.084 20.1611C101.663 20.1602 103.241 20.1624 104.82 20.1655C105.086 20.166 105.353 20.1665 105.627 20.167C106.172 20.1681 106.716 20.1691 107.261 20.1702C110.937 20.1772 114.614 20.1822 118.291 20.1779C120.769 20.175 123.247 20.1774 125.726 20.1858C127.038 20.1901 128.349 20.1917 129.661 20.1868C130.896 20.1823 132.13 20.1847 133.365 20.1923C133.818 20.1939 134.27 20.193 134.723 20.1892C138.572 20.1601 138.572 20.1601 139.717 21.1096C140.558 22.1763 140.599 22.6142 140.597 23.958C140.597 24.1206 140.597 24.2831 140.597 24.4506C140.597 24.9888 140.595 25.527 140.593 26.0651C140.593 26.4379 140.592 26.8107 140.592 27.1836C140.591 28.1655 140.589 29.1473 140.586 30.1292C140.583 31.1309 140.582 32.1326 140.581 33.1343C140.578 35.1002 140.574 37.0662 140.569 39.0321C140.256 39.0945 139.943 39.1569 139.621 39.2212C136.464 39.8499 136.464 39.8499 133.404 40.8348C133.211 40.9089 133.017 40.9831 132.817 41.0594C129.62 42.3225 127.068 44.0537 124.655 46.4917C124.406 46.7321 124.406 46.7321 124.153 46.9774C122.09 49.1188 120.872 52.0601 119.972 54.8547C119.478 56.311 118.705 57.0891 117.444 57.9298C116.864 57.9495 116.283 57.9517 115.703 57.9298C115.646 57.7641 115.589 57.5984 115.529 57.4277C114.927 55.7265 114.254 54.0827 113.465 52.4594C113.359 52.2395 113.252 52.0197 113.142 51.7931C112.049 49.6693 110.627 47.6065 108.914 45.9313C108.492 45.4971 108.492 45.4971 108.492 44.9998C108.351 44.9386 108.209 44.8773 108.063 44.8143C107.404 44.451 106.95 44.0153 106.41 43.4923C102.361 39.7937 95.5989 36.0546 90.0219 35.7559C89.3482 35.7466 89.3482 35.7466 88.8641 36.0948C88.5448 36.5466 88.5448 36.5466 88.6242 37.1575C88.7899 37.838 88.7899 37.838 89.4294 38.1297C89.6788 38.2172 89.9282 38.3047 90.1851 38.3949C93.8214 39.7865 96.8526 41.7722 98.7948 45.2484C99.1815 46.1456 99.5007 47.0508 99.7894 47.9836C99.8714 48.2298 99.9535 48.476 100.038 48.7296C100.323 52.7223 99.524 56.0754 96.8648 59.1886C94.6439 61.5043 91.4224 63.2681 88.1613 63.4355C87.916 63.4383 87.6706 63.4411 87.4178 63.4439C87.1436 63.4499 86.8694 63.4558 86.5869 63.4619C86.019 63.4725 85.4511 63.4803 84.8832 63.4852C82.8928 63.5348 80.5679 63.6942 78.9571 65.0032C77.8087 66.3296 77.5404 67.4654 77.5591 69.1737C77.6809 70.3183 77.9721 71.37 78.2808 72.4761C79.4086 76.6374 79.3453 80.5791 77.3143 84.4465C75.5499 87.2888 72.9021 89.2962 69.7022 90.2549C69.5406 90.3059 69.3791 90.3568 69.2126 90.4094C65.4891 91.4166 61.6955 90.6781 58.3884 88.7941C58.0098 88.5434 57.6363 88.2846 57.2694 88.017C57.097 87.8927 56.9246 87.7683 56.7469 87.6402C54.3635 85.7445 52.8359 83.0397 52.2964 80.0601C51.9561 76.2504 52.8659 73.4254 55.218 70.4403C57.2849 68.1587 60.1785 66.9149 63.0681 66.0305C63.4892 65.9198 63.4892 65.9198 63.7345 65.6381C63.7966 65.0269 63.7966 65.0269 63.7345 64.3948C63.2381 63.7898 63.2381 63.7898 62.2552 63.8276C60.8876 63.8603 59.6263 64.1632 58.3107 64.5192C58.0625 64.5854 57.8142 64.6516 57.5585 64.7198C51.0861 66.5104 43.3797 69.5294 39.9102 75.6309C39.077 77.6043 39.016 80.0821 39.7393 82.0959C41.2219 85.3056 44.0555 87.6002 47.0746 89.2914C47.3003 89.4193 47.526 89.5471 47.7586 89.6789C49.4847 90.6304 51.2236 91.36 53.1016 91.9498C53.7551 92.1555 54.3832 92.3708 55.0209 92.6162C57.5399 93.5738 60.1781 94.224 62.8331 94.6685C63.0895 94.7116 63.0895 94.7116 63.3512 94.7555C66.168 95.1951 68.9756 95.2681 71.82 95.2604C72.4036 95.2591 72.9872 95.2604 73.5709 95.262C79.3512 95.4339 79.3512 95.4339 84.6214 93.4874C85.0694 92.5916 85.043 91.7131 84.8701 90.7522C84.4879 89.97 84.0461 89.2507 83.5821 88.5143C81.6497 85.3296 81.285 81.1911 82.065 77.5687C82.5379 75.9612 83.2239 74.508 84.1241 73.0977C84.2525 72.8775 84.2525 72.8775 84.3835 72.6529C86.0339 70.0432 89.1225 68.1341 92.0811 67.3787C92.8259 67.2498 93.5651 67.1813 94.319 67.13C94.6493 67.1012 94.6493 67.1012 94.9863 67.0718C98.2465 66.9125 101.695 68.1049 104.2 70.1809C106.458 72.2677 108.115 74.8143 108.294 77.963C108.346 82.4073 107.177 85.3533 104.138 88.66C103.259 89.5124 102.297 90.2366 101.304 90.9504C100.711 91.4688 100.711 91.4688 100.676 92.2791C100.717 93.0213 100.717 93.0213 101.281 93.4874C102.624 93.7047 103.408 92.9852 104.457 92.2363C110.398 87.8992 114.691 81.3831 115.952 74.0924C116.167 72.6053 116.318 71.113 116.449 69.6166C116.712 69.593 116.712 69.593 116.98 69.569C119.51 69.2551 122.115 68.3589 123.909 66.4618C124.964 65.0851 125.648 63.4904 126.369 61.9226C127.436 59.6187 128.507 57.7157 130.374 55.9406C130.584 55.7324 130.584 55.7324 130.797 55.52C132.99 53.482 136.454 51.414 139.501 51.4516C139.701 51.4535 139.902 51.4554 140.108 51.4574C140.336 51.4611 140.336 51.4611 140.569 51.4648C140.57 51.677 140.572 51.8892 140.573 52.1078C140.588 54.1091 140.605 56.1102 140.627 58.1114C140.638 59.1402 140.648 60.169 140.655 61.1978C140.661 62.191 140.671 63.1841 140.684 64.1773C140.688 64.5559 140.691 64.9345 140.692 65.3131C140.695 65.8441 140.702 66.3749 140.71 66.9059C140.714 67.3589 140.714 67.3589 140.718 67.8211C140.827 68.6998 141.032 69.1634 141.563 69.8652C142.691 70.6173 143.723 70.5592 145.044 70.3625C145.861 70.034 146.609 69.6527 147.375 69.2213C148.963 68.3691 150.742 68.4547 152.504 68.622C153.372 68.9009 154.022 69.3115 154.742 69.8652C155.025 70.0778 155.025 70.0778 155.314 70.2946C157.855 72.3696 159.453 75.3318 159.964 78.5682C160.17 82.4931 159.54 86.1581 156.952 89.2516C155.113 91.2349 153.446 92.3029 150.717 92.5705C148.978 92.428 147.514 91.626 145.992 90.8144C144.961 90.293 144.227 90.0521 143.055 90.2549C141.949 90.8294 141.353 91.3744 140.817 92.4928C140.744 93.1379 140.709 93.7242 140.71 94.3687C140.707 94.5532 140.705 94.7377 140.702 94.9278C140.695 95.5346 140.692 96.1413 140.69 96.7481C140.686 97.17 140.681 97.5919 140.677 98.0139C140.665 99.122 140.657 100.23 140.651 101.338C140.643 102.47 140.632 103.602 140.621 104.734C140.599 106.953 140.583 109.172 140.569 111.391C140.099 111.509 140.099 111.509 139.62 111.63C136.464 112.425 136.464 112.425 133.42 113.566C133.226 113.651 133.032 113.735 132.832 113.822C125.09 117.283 118.34 123.807 115.22 131.769C114.737 133.164 114.346 134.582 113.963 136.007C113.874 136.301 113.786 136.595 113.695 136.898C113.493 137.646 113.381 138.315 113.326 139.084C113.242 140.209 113.242 140.209 112.968 140.483C112.318 140.51 111.674 140.521 111.023 140.522C110.82 140.524 110.616 140.525 110.406 140.526C109.962 140.529 109.517 140.531 109.073 140.533C108.37 140.536 107.666 140.54 106.963 140.546C104.962 140.561 102.962 140.575 100.961 140.583C99.739 140.588 98.5167 140.597 97.2943 140.608C96.8285 140.612 96.3626 140.614 95.8968 140.614C95.2438 140.616 94.591 140.621 93.938 140.628C93.7462 140.627 93.5543 140.627 93.3566 140.626C92.1684 140.644 91.3504 140.849 90.3405 141.478C89.6562 142.276 89.407 143.075 89.4391 144.135C89.7198 145.174 90.4102 145.945 91.0758 146.771C92.3059 148.404 92.5271 149.68 92.3297 151.673C91.8602 154.266 89.974 156.414 87.854 157.889C84.4623 159.844 80.3964 160.437 76.5441 159.716C73.3185 158.817 70.5247 157.179 68.8163 154.236C67.8519 152.354 67.246 150.51 67.8742 148.394C68.333 147.42 68.9441 146.662 69.64 145.845C70.4144 144.881 70.6772 144.209 70.5715 142.973C70.3386 142.028 69.8324 141.482 69.0397 140.952C68.2197 140.641 67.4283 140.663 66.5635 140.668C66.2757 140.666 66.2757 140.666 65.9821 140.665C65.3386 140.662 64.6951 140.663 64.0517 140.664C63.5905 140.663 63.1294 140.662 62.6682 140.66C61.6749 140.658 60.6816 140.656 59.6883 140.656C58.118 140.655 56.5477 140.651 54.9774 140.646C51.0769 140.634 47.1765 140.626 43.276 140.621C40.245 140.617 37.2141 140.611 34.1831 140.6C32.6218 140.595 31.0605 140.593 29.4991 140.593C28.5281 140.593 27.5571 140.589 26.586 140.585C26.1355 140.583 25.6849 140.583 25.2343 140.585C24.6195 140.586 24.0049 140.583 23.3901 140.579C23.2116 140.58 23.033 140.582 22.8491 140.584C21.495 140.567 20.7407 140.237 19.775 139.31C19.3504 138.51 19.372 137.761 19.3815 136.877C19.3806 136.688 19.3796 136.5 19.3786 136.305C19.3763 135.673 19.3793 135.04 19.3822 134.408C19.3816 133.954 19.3807 133.501 19.3794 133.048C19.3773 132.071 19.3775 131.094 19.3794 130.118C19.3823 128.573 19.3793 127.029 19.3753 125.485C19.3663 121.649 19.3647 117.813 19.3654 113.977C19.3658 110.996 19.364 108.016 19.3554 105.035C19.3513 103.5 19.3517 101.965 19.3556 100.43C19.3571 99.4749 19.3544 98.5197 19.3506 97.5644C19.3497 97.1216 19.3505 96.6787 19.3531 96.2359C19.3564 95.6309 19.3536 95.0263 19.3493 94.4213C19.3518 94.2464 19.3542 94.0715 19.3567 93.8913C19.3387 92.6546 19.0061 91.9527 18.2307 91.0009C17.1231 90.2625 16.3123 90.1559 14.9982 90.2549C14.324 90.4809 13.7032 90.786 13.0711 91.1097C10.9137 92.1757 8.84904 92.7479 6.43124 92.0742C5.93051 91.8366 5.50068 91.5744 5.05199 91.2495C4.90518 91.147 4.75838 91.0444 4.60713 90.9387C2.26149 89.1201 0.604292 86.1934 0.0788951 83.2926C0.00694897 82.4831 -0.00426532 81.6806 0.00119054 80.8682C0.00259286 80.6493 0.00399519 80.4304 0.00544001 80.2049C0.0705022 76.7002 1.15822 73.6613 3.56103 71.0551C4.45905 70.252 5.48173 69.6779 6.54391 69.1193C6.69777 69.0266 6.85162 68.934 7.01014 68.8386C8.40204 68.268 10.3459 68.3067 11.7746 68.795C12.431 69.0803 13.0632 69.3912 13.6862 69.7433C14.8768 70.3993 15.6625 70.4643 16.9874 70.3625C17.9405 70.0389 18.3536 69.818 18.8884 68.9612C19.2695 68.0148 19.3279 67.2115 19.3161 66.2089C19.3169 66.0208 19.3176 65.8328 19.3184 65.639C19.3202 65.0114 19.3166 64.3838 19.3131 63.7562C19.3133 63.3052 19.3138 62.8542 19.3147 62.4032C19.3159 61.4332 19.3149 60.4633 19.3122 59.4933C19.3081 57.9594 19.3103 56.4256 19.3134 54.8917C19.3209 50.8061 19.3205 46.7204 19.3158 42.6347C19.3128 39.9495 19.3132 37.2643 19.3204 34.5791C19.3242 33.0544 19.3223 31.5298 19.3163 30.0051C19.3138 29.0566 19.3164 28.1081 19.3205 27.1596C19.3214 26.72 19.3201 26.2803 19.3165 25.8407C19.312 25.2401 19.3151 24.6399 19.32 24.0393C19.3153 23.7789 19.3153 23.7789 19.3104 23.5132C19.3349 22.1338 19.7652 21.5593 20.7172 20.6316C21.6032 20.3363 22.4052 20.3481 23.327 20.3503C23.5185 20.3498 23.71 20.3493 23.9073 20.3487C24.5509 20.3472 25.1946 20.3475 25.8383 20.3477C26.299 20.347 26.7596 20.3461 27.2203 20.3451C28.2135 20.3431 29.2067 20.3419 30.1999 20.341C31.7702 20.3396 33.3406 20.3355 34.9109 20.3308C35.4484 20.3292 35.9858 20.3276 36.5232 20.326C36.7923 20.3253 37.0615 20.3245 37.3388 20.3237C40.9954 20.3132 44.652 20.305 48.3086 20.3019C50.7742 20.2999 53.2398 20.2943 55.7055 20.2847C57.0105 20.2798 58.3155 20.2767 59.6205 20.2779C60.8482 20.2791 62.0758 20.2757 63.3034 20.2687C63.7538 20.267 64.2043 20.267 64.6548 20.2688C65.2701 20.271 65.8851 20.2671 66.5004 20.2617C66.6784 20.2638 66.8564 20.2659 67.0398 20.2681C68.2841 20.2479 68.9871 19.9116 69.9508 19.1397C70.4904 18.453 70.6237 17.6445 70.6123 16.7736C70.2978 15.5901 69.477 14.646 68.7484 13.6819C67.6931 12.1942 67.5493 10.9755 67.7129 9.19353C68.1589 6.74284 69.4094 4.73235 71.3262 3.15103C75.7499 0.106205 81.4727 -0.691498 86.362 1.73389Z" fill="#D8B94B"/>
<path d="M51.0436 32.5291C53.8858 34.5446 56.1925 37.1918 56.9258 40.6891C56.9569 40.8807 56.988 41.0724 57.0201 41.2699C57.0713 41.5468 57.1226 41.8238 57.1755 42.1091C56.9621 43.0051 56.5128 43.289 55.7816 43.8099C55.1219 44.0664 54.7065 43.9428 54.0362 43.7564C54.0205 43.5994 54.0048 43.4423 53.9886 43.2805C53.6153 40.5532 52.4471 37.8462 50.3841 35.9685C49.2815 35.1676 48.0721 34.5989 46.8252 34.0589C46.6412 33.9653 46.4572 33.8717 46.2677 33.7753C45.2215 33.4493 44.2004 33.4699 43.1109 33.4684C42.7823 33.4592 42.7823 33.4592 42.447 33.4499C41.0051 33.4434 40.2283 33.625 39.1169 34.5562C38.8044 34.8166 38.8044 34.8166 38.8061 35.3954C38.8172 36.0361 38.8172 36.0361 39.1276 36.4551C39.8639 36.968 40.6284 36.8938 41.4947 36.9029C43.686 36.9826 45.7324 37.3965 47.3225 39.032C48.5561 40.7646 48.9932 42.1191 48.8145 44.2538C48.4072 45.5613 47.9175 46.4075 46.8252 47.2376C41.582 49.7966 34.9055 50.5398 29.1552 50.5944C28.7631 50.6013 28.7631 50.6013 28.3632 50.6083C26.6807 50.5948 25.1612 50.3602 23.7003 49.4755C22.9088 48.5692 22.8236 47.9775 22.8679 46.8005C23.0565 45.5843 23.8283 44.8238 24.7105 44.0362C25.4409 43.5078 25.4409 43.5078 26.1869 43.5078C26.249 44.9065 26.249 44.9065 25.6896 45.7457C25.6896 46.5124 25.6896 46.5124 25.9382 47.2376C26.645 47.6978 27.2826 47.817 28.114 47.8903C28.3127 47.9089 28.5114 47.9275 28.7162 47.9467C28.9412 47.9649 28.9412 47.9649 29.1707 47.9836C29.1313 47.8297 29.0919 47.6759 29.0513 47.5173C28.3162 43.0956 29.073 38.988 31.6573 35.3022C32.963 33.6866 34.5701 32.5649 36.3817 31.5724C36.6074 31.4454 36.833 31.3185 37.0655 31.1877C41.4012 29.1352 47.1559 29.9666 51.0436 32.5291Z" fill="#27204C"/>
<path d="M140.569 116.612C140.592 119.476 140.609 122.34 140.62 125.204C140.625 126.534 140.632 127.863 140.644 129.193C140.655 130.477 140.66 131.76 140.663 133.043C140.665 133.533 140.668 134.023 140.674 134.512C140.681 135.198 140.682 135.884 140.682 136.569C140.685 136.772 140.689 136.974 140.692 137.183C140.685 138.142 140.636 138.632 140.126 139.468C139.105 140.424 138.422 140.545 137.029 140.539C136.558 140.539 136.558 140.539 136.078 140.539C135.737 140.537 135.396 140.534 135.056 140.531C134.706 140.53 134.356 140.53 134.006 140.529C133.087 140.527 132.168 140.522 131.249 140.517C130.311 140.512 129.373 140.51 128.434 140.507C126.594 140.502 124.754 140.493 122.914 140.483C122.91 139.967 122.907 139.451 122.904 138.935C122.903 138.648 122.901 138.361 122.899 138.065C123.014 131.921 126.992 125.89 131.235 121.725C133.468 119.638 137.328 116.502 140.569 116.612Z" fill="#D8B94B"/>
<path d="M99.2907 100.947C100.424 101.085 100.424 101.085 100.783 101.444C100.827 101.914 100.869 102.385 100.905 102.856C101.148 105.83 101.747 109.278 103.961 111.472C106.686 113.525 109.685 114.183 113.029 114.514C113.961 114.623 113.961 114.623 114.707 115.12C114.49 116.332 114.49 116.332 114.21 116.612C113.852 116.66 113.491 116.692 113.131 116.719C112.907 116.737 112.684 116.755 112.453 116.774C111.986 116.81 111.518 116.846 111.051 116.879C108.064 117.129 105.507 117.918 103.44 120.186C101.618 122.512 101.164 125.227 100.891 128.128C100.783 129.045 100.783 129.045 100.285 129.542C99.5557 129.451 99.3245 129.327 98.7934 128.796C98.7254 128.154 98.7254 128.154 98.7002 127.351C98.4969 124.233 97.5575 121.431 95.2346 119.27C93.028 117.511 90.3657 117.061 87.6351 116.845C87.1642 116.807 86.6935 116.768 86.2228 116.728C86.0164 116.711 85.81 116.695 85.5974 116.678C85.1174 116.612 85.1174 116.612 84.8688 116.363C84.7975 115.687 84.7561 115.279 85.1573 114.713C85.7904 114.244 86.2452 114.282 87.029 114.265C90.3436 114.07 93.607 113.361 96.0242 110.923C98.1112 108.36 98.5012 105.126 98.708 101.932C98.7934 101.444 98.7934 101.444 99.2907 100.947Z" fill="#27204C"/>
<path d="M47.3855 117.514C48.6782 118.556 49.781 120.007 50.3072 121.585C50.5224 124.466 50.4441 126.587 48.5705 128.911C47.1018 130.52 45.679 131.384 43.5041 131.624C41.0628 131.712 38.9783 131.293 37.0352 129.76C35.7341 128.526 34.7388 126.682 34.5827 124.88C34.5247 122.342 34.9096 120.372 36.5535 118.384C39.5866 115.226 43.8156 115.088 47.3855 117.514Z" fill="#27204C"/>
<path d="M58.5035 36.5314C60.6154 36.6813 62.1868 37.3403 63.6087 38.9383C64.3784 39.8834 64.5681 40.7294 64.5479 41.9552C64.2897 44.0427 62.9056 45.9491 61.3552 47.2915C60.0247 48.3248 58.6868 49.1672 57.2058 49.9568C55.8069 50.7096 54.9262 51.5612 53.9947 52.8445C51.9559 55.5644 48.8222 57.2362 45.5132 57.8195C43.2851 58.0834 41.2199 58.2587 39.0795 57.4769C36.2901 56.4759 33.6248 56.5693 30.693 56.6549C29.9472 56.6738 29.2015 56.6907 28.4555 56.703C27.996 56.7108 27.5365 56.7224 27.0772 56.7386C25.2139 56.7746 23.55 56.4302 21.9279 55.4894C21.4617 54.9454 21.4617 54.9454 21.3529 54.1684C21.4617 53.4535 21.4617 53.4535 21.959 52.9562C22.7738 53.032 23.5058 53.2211 24.2902 53.4535C32.1084 55.6103 41.8908 53.065 49.311 50.4696C49.5264 50.3943 49.7418 50.319 49.9638 50.2414C54.2487 48.6275 58.9041 46.3992 61.4951 42.5127C61.6268 41.5004 61.6268 41.5004 61.4951 40.5235C60.4982 39.6013 59.2801 39.2195 58.0139 38.7829C57.7954 37.2531 57.7954 37.2531 57.7653 36.7936C58.0139 36.545 58.0139 36.545 58.5035 36.5314Z" fill="#27204C"/>
<path d="M117.987 25.9C118.438 26.1021 118.438 26.1021 118.686 26.3507C118.759 26.6932 118.82 27.0384 118.876 27.3842C119.338 30.7834 119.338 30.7834 121.173 33.5617C122.47 34.434 123.568 34.7525 125.105 34.9604C127.079 35.2408 127.079 35.2408 127.638 35.7996C127.669 36.4523 127.669 36.4523 127.638 37.0429C126.54 37.7222 125.255 37.7881 124.001 37.9578C122.483 38.1939 121.469 38.7203 120.38 39.8402C119.414 41.3065 119.103 42.6837 119.036 44.4287C118.914 45.1172 118.641 45.4706 118.189 45.9944C117.598 45.9167 117.598 45.9167 116.946 45.7458C116.411 44.9443 116.357 44.5537 116.246 43.6167C115.966 41.8099 115.4 40.2796 114.148 38.9233C112.514 37.9947 110.952 37.705 109.084 37.6412C108.388 37.5226 108.153 37.3633 107.745 36.7942C107.806 35.9632 107.896 35.649 108.491 35.0536C109.033 34.9631 109.577 34.8937 110.123 34.836C111.977 34.5892 113.653 34.2787 114.941 32.8313C115.92 31.3768 116.08 30.0007 116.208 28.289C116.294 27.43 116.397 26.9151 116.929 26.2244C117.443 25.8534 117.443 25.8534 117.987 25.9Z" fill="#27204C"/>
<path d="M55.0315 99.4555C55.6531 99.3778 55.6531 99.3778 56.2747 99.4555C56.9134 100.094 56.8884 100.48 57.0052 101.367C57.2646 103.023 57.4935 104.155 58.7147 105.377C60.0772 106.312 61.282 106.479 62.8971 106.557C63.5926 106.686 63.9505 106.955 64.4803 107.412C64.3871 108.019 64.3871 108.019 64.2317 108.656C63.271 109.136 62.0109 109.098 60.9487 109.204C59.3673 109.535 58.4384 110.344 57.518 111.64C57.0367 112.602 57.0498 113.766 56.9207 114.825C56.772 115.618 56.772 115.618 56.2747 116.115C55.6531 116.193 55.6531 116.193 55.0315 116.115C54.4702 115.273 54.4455 114.824 54.3477 113.831C54.1178 112.267 53.7743 111.183 52.5449 110.148C51.0137 109.216 49.454 109.031 47.6884 108.972C47.0745 108.904 47.0745 108.904 46.5772 108.407C46.6238 107.785 46.6238 107.785 46.8259 107.164C47.5988 106.648 48.0471 106.593 48.9514 106.522C50.5895 106.392 51.9295 106.25 53.1879 105.097C54.274 103.801 54.3826 102.435 54.4574 100.811C54.5342 100.201 54.5342 100.201 55.0315 99.4555Z" fill="#27204C"/>
<path d="M124.655 79.0654C125.356 80.1168 125.451 81.2051 125.679 82.4358C125.994 83.6684 126.372 84.3317 127.39 85.0953C128.592 85.7964 129.612 85.8476 130.972 85.9335C131.617 86.0277 131.617 86.0277 132.363 86.525C132.27 87.2555 132.27 87.2555 132.114 88.017C131.471 88.3387 130.953 88.3112 130.234 88.3433C128.812 88.4578 127.573 88.6632 126.395 89.5089C125.587 90.7608 125.476 92.1302 125.283 93.5932C125.152 94.2333 125.152 94.2333 124.655 94.7306C124.033 94.7928 124.033 94.7928 123.411 94.7306C122.776 94.0957 122.845 93.8086 122.805 92.9279C122.697 91.5894 122.56 90.6106 121.542 89.6497C120.246 88.6865 119.016 88.6166 117.432 88.5978C116.624 88.5059 116.294 88.3105 115.703 87.7683C115.781 87.0534 115.781 87.0534 115.952 86.2764C116.82 85.6975 117.225 85.7169 118.252 85.6858C119.694 85.5911 120.541 85.4447 121.671 84.5358C122.549 83.3542 122.601 81.9649 122.759 80.5389C123.03 79.2694 123.362 79.0654 124.655 79.0654Z" fill="#27204C"/>
<path d="M36.6314 91.4988C37.2058 91.5808 37.7802 91.6629 38.372 91.7474C38.4143 91.9814 38.4566 92.2154 38.5002 92.4565C38.869 94.8016 38.869 94.8016 40.1125 96.7205C41.5026 97.446 42.9727 97.5667 44.5174 97.6384C45.0856 97.7151 45.0856 97.7151 45.5829 98.2124C45.6762 98.8185 45.6762 98.8185 45.5829 99.4557C44.7823 100.258 44.1379 100.282 43.0342 100.295C41.5293 100.376 40.4917 100.672 39.3666 101.694C38.708 102.681 38.6695 103.587 38.5118 104.748C38.372 105.423 38.372 105.423 37.8747 105.921C37.2219 105.952 37.2219 105.952 36.6314 105.921C36.3117 105.281 36.2845 104.703 36.1962 103.994C35.9599 102.574 35.7563 101.872 34.6421 100.948C33.2971 100.278 31.9176 100.106 30.4315 100.03C29.9177 99.953 29.9177 99.953 29.4204 99.4557C29.3427 98.8341 29.3427 98.8341 29.4204 98.2124C30.3235 97.6104 30.9098 97.6098 31.9846 97.5131C33.4892 97.3638 33.4892 97.3638 34.8286 96.7205C35.5912 95.7038 35.8539 94.7144 36.1341 93.488C36.2322 93.1046 36.3306 92.7212 36.4293 92.338C36.496 92.061 36.5627 91.7841 36.6314 91.4988Z" fill="#27204C"/>
<path d="M47.348 149.639C47.5522 149.636 47.7564 149.633 47.9668 149.629C48.1867 149.628 48.4066 149.626 48.6332 149.624C48.974 149.621 48.974 149.621 49.3217 149.618C49.8026 149.614 50.2836 149.612 50.7645 149.61C51.4981 149.605 52.2313 149.594 52.9647 149.584C53.4324 149.581 53.9001 149.579 54.3678 149.577C54.5862 149.573 54.8046 149.568 55.0296 149.564C56.3872 149.569 57.2063 149.739 58.2637 150.678C58.5434 151.532 58.5434 151.532 58.5123 152.418C58.0731 153.115 57.7588 153.541 57.0204 153.91C56.6666 153.939 56.3115 153.952 55.9565 153.958C55.7366 153.962 55.5166 153.966 55.29 153.97C54.2835 153.981 53.2771 153.992 52.2705 153.997C51.7397 154.001 51.2089 154.008 50.6781 154.018C49.9129 154.031 49.1479 154.037 48.3826 154.04C48.1458 154.046 47.909 154.052 47.6651 154.057C46.5231 154.054 45.9984 154.035 45.0586 153.336C44.4418 152.46 44.4159 151.976 44.5877 150.926C45.3619 149.912 46.1046 149.656 47.348 149.639Z" fill="#D8B94B"/>
<path d="M48.1367 7.07258C48.3862 7.07163 48.6357 7.07068 48.8928 7.06969C49.4201 7.06902 49.9475 7.07085 50.4748 7.07501C51.281 7.08032 52.0866 7.07506 52.8927 7.06869C53.4054 7.06935 53.9181 7.07063 54.4308 7.07258C54.6714 7.07057 54.9121 7.06855 55.16 7.06648C56.2213 7.08122 56.8587 7.11246 57.793 7.64905C58.3544 8.30695 58.4107 8.81088 58.4277 9.66694C58.1549 10.5285 57.7303 10.8773 57.0193 11.4318C56.1781 11.619 55.353 11.612 54.4939 11.6057C54.2502 11.6074 54.0066 11.6092 53.7555 11.6111C53.2414 11.613 52.7273 11.6118 52.2131 11.6075C51.427 11.6028 50.642 11.6126 49.8559 11.6236C49.3557 11.6237 48.8554 11.6229 48.3552 11.6212C48.1208 11.625 47.8863 11.6288 47.6448 11.6327C46.066 11.6047 46.066 11.6047 45.4022 11.1187C44.7979 10.4347 44.5868 9.9417 44.4467 9.0385C44.5866 8.19929 44.5866 8.19929 44.9329 7.65779C45.9439 6.95115 46.9314 7.06252 48.1367 7.07258Z" fill="#D8B94B"/>
<path d="M105.081 7.07253C105.331 7.07158 105.58 7.07063 105.837 7.06965C106.365 7.06897 106.892 7.0708 107.419 7.07496C108.226 7.08028 109.031 7.07501 109.837 7.06864C110.35 7.0693 110.863 7.07058 111.375 7.07253C111.616 7.07052 111.857 7.0685 112.105 7.06643C113.171 7.08124 113.803 7.11114 114.74 7.6558C115.207 8.19925 115.207 8.19925 115.332 9.06954C115.206 9.9477 115.094 10.3262 114.461 10.9344C114.297 10.9344 114.133 10.9344 113.964 10.9344C113.964 11.0986 113.964 11.2627 113.964 11.4318C112.393 11.4633 110.823 11.4851 109.252 11.5001C108.717 11.5063 108.183 11.5148 107.649 11.5255C106.88 11.5407 106.112 11.5477 105.344 11.5532C105.105 11.5596 104.867 11.566 104.621 11.5726C103.459 11.5731 102.948 11.5654 102.002 10.8351C101.278 9.84099 101.359 9.40498 101.531 8.19925C102.378 6.854 103.651 7.06059 105.081 7.07253Z" fill="#D8B94B"/>
<path d="M124.014 6.89589C124.323 6.89288 124.323 6.89288 124.638 6.88981C125.073 6.88637 125.508 6.8837 125.943 6.88175C126.607 6.87746 127.271 6.86655 127.935 6.85558C128.359 6.85306 128.782 6.85095 129.205 6.84927C129.403 6.84491 129.601 6.84056 129.805 6.83607C130.789 6.83991 131.256 6.88451 132.108 7.42798C132.704 8.04669 132.839 8.29615 132.952 9.14641C132.829 10.1977 132.413 10.5179 131.616 11.1823C130.825 11.5776 129.97 11.4767 129.101 11.4814C128.9 11.4828 128.7 11.4843 128.493 11.4857C128.068 11.4881 127.643 11.4897 127.218 11.4907C126.57 11.4931 125.922 11.5008 125.274 11.5086C124.861 11.5103 124.448 11.5116 124.035 11.5125C123.745 11.5171 123.745 11.5171 123.449 11.5218C122.312 11.5172 121.573 11.4 120.675 10.685C120.058 9.75982 120.062 9.293 120.178 8.19841C121.217 6.83645 122.419 6.91062 124.014 6.89589Z" fill="#D8B94B"/>
<path d="M105.144 149.8C105.4 149.799 105.656 149.798 105.919 149.797C106.459 149.796 106.999 149.798 107.539 149.802C108.366 149.808 109.192 149.802 110.019 149.796C110.544 149.797 111.069 149.798 111.594 149.8C111.841 149.798 112.089 149.796 112.343 149.794C114.052 149.817 114.052 149.817 114.868 150.403C115.274 151.03 115.313 151.325 115.223 152.061C115.205 152.251 115.187 152.441 115.169 152.637C114.853 153.429 114.493 153.559 113.715 153.911C112.87 154.023 112.032 154.021 111.181 154.018C110.937 154.02 110.692 154.021 110.441 154.022C109.926 154.024 109.41 154.024 108.895 154.021C108.107 154.019 107.318 154.027 106.53 154.034C106.029 154.035 105.528 154.035 105.027 154.034C104.791 154.037 104.555 154.04 104.312 154.042C102.682 154.025 102.682 154.025 101.88 153.437C101.503 152.875 101.396 152.592 101.407 151.921C101.403 151.675 101.403 151.675 101.399 151.424C101.893 149.566 103.572 149.787 105.144 149.8Z" fill="#D8B94B"/>
<path d="M74.5505 30.7492C74.8582 30.7877 74.8582 30.7877 75.1721 30.8269C75.7837 31.7442 75.758 32.3689 75.8083 33.4446C75.9414 34.1902 76.1152 34.5313 76.664 35.0541C77.3093 35.2002 77.3093 35.2002 78.0161 35.1939C79.0724 35.2184 79.597 35.3384 80.3939 36.0487C80.2074 37.2298 80.2074 37.2298 79.6479 37.7893C79.036 37.8572 79.036 37.8572 78.3114 37.8825C77.4721 37.9506 76.9965 37.99 76.26 38.4109C75.8297 39.1932 75.7762 39.8588 75.7374 40.743C75.6694 41.2704 75.6694 41.2704 75.1721 42.0164C74.5505 42.0941 74.5505 42.0941 73.9288 42.0164C73.3259 41.4134 73.3413 41.1353 73.2295 40.3069C73.0692 39.4777 72.9696 39.0793 72.4525 38.3953C71.4874 37.9424 70.6412 37.9062 69.5832 37.8815C68.9558 37.7893 68.9558 37.7893 68.4963 37.4493C68.2098 37.0433 68.2098 37.0433 68.2564 36.4061C68.4584 35.8 68.4584 35.8 68.9558 35.3027C69.7511 35.1878 70.5395 35.1067 71.3403 35.0453C72.3172 34.966 72.3172 34.966 73.043 34.3703C73.2502 33.5413 73.2956 32.7322 73.3461 31.8818C73.4726 31.0564 73.7308 30.8517 74.5505 30.7492Z" fill="#27204C"/>
<path d="M8.67432 47.098C9.64868 47.2575 9.93328 47.4604 10.5237 48.2325C10.9323 49.0498 10.8236 49.9572 10.8316 50.856C10.8336 51.0676 10.8356 51.2792 10.8377 51.4972C10.8411 51.9456 10.8438 52.3939 10.8457 52.8423C10.85 53.5267 10.8609 54.2108 10.8719 54.8952C10.8744 55.3308 10.8765 55.7664 10.8782 56.2021C10.8826 56.4062 10.8869 56.6104 10.8914 56.8207C10.8876 57.8203 10.8483 58.3076 10.2995 59.1725C9.67019 59.7733 9.43161 59.9028 8.56553 59.997C7.78849 59.9193 7.78849 59.9193 7.21348 59.453C6.09489 58.0445 6.46927 55.9394 6.45816 54.2087C6.45405 53.7381 6.44726 53.2676 6.43777 52.7971C6.42414 52.1183 6.41871 51.4398 6.41506 50.7608C6.40942 50.5512 6.40379 50.3417 6.39798 50.1257C6.40185 49.0473 6.44627 48.6113 7.11962 47.7258C7.78849 47.2379 7.78849 47.2379 8.67432 47.098Z" fill="#D8B94B"/>
<path d="M123.952 149.624C124.152 149.622 124.351 149.62 124.557 149.618C124.979 149.614 125.402 149.612 125.824 149.61C126.468 149.605 127.111 149.594 127.754 149.584C128.165 149.581 128.576 149.579 128.987 149.577C129.274 149.571 129.274 149.571 129.567 149.564C130.857 149.569 131.586 149.826 132.611 150.678C132.97 151.396 132.954 151.87 132.86 152.667C132.363 153.347 131.964 153.829 131.119 154.027C130.512 154.075 129.917 154.083 129.309 154.075C129.087 154.077 128.866 154.078 128.637 154.079C128.17 154.08 127.703 154.077 127.235 154.072C126.521 154.066 125.808 154.072 125.094 154.08C124.639 154.079 124.184 154.078 123.73 154.075C123.517 154.078 123.304 154.08 123.085 154.083C122.004 154.062 121.551 154.008 120.665 153.334C120.178 152.667 120.178 152.667 120.039 151.781C120.199 150.803 120.388 150.515 121.173 149.932C122.104 149.621 122.981 149.633 123.952 149.624Z" fill="#D8B94B"/>
<path d="M30.4857 7.04787C30.7072 7.04727 30.9288 7.04667 31.1571 7.04605C31.6244 7.0463 32.0918 7.04962 32.559 7.05582C33.273 7.06436 33.9862 7.06096 34.7002 7.05613C35.1551 7.05784 35.61 7.06025 36.0648 7.06341C36.3839 7.06156 36.3839 7.06156 36.7093 7.05968C37.7103 7.07938 38.2529 7.13257 39.1288 7.65694C39.6159 8.19887 39.6159 8.19887 39.7714 9.05362C39.5804 10.1419 39.2096 10.4887 38.3727 11.1827C38.2496 11.3058 38.2496 11.3058 38.124 11.4314C36.7603 11.5042 35.3958 11.5095 34.0303 11.5184C33.5701 11.5225 33.11 11.5293 32.6499 11.5388C31.9866 11.5525 31.3238 11.5579 30.6605 11.5615C30.3531 11.57 30.3531 11.57 30.0395 11.5786C28.9737 11.5747 28.5533 11.5295 27.6827 10.856C27.0502 10.0103 26.8968 9.50346 26.9346 8.44753C27.9491 7.03743 28.8765 7.02293 30.4857 7.04787Z" fill="#D8B94B"/>
<path d="M8.53445 100.807C9.4443 100.978 9.86517 101.302 10.5237 101.942C10.9257 102.746 10.8182 103.627 10.8229 104.511C10.8243 104.717 10.8257 104.923 10.8271 105.135C10.8295 105.572 10.8311 106.008 10.8321 106.445C10.8345 107.112 10.8422 107.778 10.85 108.444C10.8517 108.868 10.853 109.293 10.8539 109.717C10.857 109.916 10.8601 110.114 10.8632 110.319C10.8587 111.464 10.7598 112.196 10.0264 113.131C9.29609 113.642 8.66877 113.782 7.78849 113.628C6.16211 111.912 6.47282 110.002 6.45816 107.775C6.45405 107.317 6.44726 106.858 6.43777 106.4C6.42413 105.738 6.41871 105.077 6.41506 104.416C6.40942 104.211 6.40379 104.007 6.39798 103.797C6.40192 102.726 6.44949 102.314 7.12836 101.438C7.78849 100.947 7.78849 100.947 8.53445 100.807Z" fill="#D8B94B"/>
<path d="M151.12 47.0824C152.255 47.2816 152.553 47.569 153.249 48.4811C153.431 49.251 153.429 50.0002 153.423 50.7889C153.425 51.0105 153.426 51.2321 153.428 51.4604C153.43 51.9277 153.429 52.395 153.425 52.8623C153.42 53.5764 153.43 54.2894 153.441 55.0034C153.441 55.4583 153.44 55.9132 153.438 56.3681C153.442 56.5808 153.446 56.7935 153.45 57.0126C153.422 58.4507 153.422 58.4507 152.931 59.0896C152.301 59.641 151.802 59.9102 150.98 60.0746C150.265 59.9192 150.265 59.9192 149.731 59.4321C149.098 58.3935 149.127 57.5623 149.138 56.3681C149.137 56.1465 149.137 55.9249 149.136 55.6966C149.135 55.2293 149.137 54.762 149.141 54.2947C149.146 53.5808 149.141 52.8675 149.135 52.1536C149.135 51.6987 149.136 51.2438 149.138 50.7889C149.136 50.5762 149.134 50.3635 149.132 50.1444C149.148 49.1424 149.198 48.6021 149.723 47.7249C150.265 47.2378 150.265 47.2378 151.12 47.0824Z" fill="#D8B94B"/>
<path d="M152.007 100.947C152.682 101.442 153.167 101.837 153.364 102.678C153.41 103.27 153.416 103.85 153.406 104.443C153.407 104.659 153.408 104.875 153.408 105.098C153.408 105.554 153.405 106.009 153.398 106.465C153.39 107.161 153.393 107.856 153.398 108.552C153.396 108.995 153.394 109.439 153.391 109.883C153.392 110.09 153.393 110.297 153.395 110.511C153.375 111.497 153.32 112.021 152.797 112.881C152.036 113.581 151.54 113.664 150.515 113.628C149.818 113.132 149.35 112.734 149.157 111.875C149.111 111.251 149.106 110.639 149.115 110.014C149.115 109.786 149.114 109.558 149.113 109.324C149.114 108.844 149.117 108.364 149.123 107.884C149.132 107.149 149.128 106.415 149.123 105.68C149.125 105.213 149.127 104.746 149.131 104.279C149.129 104.06 149.128 103.84 149.127 103.614C149.156 102.103 149.156 102.103 149.724 101.307C150.534 100.768 151.057 100.797 152.007 100.947Z" fill="#D8B94B"/>
<path d="M129.644 98.7242C130.278 99.0308 130.361 99.3069 130.623 99.9519C130.701 100.523 130.732 101.087 130.762 101.662C130.899 102.321 131.073 102.544 131.618 102.936C132.15 103.051 132.15 103.051 132.721 103.06C133.432 103.12 133.843 103.178 134.493 103.495C134.85 103.93 134.85 103.93 134.943 104.568C134.85 105.174 134.85 105.174 134.353 105.671C133.909 105.714 133.462 105.737 133.016 105.749C131.903 105.832 131.903 105.832 130.965 106.417C130.574 107.27 130.483 107.976 130.442 108.906C130.374 109.401 130.374 109.401 129.877 109.898C129.24 109.836 129.24 109.836 128.634 109.649C128.353 109.087 128.318 108.672 128.261 108.049C128.197 107.358 128.109 106.833 127.888 106.168C127.663 106.138 127.438 106.108 127.207 106.077C126.914 106.035 126.62 105.994 126.318 105.951C126.027 105.91 125.735 105.87 125.435 105.828C124.655 105.671 124.655 105.671 123.909 105.174C123.832 104.428 123.832 104.428 123.909 103.682C124.683 102.908 125.625 102.984 126.682 102.851C127.438 102.676 127.713 102.583 128.136 101.941C128.252 101.343 128.252 101.343 128.261 100.698C128.301 99.5631 128.301 99.5631 128.734 99.0029C129.131 98.7086 129.131 98.7086 129.644 98.7242Z" fill="#27204C"/>
<path d="M30.4599 149.824C30.6819 149.823 30.9038 149.822 31.1325 149.82C31.6012 149.819 32.07 149.819 32.5388 149.821C33.2549 149.823 33.9705 149.816 34.6866 149.808C35.1426 149.808 35.5986 149.808 36.0547 149.809C36.3749 149.805 36.3749 149.805 36.7015 149.8C37.7123 149.812 38.2466 149.856 39.1289 150.391C39.6145 150.927 39.6145 150.927 39.7544 151.657C39.5852 152.578 39.2667 152.996 38.6199 153.662C37.8026 154.071 36.8951 153.962 35.9964 153.97C35.7848 153.972 35.5732 153.974 35.3552 153.976C34.9068 153.979 34.4585 153.982 34.0101 153.984C33.3257 153.988 32.6416 153.999 31.9572 154.01C31.5216 154.013 31.0859 154.015 30.6503 154.016C30.4462 154.021 30.242 154.025 30.0317 154.03C29.0331 154.026 28.5417 153.983 27.6741 153.442C27.1087 152.838 27.0185 152.597 27.0419 151.781C27.0416 151.591 27.0413 151.401 27.0409 151.205C27.1818 150.678 27.1818 150.678 27.5452 150.279C28.4965 149.756 29.3909 149.821 30.4599 149.824Z" fill="#D8B94B"/>
<path d="M30.6621 61.4114C31.1612 61.4827 31.6588 61.5653 32.154 61.6601C32.1905 61.9077 32.1905 61.9077 32.2278 62.1603C32.5019 64.006 32.5019 64.006 33.6459 65.3899C34.351 65.5106 35.0299 65.5609 35.7449 65.5793C36.3811 65.6386 36.3811 65.6386 37.1271 66.1359C36.9406 67.317 36.9406 67.317 36.3811 67.8765C35.5523 68.0237 34.7231 68.1143 33.8868 68.2096C33.0727 68.3013 33.0727 68.3013 32.6513 69.1197C32.5609 69.6958 32.5263 70.2641 32.4881 70.8457C32.4027 71.3576 32.4027 71.3576 31.9053 71.8549C31.2837 71.9326 31.2837 71.9326 30.6621 71.8549C30.1036 71.0173 30.0827 70.5703 30.0259 69.6015C29.8801 68.9618 29.7045 68.7553 29.1701 68.3738C28.4515 68.1943 28.4515 68.1943 27.6627 68.1096C26.2381 67.9283 26.2381 67.9283 25.689 67.3792C25.6001 66.6863 25.5667 66.3008 25.9901 65.7299C26.5679 65.2883 26.9421 65.2995 27.6627 65.2811C28.4424 65.2176 28.8579 65.1778 29.5431 64.7838C30.032 63.9486 30.1665 63.1436 30.3153 62.1933C30.4134 61.6601 30.4134 61.6601 30.6621 61.4114Z" fill="#27204C"/>
<path d="M80.6583 118.897C81.14 119.099 81.14 119.099 81.6374 119.597C81.6966 120.091 81.6966 120.091 81.7151 120.669C81.7998 121.531 81.8841 121.832 82.3833 122.58C83.2552 123.162 83.8445 123.234 84.8728 123.267C85.3672 123.326 85.3672 123.326 85.8645 123.824C85.9266 124.445 85.9266 124.445 85.8645 125.067C85.1241 125.807 84.2991 125.746 83.2857 125.873C82.6116 126.011 82.6116 126.011 82.1813 126.504C81.8569 127.111 81.7815 127.524 81.7461 128.206C81.6894 129.242 81.6894 129.242 81.14 129.791C80.5184 129.745 80.5184 129.745 79.8968 129.543C79.4183 128.825 79.3315 128.61 79.2596 127.802C79.1996 127.156 79.1109 126.688 78.9022 126.062C78.5651 126.021 78.5651 126.021 78.2213 125.979C77.928 125.94 77.6347 125.9 77.3325 125.86C77.0412 125.822 76.7498 125.785 76.4496 125.746C75.6696 125.564 75.6696 125.564 75.1772 125.251C74.9237 124.818 74.9237 124.818 75.0014 124.15C75.086 123.865 75.086 123.865 75.1723 123.575C75.397 123.536 75.6217 123.496 75.8532 123.456C76.1465 123.398 76.4398 123.34 76.742 123.28C77.0333 123.225 77.3247 123.17 77.6249 123.114C78.4358 122.894 78.4358 122.894 78.874 122.243C79.1294 121.637 79.2445 121.21 79.2751 120.56C79.3995 119.597 79.3995 119.597 79.7258 119.084C80.1454 118.851 80.1454 118.851 80.6583 118.897Z" fill="#27204C"/>
<path d="M81.6375 44.7506C82.2592 44.7972 82.2592 44.7972 82.8808 44.9993C83.3921 45.7662 83.4331 45.9763 83.4713 46.8486C83.5464 47.593 83.6082 47.9522 83.9997 48.6047C84.7834 49.075 85.4289 49.1188 86.3318 49.1584C86.8593 49.2264 86.8593 49.2264 87.6052 49.7237C87.6829 50.3453 87.6829 50.3453 87.6052 50.967C86.8886 51.6836 86.2258 51.5578 85.2449 51.6032C84.5012 51.7341 84.1551 51.9209 83.6267 52.4589C83.4816 52.9979 83.4816 52.9979 83.4869 53.5778C83.468 54.2432 83.4447 54.5957 83.076 55.1552C82.6321 55.4427 82.6321 55.4427 81.9639 55.365C81.6792 55.2804 81.6792 55.2804 81.3889 55.1941C81.3494 55.0053 81.31 54.8165 81.2694 54.622C80.955 53.1458 80.955 53.1458 80.13 51.9305C79.2408 51.6656 78.3862 51.5749 77.4619 51.5167C76.9131 51.4643 76.9131 51.4643 76.4158 51.2156C76.3847 50.5007 76.3847 50.5007 76.4158 49.7237C77.1849 48.9545 78.1121 49.039 79.1646 48.9175C80.0353 48.6935 80.361 48.4552 80.8915 47.7345C81.0449 47.111 81.0449 47.111 81.047 46.4601C81.0919 45.2963 81.0919 45.2963 81.6375 44.7506Z" fill="#27204C"/>
<path d="M94.941 73.5328C95.5626 73.5949 95.5626 73.5949 96.0599 74.0922C96.1449 74.6493 96.1697 75.1985 96.1988 75.7609C96.3392 76.489 96.5196 76.8076 97.0545 77.3248C97.8424 77.6059 97.8424 77.6059 98.7174 77.7599C99.0107 77.8202 99.304 77.8804 99.6062 77.9425C99.8308 77.9848 100.056 78.0271 100.287 78.0707C100.458 78.6457 100.458 78.6457 100.536 79.314C100.272 79.7482 100.272 79.7482 99.7897 80.06C99.0817 80.2241 99.0817 80.2241 98.2823 80.3241C97.1693 80.4222 97.1693 80.4222 96.3086 81.0546C96.2239 81.6197 96.1988 82.1771 96.1697 82.7476C96.0369 83.4065 95.8513 83.6428 95.314 84.0384C94.2146 83.9337 94.2146 83.9337 93.822 83.5411C93.7702 83.1798 93.7306 82.8167 93.6977 82.4533C93.6342 81.7575 93.5478 81.2266 93.3247 80.5573C93.0792 80.5271 92.8337 80.497 92.5807 80.466C92.2621 80.4243 91.9435 80.3826 91.6152 80.3397C91.2979 80.2993 90.9806 80.2589 90.6536 80.2173C89.8436 80.06 89.8436 80.06 89.3462 79.5626C89.2841 78.941 89.2841 78.941 89.3462 78.3194C89.9383 77.7274 90.1085 77.7581 90.9159 77.7133C91.8926 77.6252 92.5346 77.4447 93.3247 76.8274C93.6814 76.1141 93.6676 75.4015 93.7278 74.6129C93.873 73.8106 94.1412 73.6127 94.941 73.5328Z" fill="#27204C"/>
<path d="M66.0792 73.5328C66.3946 73.5635 66.3946 73.5635 66.7164 73.5949C67.3458 74.5391 67.384 75.3453 67.5226 76.4554C67.6505 77.0997 67.6505 77.0997 68.1539 77.4015C68.9168 77.6392 69.6468 77.6839 70.4404 77.7366C70.9435 77.8221 70.9435 77.8221 71.4408 78.3194C71.3942 78.941 71.3942 78.941 71.1922 79.5626C70.3119 80.1495 69.7715 80.1458 68.7445 80.1988C68.0786 80.3351 67.8571 80.5049 67.4623 81.0546C67.3378 81.5949 67.3378 81.5949 67.3225 82.1735C67.2745 83.0449 67.2254 83.2749 66.7164 84.0384C66.0947 84.1161 66.0947 84.1161 65.4731 84.0384C64.8756 83.4409 64.9178 83.2686 64.8825 82.4533C64.8079 81.7278 64.7413 81.3289 64.3852 80.6816C63.48 80.1643 62.6398 80.1639 61.6092 80.1279C60.9973 80.06 60.9973 80.06 60.5 79.5626C60.4118 78.8749 60.3804 78.4855 60.7924 77.9134C61.5574 77.34 62.4094 77.4687 63.3362 77.45C64.0026 77.3813 64.0026 77.3813 64.4221 76.8993C64.7595 76.2697 64.8925 75.7439 65.0069 75.0402C65.2442 73.6184 65.2442 73.6184 66.0792 73.5328Z" fill="#27204C"/>
<path d="M78.8083 100.512C79.3989 100.698 79.3989 100.698 79.6475 100.947C79.7082 101.637 79.743 102.327 79.7777 103.02C79.8484 103.68 79.8484 103.68 80.2099 104.135C80.7471 104.499 81.1005 104.526 81.7455 104.552C82.6673 104.623 83.1982 104.746 83.8746 105.423C83.6571 106.635 83.6571 106.635 83.3773 106.914C82.8761 106.973 82.3731 107.017 81.8699 107.054C81.4578 107.086 81.4578 107.086 81.0375 107.117C80.8249 107.133 80.6124 107.148 80.3935 107.163C80.3935 107.327 80.3935 107.491 80.3935 107.66C80.2294 107.66 80.0653 107.66 79.8962 107.66C79.884 107.849 79.8718 108.038 79.8593 108.233C79.8407 108.48 79.8221 108.727 79.8029 108.981C79.7856 109.227 79.7683 109.472 79.7505 109.724C79.6475 110.396 79.6475 110.396 79.1502 111.142C78.5286 111.235 78.5286 111.235 77.9069 111.142C77.3913 110.368 77.3601 110.171 77.3319 109.292C77.2491 108.471 77.2002 108.208 76.6792 107.536C75.7608 107.086 74.9932 107.022 73.9799 106.982C73.4311 106.914 73.4311 106.914 72.9338 106.417C73.0158 105.597 73.0887 105.268 73.6798 104.677C74.3014 104.591 74.9161 104.567 75.5428 104.538C76.2903 104.406 76.6341 104.228 77.161 103.682C77.3066 103.086 77.3066 103.086 77.3008 102.439C77.3296 101.303 77.3296 101.303 77.7486 100.741C78.1556 100.449 78.1556 100.449 78.8083 100.512Z" fill="#27204C"/>
<path d="M8.37736 118.446C9.43897 118.629 10.103 119.011 10.7707 119.845C10.918 120.559 10.97 121.061 10.9513 121.772C10.9516 121.955 10.9518 122.138 10.9521 122.326C10.9509 122.711 10.9461 123.097 10.9378 123.482C10.9261 124.07 10.9276 124.657 10.9309 125.245C10.9282 125.621 10.9246 125.996 10.9202 126.372C10.9209 126.634 10.9209 126.634 10.9216 126.901C10.8875 128.091 10.6172 128.705 9.77604 129.542C8.9981 129.931 8.39451 129.879 7.53815 129.791C6.77509 129.086 6.55962 128.663 6.41484 127.627C6.40832 127.274 6.40748 126.92 6.41144 126.566C6.41048 126.378 6.40953 126.189 6.40855 125.995C6.40788 125.598 6.4097 125.201 6.41386 124.804C6.41919 124.198 6.41391 123.593 6.40755 122.987C6.40821 122.6 6.40948 122.213 6.41144 121.826C6.40942 121.646 6.40741 121.466 6.40533 121.28C6.42174 120.39 6.52614 119.873 6.99665 119.109C7.53815 118.601 7.53815 118.601 8.37736 118.446Z" fill="#D8B94B"/>
<path d="M8.65878 30.9202C9.7711 31.1188 10.078 31.4376 10.7723 32.3189C10.8938 33.0138 10.9418 33.5539 10.9287 34.2459C10.9293 34.4289 10.9299 34.6118 10.9305 34.8003C10.9303 35.1857 10.927 35.5711 10.9208 35.9564C10.9122 36.5443 10.9156 37.1314 10.9205 37.7193C10.9188 38.0949 10.9163 38.4705 10.9132 38.846C10.9144 39.0206 10.9156 39.1953 10.9169 39.3752C10.8885 40.567 10.6205 41.1782 9.77772 42.0164C9.07922 42.3656 8.56228 42.3269 7.78849 42.265C7.00873 41.8225 6.8334 41.6377 6.54522 40.7731C6.47682 39.5736 6.46731 38.3743 6.45816 37.1731C6.45404 36.7766 6.44726 36.3801 6.43777 35.9837C6.42412 35.4102 6.4187 34.8371 6.41506 34.2634C6.40942 34.0872 6.40379 33.9111 6.39798 33.7296C6.40207 32.7662 6.51908 32.3522 7.12059 31.5854C7.78849 31.0756 7.78849 31.0756 8.65878 30.9202Z" fill="#D8B94B"/>
<path d="M151.4 118.321C152.23 118.705 152.669 119.134 153.249 119.844C153.365 120.543 153.407 121.086 153.388 121.78C153.387 122.055 153.387 122.055 153.386 122.336C153.384 122.723 153.379 123.109 153.37 123.496C153.358 124.086 153.355 124.676 153.354 125.267C153.35 125.643 153.346 126.019 153.342 126.396C153.34 126.572 153.339 126.748 153.338 126.929C153.316 127.831 153.281 128.545 152.752 129.293C151.824 129.912 151.363 129.925 150.265 129.791C149.494 129.079 149.286 128.65 149.134 127.604C149.124 127.24 149.12 126.876 149.121 126.511C149.119 126.317 149.117 126.123 149.115 125.924C149.112 125.515 149.112 125.106 149.114 124.697C149.115 124.073 149.104 123.45 149.091 122.826C149.09 122.428 149.09 122.03 149.09 121.632C149.086 121.446 149.081 121.261 149.076 121.069C149.089 120.348 149.132 119.769 149.593 119.194C150.187 118.675 150.599 118.36 151.4 118.321Z" fill="#D8B94B"/>
<path d="M151.399 31.0755C152.357 31.3541 152.657 31.5289 153.249 32.3188C153.351 33.0049 153.394 33.5902 153.39 34.276C153.392 34.5592 153.392 34.5592 153.394 34.8481C153.396 35.2467 153.395 35.6453 153.392 36.0438C153.389 36.652 153.397 37.2593 153.407 37.8674C153.407 38.2554 153.406 38.6434 153.405 39.0315C153.408 39.2123 153.412 39.3931 153.415 39.5794C153.397 40.549 153.277 40.9858 152.673 41.758C152.005 42.265 152.005 42.265 151.12 42.4204C150.265 42.265 150.265 42.265 149.723 41.7614C149.151 40.8265 149.122 40.0415 149.129 38.9771C149.128 38.7825 149.126 38.5879 149.125 38.3875C149.123 37.9777 149.124 37.5678 149.127 37.158C149.13 36.5313 149.122 35.9055 149.112 35.2788C149.112 34.8798 149.113 34.4807 149.114 34.0817C149.109 33.8015 149.109 33.8015 149.104 33.5157C149.121 32.5697 149.195 32.1519 149.846 31.4471C150.514 31.0755 150.514 31.0755 151.399 31.0755Z" fill="#D8B94B"/>
<path d="M62.0083 25.558C62.7387 25.6047 62.7387 25.6047 62.9873 25.8533C63.0052 26.2311 63.0082 26.6096 63.0029 26.9878C63.0006 27.1933 62.9984 27.3987 62.9961 27.6104C62.9932 27.7691 62.9903 27.9277 62.9873 28.0912C63.2591 28.0758 63.531 28.0604 63.811 28.0446C64.7279 28.0912 64.7279 28.0912 65.2252 28.3865C65.4739 28.8372 65.4739 28.8372 65.4117 29.4899C65.2252 30.0804 65.2252 30.0804 64.9766 30.3291C64.3125 30.3642 63.6527 30.3397 62.9873 30.3291C62.9931 30.4849 62.9989 30.6407 63.0048 30.8012C63.0116 31.106 63.0116 31.106 63.0184 31.417C63.0242 31.6189 63.03 31.8208 63.0359 32.0289C62.9873 32.567 62.9873 32.567 62.49 33.0643C61.8684 33.1265 61.8684 33.1265 61.2468 33.0643C61.0826 32.9002 60.9185 32.7361 60.7494 32.567C60.7553 32.0289 60.7553 32.0289 60.8427 31.417C60.8703 31.2138 60.8978 31.0105 60.9262 30.8012C60.9618 30.5675 60.9618 30.5675 60.9981 30.3291C60.8215 30.332 60.6449 30.3349 60.4629 30.3378C60.2344 30.3401 60.0058 30.3423 59.7704 30.3446C59.5425 30.3475 59.3146 30.3504 59.0798 30.3534C58.5116 30.3291 58.5116 30.3291 58.2629 30.0804C58.2163 29.35 58.2163 29.35 58.2629 28.5885C58.7602 28.0912 58.7602 28.0912 59.2439 28.0426C59.7458 28.0588 60.2476 28.075 60.7494 28.0912C60.7392 27.7732 60.7289 27.4553 60.7184 27.1277C60.7009 26.5857 60.7009 26.5857 60.7494 26.102C61.2468 25.6047 61.2468 25.6047 62.0083 25.558Z" fill="#27204C"/>
<path d="M105.508 57.1838C106.098 57.1528 106.098 57.1528 106.751 57.1838C107.248 57.6811 107.248 57.6811 107.279 58.5825C107.269 58.8595 107.259 59.1364 107.248 59.4217C107.474 59.4063 107.7 59.391 107.932 59.3751C108.812 59.4259 109.101 59.5822 109.735 60.1677C109.642 60.8981 109.642 60.8981 109.486 61.6596C108.751 62.0272 108.058 61.9233 107.248 61.9083C107.258 62.1852 107.269 62.4621 107.279 62.7475C107.248 63.6489 107.248 63.6489 106.751 64.1462C106.129 64.2083 106.129 64.2083 105.508 64.1462C105.01 63.6489 105.01 63.6489 104.979 62.7475C104.99 62.4705 105 62.1936 105.01 61.9083C104.595 61.9237 104.595 61.9237 104.171 61.9394C103.27 61.9083 103.27 61.9083 102.772 61.411C102.695 60.7893 102.695 60.7893 102.772 60.1677C103.498 59.684 103.923 59.5578 104.762 59.4217C104.839 59.1448 104.916 58.8678 104.995 58.5825C105.259 57.6811 105.259 57.6811 105.508 57.1838Z" fill="#D8B94B"/>
<path d="M130.872 71.6064C131.478 72.0105 131.478 72.0105 131.866 72.6011C132.006 73.347 132.006 73.347 131.866 74.093C131.222 74.8132 130.816 75.056 129.861 75.2119C129.131 75.0876 129.131 75.0876 128.525 74.6991C128.136 74.093 128.136 74.093 128.152 73.2072C128.385 72.3524 128.385 72.3524 128.665 71.8706C129.425 71.4395 130.018 71.5016 130.872 71.6064Z" fill="#27204C"/>
<path d="M64.2622 127.304C65.3541 127.684 65.3541 127.684 65.723 128.299C65.8799 129.763 65.8799 129.763 65.4588 130.506C64.7084 130.942 64.0992 131.019 63.2365 131.034C62.6304 130.646 62.6304 130.646 62.2419 130.04C62.102 129.309 62.102 129.309 62.2419 128.548C62.8747 127.673 63.1598 127.304 64.2622 127.304Z" fill="#27204C"/>
<path d="M130.513 47.5015C131.735 47.8349 131.735 47.8349 132.113 48.4806C132.217 49.2912 132.182 49.8092 131.865 50.5631C131.192 51.1097 130.694 51.1092 129.844 51.0624C129.378 50.9672 129.378 50.9672 128.881 50.5631C128.559 49.7976 128.512 49.304 128.632 48.4806C129.203 47.5909 129.446 47.4828 130.513 47.5015Z" fill="#D8B94B"/>
<path d="M109.736 126.061C110.326 126.465 110.326 126.465 110.73 127.056C110.85 127.879 110.804 128.373 110.482 129.138C109.81 129.684 109.312 129.7 108.462 129.654C107.995 129.542 107.995 129.542 107.482 129.014C107.2 128.149 107.234 127.675 107.498 126.807C108.07 125.903 108.723 125.917 109.736 126.061Z" fill="#27204C"/>
<path d="M102.664 27.0966C103.891 27.4536 103.891 27.4536 104.265 28.0913C104.398 28.9848 104.376 29.4138 103.876 30.1737C103.046 30.7269 102.507 30.7022 101.53 30.5778C101.048 30.2981 101.048 30.2981 100.784 29.8318C100.641 28.8979 100.727 28.4466 101.172 27.6095C101.778 27.0966 101.778 27.0966 102.664 27.0966Z" fill="#27204C"/>
<path d="M71.4421 115.369C71.9083 115.649 71.9083 115.649 72.1881 116.115C72.2969 116.985 72.2969 116.985 72.1881 117.856C71.6107 118.571 71.2228 118.598 70.3076 118.71C69.4529 118.602 69.4529 118.602 68.9556 118.213C68.5956 117.336 68.7088 116.771 68.9556 115.866C69.7175 114.963 70.3555 115.045 71.4421 115.369Z" fill="#27204C"/>
<path d="M32.4031 84.7842C32.9005 85.2815 32.9005 85.2815 33.0092 86.1207C32.9005 87.0221 32.9005 87.0221 32.3565 87.6282C31.5968 88.0503 31.2625 88.1908 30.4139 88.0167C29.6599 87.4869 29.45 87.186 29.2794 86.2761C29.4193 85.5302 29.4193 85.5302 29.9321 84.9241C30.8781 84.4209 31.3817 84.5144 32.4031 84.7842Z" fill="#27204C"/>
<path d="M29.1709 27.0973C29.7541 27.6241 29.8908 27.9433 30.0256 28.7135C29.9168 29.3351 29.9168 29.3351 29.5283 29.9102C28.6951 30.487 28.1732 30.474 27.1816 30.3298C26.6843 29.9412 26.6843 29.9412 26.4357 29.3351C26.4657 28.4786 26.5415 27.8484 26.9641 27.0973C27.7491 26.6786 28.3382 26.8742 29.1709 27.0973Z" fill="#27204C"/>
<path d="M132.364 129.045C133.013 129.59 133.095 129.952 133.234 130.785C133.11 131.531 133.11 131.531 132.581 132.122C131.756 132.588 131.307 132.671 130.374 132.526C129.742 131.577 129.734 130.902 129.877 129.791C130.415 128.778 131.322 128.915 132.364 129.045Z" fill="#27204C"/>
<path d="M28.3166 106.417C29.1714 106.666 29.1714 106.666 29.6687 107.086C30.0141 107.884 29.9311 108.33 29.6687 109.153C29.1405 109.719 28.813 109.874 28.0524 110.007C27.2074 109.859 26.9304 109.6 26.4362 108.904C26.2846 107.994 26.3254 107.585 26.8247 106.806C27.4308 106.417 27.4308 106.417 28.3166 106.417Z" fill="#27204C"/>
<path d="M65.0714 52.3669C65.9728 52.4601 65.9728 52.4601 66.5788 52.8642C67.0788 53.6241 67.1005 54.0531 66.9674 54.9467C66.7187 55.4129 66.7187 55.4129 66.2214 55.6926C65.5354 55.8084 64.9172 55.818 64.2322 55.6926C63.7193 55.3041 63.7193 55.3041 63.4862 54.698C63.5983 52.5305 63.5983 52.5305 65.0714 52.3669Z" fill="#27204C"/>
<path d="M132.363 26.5991C132.953 26.8633 132.953 26.8633 133.357 27.3451C133.501 28.3341 133.503 28.8618 132.953 29.7073C132.363 30.0803 132.363 30.0803 131.601 30.0803C130.871 29.8317 130.871 29.8317 130.404 29.4121C130.041 28.6648 130.02 28.1665 130.125 27.3451C130.675 26.4274 131.362 26.4766 132.363 26.5991Z" fill="#27204C"/>
<path d="M133.871 60.9291C134.954 61.2749 134.954 61.2749 135.348 61.9082C135.481 62.8073 135.453 63.2363 134.959 64.0062C134.353 64.3948 134.353 64.3948 133.452 64.3637C132.612 64.1461 132.612 64.1461 132.115 63.6488C132.007 62.6748 131.978 62.119 132.519 61.2866C133.11 60.9136 133.11 60.9136 133.871 60.9291Z" fill="#27204C"/>
<path d="M151.758 136.753C152.224 137.017 152.224 137.017 152.504 137.499C152.613 138.369 152.613 138.369 152.504 139.24C151.987 139.833 151.657 139.96 150.888 140.094C150.266 139.986 150.266 139.986 149.675 139.597C149.271 138.991 149.271 138.991 149.287 138.09C149.672 136.702 150.438 136.616 151.758 136.753Z" fill="#D8B94B"/>
<path d="M9.52854 136.754C10.2241 137.248 10.4841 137.525 10.6319 138.37C10.4973 139.139 10.3701 139.47 9.77719 139.986C8.92061 140.093 8.32379 140.144 7.55484 139.722C7.13796 138.962 7.19981 138.347 7.29065 137.5C7.82642 136.577 8.53194 136.611 9.52854 136.754Z" fill="#D8B94B"/>
<path d="M151.508 20.6323C152.099 20.9121 152.099 20.9121 152.503 21.3783C152.627 22.1087 152.627 22.1087 152.503 22.8702C152.01 23.5643 151.724 23.8216 150.886 23.9892C150.048 23.8216 149.763 23.5643 149.27 22.8702C149.156 22.0741 149.132 21.6082 149.55 20.9121C150.238 20.4991 150.72 20.5359 151.508 20.6323Z" fill="#D8B94B"/>
<path d="M9.52879 20.6314C10.2228 21.1245 10.4801 21.4096 10.6477 22.2476C10.4782 23.0955 10.2482 23.3843 9.52879 23.8639C8.62742 23.8484 8.62742 23.8484 7.78821 23.6152C7.21312 22.7526 7.18528 22.3913 7.2909 21.3773C7.83982 20.4625 8.52983 20.4887 9.52879 20.6314Z" fill="#D8B94B"/>
<path d="M109.86 104.972C110.539 105.192 110.828 105.33 111.228 105.92C111.333 106.621 111.324 106.999 110.963 107.614C110.212 108.074 109.599 108.003 108.741 107.909C108.244 107.163 108.244 107.163 108.29 106.277C108.529 105.269 108.778 104.891 109.86 104.972Z" fill="#27204C"/>
<path d="M28.6902 131.065C29.4206 131.283 29.4206 131.283 29.9179 132.029C29.9801 132.666 29.9801 132.666 29.9179 133.272C29.4206 133.77 29.4206 133.77 28.5503 133.832C27.68 133.77 27.68 133.77 27.1827 133.272C27.0999 132.494 27.0642 131.984 27.4624 131.299C27.9287 131.034 27.9287 131.034 28.6902 131.065Z" fill="#27204C"/>
<path d="M26.3279 118.399C26.934 118.601 26.934 118.601 27.4313 119.099C27.509 119.844 27.509 119.844 27.4313 120.59C26.6853 121.088 26.6853 121.088 26.0482 121.026C25.4421 120.839 25.4421 120.839 24.9448 120.342C24.8533 119.628 24.8515 119.246 25.24 118.632C25.6907 118.353 25.6907 118.353 26.3279 118.399Z" fill="#27204C"/>
<path d="M83.8763 26.786C84.6223 26.8481 84.6223 26.8481 85.1196 27.3455C85.1818 28.0914 85.1818 28.0914 85.1196 28.8374C84.6223 29.3347 84.6223 29.3347 83.8763 29.3969C83.1304 29.3347 83.1304 29.3347 82.633 28.8374C82.5709 28.0914 82.5709 28.0914 82.633 27.3455C83.1304 26.8481 83.1304 26.8481 83.8763 26.786Z" fill="#27204C"/>
<path d="M56.7718 121.274C57.5177 121.336 57.5177 121.336 58.015 121.834C58.1083 122.44 58.1083 122.44 58.015 123.077C57.5954 123.543 57.5954 123.543 57.0204 123.823C56.3366 123.745 56.3366 123.745 55.7772 123.574C55.6217 122.735 55.6217 122.735 55.5285 121.834C56.0258 121.336 56.0258 121.336 56.7718 121.274Z" fill="#27204C"/>
<path d="M94.3199 29.0856C95.7045 29.2269 95.7045 29.2269 96.0605 29.5829C96.0916 30.4532 96.0916 30.4532 96.0605 31.3235C95.8119 31.5722 95.8119 31.5722 94.9416 31.6032C94.0713 31.5722 94.0713 31.5722 93.8226 31.3235C93.776 30.4688 93.776 30.4688 93.8226 29.5829C93.9867 29.4188 94.1508 29.2547 94.3199 29.0856Z" fill="#27204C"/>
<path d="M56.399 131.469C57.0207 131.531 57.0207 131.531 57.518 132.028C57.5801 132.774 57.5801 132.774 57.518 133.52C57.0207 134.018 57.0207 134.018 56.399 134.08C55.7774 134.018 55.7774 134.018 55.2801 133.52C55.2179 132.774 55.2179 132.774 55.2801 132.028C55.7774 131.531 55.7774 131.531 56.399 131.469Z" fill="#27204C"/>
<path d="M90.2161 106.852C90.8377 106.914 90.8377 106.914 91.3351 107.412C91.3972 108.158 91.3972 108.158 91.3351 108.904C90.8377 109.401 90.8377 109.401 90.2161 109.463C89.5945 109.401 89.5945 109.401 89.0972 108.904C89.035 108.158 89.035 108.158 89.0972 107.412C89.5945 106.914 89.5945 106.914 90.2161 106.852Z" fill="#27204C"/>
<path d="M90.837 129.294C91.6568 129.376 91.9864 129.449 92.5775 130.04C92.4956 130.86 92.4227 131.189 91.8316 131.78C91.0117 131.698 90.6821 131.626 90.091 131.034C90.173 130.215 90.2458 129.885 90.837 129.294Z" fill="#27204C"/>
<path d="M108.742 95.4762C109.562 95.5582 109.891 95.6311 110.482 96.2222C110.545 96.8438 110.545 96.8438 110.482 97.4655C109.985 97.9628 109.985 97.9628 109.208 97.9939C108.854 97.9785 108.854 97.9785 108.493 97.9628C108.15 97.2759 108.197 96.7326 108.244 95.9736C108.409 95.8094 108.573 95.6453 108.742 95.4762Z" fill="#27204C"/>
<path d="M117.21 97.9165C117.94 97.9631 117.94 97.9631 118.189 98.2118C118.22 99.0821 118.22 99.0821 118.189 99.9524C117.94 100.201 117.94 100.201 117.21 100.248C116.448 100.201 116.448 100.201 115.951 99.7037C115.889 99.0821 115.889 99.0821 115.951 98.4604C116.448 97.9631 116.448 97.9631 117.21 97.9165Z" fill="#27204C"/>
<path d="M63.2216 99.6568C63.9831 99.7035 63.9831 99.7035 64.4804 100.201C64.3391 101.585 64.3391 101.585 63.9831 101.941C63.2371 101.972 63.2371 101.972 62.4911 101.941C62.2425 101.693 62.2425 101.693 62.2114 100.822C62.2508 99.7188 62.2508 99.7188 63.2216 99.6568Z" fill="#27204C"/>
<path d="M120.676 153.164C124.123 153.246 127.569 153.328 131.12 153.413C131.12 153.495 131.12 153.577 131.12 153.662C129.753 153.715 128.385 153.764 127.018 153.809C126.552 153.825 126.087 153.842 125.622 153.86C124.954 153.887 124.285 153.908 123.617 153.929C123.304 153.943 123.304 153.943 122.985 153.957C122.397 153.972 122.397 153.972 121.422 153.91C121.176 153.664 120.93 153.418 120.676 153.164Z" fill="#D8B94B"/>
<path d="M150.267 136.753C150.431 136.835 150.595 136.917 150.764 137.002C150.533 137.287 150.533 137.287 150.298 137.577C149.755 138.244 149.755 138.244 149.272 138.991C149.35 138.152 149.35 138.152 149.521 137.251C149.767 137.087 150.013 136.922 150.267 136.753Z" fill="#D8B94B"/>
<path d="M31.9057 97.7146C31.9057 97.7967 31.9057 97.8787 31.9057 97.9633C31.498 98.0556 31.498 98.0556 31.082 98.1498C30.1504 98.4656 29.8901 98.6241 29.4192 99.4552C29.3725 98.8646 29.3725 98.8646 29.4192 98.2119C30.3253 97.6078 30.8396 97.6744 31.9057 97.7146Z" fill="#27204C"/>
<path d="M122.666 67.6274C123.163 67.8761 123.163 67.8761 123.163 67.8761L122.666 67.6274ZM122.168 67.8761C122.332 67.9581 122.497 68.0402 122.666 68.1247C121.516 69.1194 121.516 69.1194 120.676 69.1194C120.676 68.9552 120.676 68.7911 120.676 68.6221C121.165 68.3566 121.663 68.1084 122.168 67.8761Z" fill="#D8B94B"/>
</svg>
